  0
SECTION
  2
HEADER
  9
$ACADVER
  1
AC1027
  9
$ACADMAINTVER
 70
   105
  9
$DWGCODEPAGE
  3
ANSI_1252
  9
$LASTSAVEDBY
  1
Oliver
  9
$REQUIREDVERSIONS
160
                 0
  9
$INSBASE
 10
0.0
 20
0.0
 30
0.0
  9
$EXTMIN
 10
-647.0
 20
193.0
 30
0.0
  9
$EXTMAX
 10
580.0
 20
846.9999999999998
 30
0.0
  9
$LIMMIN
 10
0.0
 20
0.0
  9
$LIMMAX
 10
12.0
 20
9.0
  9
$ORTHOMODE
 70
     0
  9
$REGENMODE
 70
     1
  9
$FILLMODE
 70
     1
  9
$QTEXTMODE
 70
     0
  9
$MIRRTEXT
 70
     0
  9
$LTSCALE
 40
1.0
  9
$ATTMODE
 70
     1
  9
$TEXTSIZE
 40
0.2
  9
$TRACEWID
 40
0.05
  9
$TEXTSTYLE
  7
Standard
  9
$CLAYER
  8
Cuts
  9
$CELTYPE
  6
ByLayer
  9
$CECOLOR
 62
   256
  9
$CELTSCALE
 40
1.0
  9
$DISPSILH
 70
     0
  9
$DIMSCALE
 40
1.0
  9
$DIMASZ
 40
2.5
  9
$DIMEXO
 40
0.625
  9
$DIMDLI
 40
5.0
  9
$DIMRND
 40
0.0
  9
$DIMDLE
 40
0.0
  9
$DIMEXE
 40
1.25
  9
$DIMTP
 40
0.0
  9
$DIMTM
 40
0.0
  9
$DIMTXT
 40
2.5
  9
$DIMCEN
 40
0.09
  9
$DIMTSZ
 40
0.0
  9
$DIMTOL
 70
     0
  9
$DIMLIM
 70
     0
  9
$DIMTIH
 70
     0
  9
$DIMTOH
 70
     1
  9
$DIMSE1
 70
     0
  9
$DIMSE2
 70
     0
  9
$DIMTAD
 70
     1
  9
$DIMZIN
 70
     8
  9
$DIMBLK
  1

  9
$DIMASO
 70
     1
  9
$DIMSHO
 70
     1
  9
$DIMPOST
  1

  9
$DIMAPOST
  1

  9
$DIMALT
 70
     0
  9
$DIMALTD
 70
     2
  9
$DIMALTF
 40
25.4
  9
$DIMLFAC
 40
1.0
  9
$DIMTOFL
 70
     0
  9
$DIMTVP
 40
0.0
  9
$DIMTIX
 70
     0
  9
$DIMSOXD
 70
     0
  9
$DIMSAH
 70
     0
  9
$DIMBLK1
  1

  9
$DIMBLK2
  1

  9
$DIMSTYLE
  2
Standard
  9
$DIMCLRD
 70
     0
  9
$DIMCLRE
 70
     0
  9
$DIMCLRT
 70
     0
  9
$DIMTFAC
 40
1.0
  9
$DIMGAP
 40
0.625
  9
$DIMJUST
 70
     0
  9
$DIMSD1
 70
     0
  9
$DIMSD2
 70
     0
  9
$DIMTOLJ
 70
     1
  9
$DIMTZIN
 70
     0
  9
$DIMALTZ
 70
     0
  9
$DIMALTTZ
 70
     0
  9
$DIMUPT
 70
     0
  9
$DIMDEC
 70
     4
  9
$DIMTDEC
 70
     4
  9
$DIMALTU
 70
     2
  9
$DIMALTTD
 70
     2
  9
$DIMTXSTY
  7
Standard
  9
$DIMAUNIT
 70
     0
  9
$DIMADEC
 70
     0
  9
$DIMALTRND
 40
0.0
  9
$DIMAZIN
 70
     2
  9
$DIMDSEP
 70
    46
  9
$DIMATFIT
 70
     0
  9
$DIMFRAC
 70
     0
  9
$DIMLDRBLK
  1

  9
$DIMLUNIT
 70
     2
  9
$DIMLWD
 70
    -2
  9
$DIMLWE
 70
    -2
  9
$DIMTMOVE
 70
     0
  9
$DIMFXL
 40
1.0
  9
$DIMFXLON
 70
     0
  9
$DIMJOGANG
 40
0.7853981633974483
  9
$DIMTFILL
 70
     0
  9
$DIMTFILLCLR
 70
     0
  9
$DIMARCSYM
 70
     0
  9
$DIMLTYPE
  6

  9
$DIMLTEX1
  6

  9
$DIMLTEX2
  6

  9
$DIMTXTDIRECTION
 70
     0
  9
$LUNITS
 70
     2
  9
$LUPREC
 70
     4
  9
$SKETCHINC
 40
0.1
  9
$FILLETRAD
 40
0.0
  9
$AUNITS
 70
     0
  9
$AUPREC
 70
     0
  9
$MENU
  1
.
  9
$ELEVATION
 40
0.0
  9
$PELEVATION
 40
0.0
  9
$THICKNESS
 40
0.0
  9
$LIMCHECK
 70
     0
  9
$CHAMFERA
 40
0.0
  9
$CHAMFERB
 40
0.0
  9
$CHAMFERC
 40
0.0
  9
$CHAMFERD
 40
0.0
  9
$SKPOLY
 70
     0
  9
$TDCREATE
 40
2459977.495364491
  9
$TDUCREATE
 40
2459977.495364491
  9
$TDUPDATE
 40
2459977.495364954
  9
$TDUUPDATE
 40
2459977.495364954
  9
$TDINDWG
 40
0.0000000116
  9
$TDUSRTIMER
 40
0.0000000116
  9
$USRTIMER
 70
     1
  9
$ANGBASE
 50
0.0
  9
$ANGDIR
 70
     0
  9
$PDMODE
 70
     0
  9
$PDSIZE
 40
0.0
  9
$PLINEWID
 40
0.0
  9
$SPLFRAME
 70
     0
  9
$SPLINETYPE
 70
     6
  9
$SPLINESEGS
 70
     8
  9
$HANDSEED
  5
BFA
  9
$SURFTAB1
 70
     6
  9
$SURFTAB2
 70
     6
  9
$SURFTYPE
 70
     6
  9
$SURFU
 70
     6
  9
$SURFV
 70
     6
  9
$UCSBASE
  2

  9
$UCSNAME
  2

  9
$UCSORG
 10
0.0
 20
0.0
 30
0.0
  9
$UCSXDIR
 10
1.0
 20
0.0
 30
0.0
  9
$UCSYDIR
 10
0.0
 20
1.0
 30
0.0
  9
$UCSORTHOREF
  2

  9
$UCSORTHOVIEW
 70
     0
  9
$UCSORGTOP
 10
0.0
 20
0.0
 30
0.0
  9
$UCSORGBOTTOM
 10
0.0
 20
0.0
 30
0.0
  9
$UCSORGLEFT
 10
0.0
 20
0.0
 30
0.0
  9
$UCSORGRIGHT
 10
0.0
 20
0.0
 30
0.0
  9
$UCSORGFRONT
 10
0.0
 20
0.0
 30
0.0
  9
$UCSORGBACK
 10
0.0
 20
0.0
 30
0.0
  9
$PUCSBASE
  2

  9
$PUCSNAME
  2

  9
$PUCSORG
 10
0.0
 20
0.0
 30
0.0
  9
$PUCSXDIR
 10
1.0
 20
0.0
 30
0.0
  9
$PUCSYDIR
 10
0.0
 20
1.0
 30
0.0
  9
$PUCSORTHOREF
  2

  9
$PUCSORTHOVIEW
 70
     0
  9
$PUCSORGTOP
 10
0.0
 20
0.0
 30
0.0
  9
$PUCSORGBOTTOM
 10
0.0
 20
0.0
 30
0.0
  9
$PUCSORGLEFT
 10
0.0
 20
0.0
 30
0.0
  9
$PUCSORGRIGHT
 10
0.0
 20
0.0
 30
0.0
  9
$PUCSORGFRONT
 10
0.0
 20
0.0
 30
0.0
  9
$PUCSORGBACK
 10
0.0
 20
0.0
 30
0.0
  9
$USERI1
 70
     0
  9
$USERI2
 70
     0
  9
$USERI3
 70
     0
  9
$USERI4
 70
     0
  9
$USERI5
 70
     0
  9
$USERR1
 40
0.0
  9
$USERR2
 40
0.0
  9
$USERR3
 40
0.0
  9
$USERR4
 40
0.0
  9
$USERR5
 40
0.0
  9
$WORLDVIEW
 70
     1
  9
$SHADEDGE
 70
     3
  9
$SHADEDIF
 70
    70
  9
$TILEMODE
 70
     1
  9
$MAXACTVP
 70
    64
  9
$PINSBASE
 10
0.0
 20
0.0
 30
0.0
  9
$PLIMCHECK
 70
     0
  9
$PEXTMIN
 10
0.0
 20
0.0
 30
0.0
  9
$PEXTMAX
 10
0.0
 20
0.0
 30
0.0
  9
$PLIMMIN
 10
-20.0
 20
-7.5
  9
$PLIMMAX
 10
277.0
 20
202.5
  9
$UNITMODE
 70
     0
  9
$VISRETAIN
 70
     1
  9
$PLINEGEN
 70
     0
  9
$PSLTSCALE
 70
     1
  9
$TREEDEPTH
 70
  3020
  9
$CMLSTYLE
  2
Standard
  9
$CMLJUST
 70
     0
  9
$CMLSCALE
 40
1.0
  9
$PROXYGRAPHICS
 70
     1
  9
$MEASUREMENT
 70
     1
  9
$CELWEIGHT
370
    -1
  9
$ENDCAPS
280
     0
  9
$JOINSTYLE
280
     0
  9
$LWDISPLAY
290
     0
  9
$INSUNITS
 70
     4
  9
$HYPERLINKBASE
  1

  9
$STYLESHEET
  1

  9
$XEDIT
290
     1
  9
$CEPSNTYPE
380
     0
  9
$PSTYLEMODE
290
     1
  9
$FINGERPRINTGUID
  2
{c0dd61d5-f6fa-4088-940e-ba3ddebe83c5}
  9
$VERSIONGUID
  2
{FAEB1C32-E019-11D5-929B-00C0DF256EC4}
  9
$EXTNAMES
290
     1
  9
$PSVPSCALE
 40
0.0
  9
$OLESTARTUP
290
     0
  9
$SORTENTS
280
   127
  9
$INDEXCTL
280
     0
  9
$HIDETEXT
280
     1
  9
$XCLIPFRAME
280
     2
  9
$HALOGAP
280
     0
  9
$OBSCOLOR
 70
   257
  9
$OBSLTYPE
280
     0
  9
$INTERSECTIONDISPLAY
280
     0
  9
$INTERSECTIONCOLOR
 70
   257
  9
$DIMASSOC
280
     2
  9
$PROJECTNAME
  1

  9
$CAMERADISPLAY
290
     0
  9
$LENSLENGTH
 40
50.0
  9
$CAMERAHEIGHT
 40
0.0
  9
$STEPSPERSEC
 40
2.0
  9
$STEPSIZE
 40
6.0
  9
$3DDWFPREC
 40
2.0
  9
$PSOLWIDTH
 40
0.25
  9
$PSOLHEIGHT
 40
4.0
  9
$LOFTANG1
 40
1.570796326794897
  9
$LOFTANG2
 40
1.570796326794897
  9
$LOFTMAG1
 40
0.0
  9
$LOFTMAG2
 40
0.0
  9
$LOFTPARAM
 70
     7
  9
$LOFTNORMALS
280
     1
  9
$LATITUDE
 40
37.795
  9
$LONGITUDE
 40
-122.394
  9
$NORTHDIRECTION
 40
0.0
  9
$TIMEZONE
 70
 -8000
  9
$LIGHTGLYPHDISPLAY
280
     1
  9
$TILEMODELIGHTSYNCH
280
     1
  9
$CMATERIAL
347
B62
  9
$SOLIDHIST
280
     0
  9
$SHOWHIST
280
     1
  9
$DWFFRAME
280
     2
  9
$DGNFRAME
280
     2
  9
$REALWORLDSCALE
290
     1
  9
$INTERFERECOLOR
 62
   256
  9
$CSHADOW
280
     0
  9
$SHADOWPLANELOCATION
 40
0.0
  0
ENDSEC
  0
SECTION
  2
CLASSES
  0
CLASS
  1
ACDBDICTIONARYWDFLT
  2
AcDbDictionaryWithDefault
  3
ObjectDBX Classes
 90
        0
 91
        3
280
     0
281
     0
  0
CLASS
  1
VISUALSTYLE
  2
AcDbVisualStyle
  3
ObjectDBX Classes
 90
     4095
 91
        3
280
     0
281
     0
  0
CLASS
  1
MATERIAL
  2
AcDbMaterial
  3
ObjectDBX Classes
 90
     1153
 91
        3
280
     0
281
     0
  0
CLASS
  1
SCALE
  2
AcDbScale
  3
ObjectDBX Classes
 90
     1153
 91
        3
280
     0
281
     0
  0
CLASS
  1
TABLESTYLE
  2
AcDbTableStyle
  3
ObjectDBX Classes
 90
     4095
 91
        3
280
     0
281
     0
  0
CLASS
  1
MLEADERSTYLE
  2
AcDbMLeaderStyle
  3
ACDB_MLEADERSTYLE_CLASS
 90
     4095
 91
        3
280
     0
281
     0
  0
CLASS
  1
SUN
  2
AcDbSun
  3
SCENEOE
 90
     1153
 91
        3
280
     0
281
     0
  0
CLASS
  1
DICTIONARYVAR
  2
AcDbDictionaryVar
  3
ObjectDBX Classes
 90
        0
 91
        3
280
     0
281
     0
  0
CLASS
  1
CELLSTYLEMAP
  2
AcDbCellStyleMap
  3
ObjectDBX Classes
 90
     1152
 91
        3
280
     0
281
     0
  0
ENDSEC
  0
SECTION
  2
TABLES
  0
TABLE
  2
VPORT
  5
B27
330
0
100
AcDbSymbolTable
 70
     1
  0
VPORT
  5
B47
330
B27
100
AcDbSymbolTableRecord
100
AcDbViewportTableRecord
  2
*Active
 70
     0
 10
0.0
 20
0.0
 11
1.0
 21
1.0
 12
464.6515913945653
 22
486.8781245932142
 13
0.0
 23
0.0
 14
0.5
 24
0.5
 15
0.5
 25
0.5
 16
0.0
 26
0.0
 36
1.0
 17
0.0
 27
0.0
 37
0.0
 40
486.9796655491688
 41
2.016085790884719
 42
50.0
 43
0.0
 44
0.0
 50
0.0
 51
0.0
 71
     0
 72
   100
 73
     1
 74
     3
 75
     0
 76
     0
 77
     0
 78
     0
281
     0
 65
     1
110
0.0
120
0.0
130
0.0
111
1.0
121
0.0
131
0.0
112
0.0
122
1.0
132
0.0
 79
     0
146
0.0
348
B4D
 60
     3
 61
     5
292
     1
282
     1
141
0.0
142
0.0
 63
   250
361
B7B
  0
ENDTAB
  0
TABLE
  2
LTYPE
  5
B24
330
0
100
AcDbSymbolTable
 70
    48
  0
LTYPE
  5
B32
330
B24
100
AcDbSymbolTableRecord
100
AcDbLinetypeTableRecord
  2
ByBlock
 70
     0
  3

 72
    65
 73
     0
 40
0.0
  0
LTYPE
  5
B33
330
B24
100
AcDbSymbolTableRecord
100
AcDbLinetypeTableRecord
  2
ByLayer
 70
     0
  3

 72
    65
 73
     0
 40
0.0
  0
LTYPE
  5
B34
330
B24
100
AcDbSymbolTableRecord
100
AcDbLinetypeTableRecord
  2
Continuous
 70
     0
  3
Solid line
 72
    65
 73
     0
 40
0.0
  0
LTYPE
  5
BB5
330
B24
100
AcDbSymbolTableRecord
100
AcDbLinetypeTableRecord
  2
PHANTOM
 70
     0
  3
Phantom ______  __  __  ______  __  __  ______ 
 72
    65
 73
     6
 40
63.50000000000001
 49
31.75
 74
     0
 49
-6.35
 74
     0
 49
6.35
 74
     0
 49
-6.35
 74
     0
 49
6.35
 74
     0
 49
-6.35
 74
     0
  0
LTYPE
  5
BB7
330
B24
100
AcDbSymbolTableRecord
100
AcDbLinetypeTableRecord
  2
HOT_WATER_SUPPLY
 70
     0
  3
Hot water supply ---- HW ---- HW ---- HW ----
 72
    65
 73
     3
 40
22.86
 49
12.7
 74
     0
 49
-5.08
 74
     2
 75
     0
340
BB6
 46
2.54
 50
0.0
 44
-2.54
 45
-1.27
  9
HW
 49
-5.08
 74
     0
  0
LTYPE
  5
BB8
330
B24
100
AcDbSymbolTableRecord
100
AcDbLinetypeTableRecord
  2
HIDDENX2
 70
     0
  3
Hidden (2x) ____ ____ ____ ____ ____ ____ ____ 
 72
    65
 73
     2
 40
19.05
 49
12.7
 74
     0
 49
-6.35
 74
     0
  0
LTYPE
  5
BB9
330
B24
100
AcDbSymbolTableRecord
100
AcDbLinetypeTableRecord
  2
HIDDEN2
 70
     0
  3
Hidden (.5x) _ _ _ _ _ _ _ _ _ _ _ _ _ _ _ _ _ 
 72
    65
 73
     2
 40
4.762499999999999
 49
3.175
 74
     0
 49
-1.5875
 74
     0
  0
LTYPE
  5
BBA
330
B24
100
AcDbSymbolTableRecord
100
AcDbLinetypeTableRecord
  2
HIDDEN
 70
     0
  3
Hidden __ __ __ __ __ __ __ __ __ __ __ __ __ __
 72
    65
 73
     2
 40
9.524999999999999
 49
6.35
 74
     0
 49
-3.175
 74
     0
  0
LTYPE
  5
BBB
330
B24
100
AcDbSymbolTableRecord
100
AcDbLinetypeTableRecord
  2
GAS_LINE
 70
     0
  3
Gas line ----GAS----GAS----GAS----GAS----GAS----GAS--
 72
    65
 73
     3
 40
24.13
 49
12.7
 74
     0
 49
-5.08
 74
     2
 75
     0
340
BB6
 46
2.54
 50
0.0
 44
-2.54
 45
-1.27
  9
GAS
 49
-6.35
 74
     0
  0
LTYPE
  5
BBD
330
B24
100
AcDbSymbolTableRecord
100
AcDbLinetypeTableRecord
  2
FENCELINE2
 70
     0
  3
Fenceline square ----[]-----[]----[]-----[]----[]---
 72
    65
 73
     4
 40
36.83
 49
6.35
 74
     0
 49
-2.54
 74
     2
 75
     0
340
BBC
 46
2.54
 50
0.0
 44
-2.54
 45
0.0
  9
BOX
 49
-2.54
 74
     0
 49
25.4
 74
     0
  0
LTYPE
  5
BBE
330
B24
100
AcDbSymbolTableRecord
100
AcDbLinetypeTableRecord
  2
FENCELINE1
 70
     0
  3
Fenceline circle ----0-----0----0-----0----0-----0--
 72
    65
 73
     4
 40
36.83
 49
6.35
 74
     0
 49
-2.54
 74
     2
 75
     0
340
BBC
 46
2.54
 50
0.0
 44
-2.54
 45
0.0
  9
CIRC1
 49
-2.54
 74
     0
 49
25.4
 74
     0
  0
LTYPE
  5
BC0
330
B24
100
AcDbSymbolTableRecord
100
AcDbLinetypeTableRecord
  2
DRAINAGE2
 70
     0
  3
Drainage reversed----<----<----<----
 72
    65
 73
     2
 40
10.16
 49
5.08
 74
     2
 75
     0
340
BBF
 46
2.54
 50
0.0
 44
0.0
 45
0.0
  9
RIGHT_ARROW
 49
5.08
 74
     0
  0
LTYPE
  5
BC1
330
B24
100
AcDbSymbolTableRecord
100
AcDbLinetypeTableRecord
  2
DRAINAGE
 70
     0
  3
Drainage ---->---->---->----
 72
    65
 73
     2
 40
10.16
 49
5.08
 74
     2
 75
     0
340
BBF
 46
2.54
 50
180.0
 44
0.0
 45
0.0
  9
RIGHT_ARROW
 49
5.08
 74
     0
  0
LTYPE
  5
BC2
330
B24
100
AcDbSymbolTableRecord
100
AcDbLinetypeTableRecord
  2
DOTX2
 70
     0
  3
Dot (2x) .  .  .  .  .  .  .  .  .  .  .  .  .  .
 72
    65
 73
     2
 40
12.7
 49
0.0
 74
     0
 49
-12.7
 74
     0
  0
LTYPE
  5
BC3
330
B24
100
AcDbSymbolTableRecord
100
AcDbLinetypeTableRecord
  2
DOT2
 70
     0
  3
Dot (.5x) ........................................
 72
    65
 73
     2
 40
3.175
 49
0.0
 74
     0
 49
-3.175
 74
     0
  0
LTYPE
  5
BC4
330
B24
100
AcDbSymbolTableRecord
100
AcDbLinetypeTableRecord
  2
DOT
 70
     0
  3
Dot . . . . . . . . . . . . . . . . . . . . . . . .
 72
    65
 73
     2
 40
6.35
 49
0.0
 74
     0
 49
-6.35
 74
     0
  0
LTYPE
  5
BC5
330
B24
100
AcDbSymbolTableRecord
100
AcDbLinetypeTableRecord
  2
DIVIDEX2
 70
     0
  3
Divide (2x) ________  .  .  ________  .  .  _
 72
    65
 73
     6
 40
63.5
 49
25.4
 74
     0
 49
-12.7
 74
     0
 49
0.0
 74
     0
 49
-12.7
 74
     0
 49
0.0
 74
     0
 49
-12.7
 74
     0
  0
LTYPE
  5
BC6
330
B24
100
AcDbSymbolTableRecord
100
AcDbLinetypeTableRecord
  2
DIVIDE2
 70
     0
  3
Divide (.5x) __..__..__..__..__..__..__..__.._
 72
    65
 73
     6
 40
15.875
 49
6.35
 74
     0
 49
-3.175
 74
     0
 49
0.0
 74
     0
 49
-3.175
 74
     0
 49
0.0
 74
     0
 49
-3.175
 74
     0
  0
LTYPE
  5
BC7
330
B24
100
AcDbSymbolTableRecord
100
AcDbLinetypeTableRecord
  2
DIVIDE
 70
     0
  3
Divide ____ . . ____ . . ____ . . ____ . . ____
 72
    65
 73
     6
 40
31.75
 49
12.7
 74
     0
 49
-6.35
 74
     0
 49
0.0
 74
     0
 49
-6.35
 74
     0
 49
0.0
 74
     0
 49
-6.35
 74
     0
  0
LTYPE
  5
BC8
330
B24
100
AcDbSymbolTableRecord
100
AcDbLinetypeTableRecord
  2
DASHEDX2
 70
     0
  3
Dashed (2x) ____  ____  ____  ____  ____  ___
 72
    65
 73
     2
 40
38.09999999999999
 49
25.4
 74
     0
 49
-12.7
 74
     0
  0
LTYPE
  5
BC9
330
B24
100
AcDbSymbolTableRecord
100
AcDbLinetypeTableRecord
  2
DASHED2
 70
     0
  3
Dashed (.5x) _ _ _ _ _ _ _ _ _ _ _ _ _ _ _ _ _ 
 72
    65
 73
     2
 40
9.524999999999999
 49
6.35
 74
     0
 49
-3.175
 74
     0
  0
LTYPE
  5
BCA
330
B24
100
AcDbSymbolTableRecord
100
AcDbLinetypeTableRecord
  2
DASHED
 70
     0
  3
Dashed __ __ __ __ __ __ __ __ __ __ __ __ __ _
 72
    65
 73
     2
 40
19.05
 49
12.7
 74
     0
 49
-6.35
 74
     0
  0
LTYPE
  5
BCB
330
B24
100
AcDbSymbolTableRecord
100
AcDbLinetypeTableRecord
  2
DASHDOTX2
 70
     0
  3
Dash dot (2x) ____  .  ____  .  ____  .  ___
 72
    65
 73
     4
 40
50.8
 49
25.4
 74
     0
 49
-12.7
 74
     0
 49
0.0
 74
     0
 49
-12.7
 74
     0
  0
LTYPE
  5
BCC
330
B24
100
AcDbSymbolTableRecord
100
AcDbLinetypeTableRecord
  2
DASHDOT2
 70
     0
  3
Dash dot (.5x) _._._._._._._._._._._._._._._.
 72
    65
 73
     4
 40
12.7
 49
6.35
 74
     0
 49
-3.175
 74
     0
 49
0.0
 74
     0
 49
-3.175
 74
     0
  0
LTYPE
  5
BCD
330
B24
100
AcDbSymbolTableRecord
100
AcDbLinetypeTableRecord
  2
DASHDOT
 70
     0
  3
Dash dot __ . __ . __ . __ . __ . __ . __ . __
 72
    65
 73
     4
 40
25.4
 49
12.7
 74
     0
 49
-6.35
 74
     0
 49
0.0
 74
     0
 49
-6.35
 74
     0
  0
LTYPE
  5
BCE
330
B24
100
AcDbSymbolTableRecord
100
AcDbLinetypeTableRecord
  2
CENTERX2
 70
     0
  3
Center (2x) ________  __  ________  __  _____
 72
    65
 73
     4
 40
101.6
 49
63.5
 74
     0
 49
-12.7
 74
     0
 49
12.7
 74
     0
 49
-12.7
 74
     0
  0
LTYPE
  5
BCF
330
B24
100
AcDbSymbolTableRecord
100
AcDbLinetypeTableRecord
  2
CENTER2
 70
     0
  3
Center (.5x) ___ _ ___ _ ___ _ ___ _ ___ _ ___
 72
    65
 73
     4
 40
28.575
 49
19.05
 74
     0
 49
-3.175
 74
     0
 49
3.175
 74
     0
 49
-3.175
 74
     0
  0
LTYPE
  5
BD0
330
B24
100
AcDbSymbolTableRecord
100
AcDbLinetypeTableRecord
  2
CENTER
 70
     0
  3
Center ____ _ ____ _ ____ _ ____ _ ____ _ ____
 72
    65
 73
     4
 40
50.8
 49
31.75
 74
     0
 49
-6.35
 74
     0
 49
6.35
 74
     0
 49
-6.35
 74
     0
  0
LTYPE
  5
BD1
330
B24
100
AcDbSymbolTableRecord
100
AcDbLinetypeTableRecord
  2
BORDERX2
 70
     0
  3
Border (2x) ____  ____  .  ____  ____  .  ___
 72
    65
 73
     6
 40
88.89999999999999
 49
25.4
 74
     0
 49
-12.7
 74
     0
 49
25.4
 74
     0
 49
-12.7
 74
     0
 49
0.0
 74
     0
 49
-12.7
 74
     0
  0
LTYPE
  5
BD2
330
B24
100
AcDbSymbolTableRecord
100
AcDbLinetypeTableRecord
  2
BORDER2
 70
     0
  3
Border (.5x) __.__.__.__.__.__.__.__.__.__.__.
 72
    65
 73
     6
 40
22.225
 49
6.35
 74
     0
 49
-3.175
 74
     0
 49
6.35
 74
     0
 49
-3.175
 74
     0
 49
0.0
 74
     0
 49
-3.175
 74
     0
  0
LTYPE
  5
BD3
330
B24
100
AcDbSymbolTableRecord
100
AcDbLinetypeTableRecord
  2
BORDER
 70
     0
  3
Border __ __ . __ __ . __ __ . __ __ . __ __ .
 72
    65
 73
     6
 40
44.45
 49
12.7
 74
     0
 49
-6.35
 74
     0
 49
12.7
 74
     0
 49
-6.35
 74
     0
 49
0.0
 74
     0
 49
-6.35
 74
     0
  0
LTYPE
  5
BD4
330
B24
100
AcDbSymbolTableRecord
100
AcDbLinetypeTableRecord
  2
BATTING
 70
     0
  3
Batting SSSSSSSSSSSSSSSSSSSSSSSSSSSSSSSSSSSSSSSSSSSSSSS
 72
    65
 73
     4
 40
10.16254
 49
0.00254
 74
     0
 49
-2.54
 74
     2
 75
     0
340
BBC
 46
2.54
 50
0.0
 44
-2.54
 45
0.0
  9
BAT
 49
-5.08
 74
     2
 75
     0
340
BBC
 46
2.54
 50
180.0
 44
2.54
 45
0.0
  9
BAT
 49
-2.54
 74
     0
  0
LTYPE
  5
BD5
330
B24
100
AcDbSymbolTableRecord
100
AcDbLinetypeTableRecord
  2
ACAD_ISO15W100
 70
     0
  3
ISO double-dash triple-dot __ __ . . . __ __ . .
 72
    65
 73
    10
 40
39.0
 49
12.0
 74
     0
 49
-3.0
 74
     0
 49
12.0
 74
     0
 49
-3.0
 74
     0
 49
0.0
 74
     0
 49
-3.0
 74
     0
 49
0.0
 74
     0
 49
-3.0
 74
     0
 49
0.0
 74
     0
 49
-3.0
 74
     0
  0
LTYPE
  5
BD6
330
B24
100
AcDbSymbolTableRecord
100
AcDbLinetypeTableRecord
  2
ACAD_ISO14W100
 70
     0
  3
ISO dash triple-dot __ . . . __ . . . __ . . . _
 72
    65
 73
     8
 40
24.0
 49
12.0
 74
     0
 49
-3.0
 74
     0
 49
0.0
 74
     0
 49
-3.0
 74
     0
 49
0.0
 74
     0
 49
-3.0
 74
     0
 49
0.0
 74
     0
 49
-3.0
 74
     0
  0
LTYPE
  5
BD7
330
B24
100
AcDbSymbolTableRecord
100
AcDbLinetypeTableRecord
  2
ACAD_ISO13W100
 70
     0
  3
ISO double-dash double-dot __ __ . . __ __ . . _
 72
    65
 73
     8
 40
36.0
 49
12.0
 74
     0
 49
-3.0
 74
     0
 49
12.0
 74
     0
 49
-3.0
 74
     0
 49
0.0
 74
     0
 49
-3.0
 74
     0
 49
0.0
 74
     0
 49
-3.0
 74
     0
  0
LTYPE
  5
BD8
330
B24
100
AcDbSymbolTableRecord
100
AcDbLinetypeTableRecord
  2
ACAD_ISO12W100
 70
     0
  3
ISO dash double-dot __ . . __ . . __ . . __ . . 
 72
    65
 73
     6
 40
21.0
 49
12.0
 74
     0
 49
-3.0
 74
     0
 49
0.0
 74
     0
 49
-3.0
 74
     0
 49
0.0
 74
     0
 49
-3.0
 74
     0
  0
LTYPE
  5
BD9
330
B24
100
AcDbSymbolTableRecord
100
AcDbLinetypeTableRecord
  2
ACAD_ISO11W100
 70
     0
  3
ISO double-dash dot __ __ . __ __ . __ __ . __ _
 72
    65
 73
     6
 40
33.0
 49
12.0
 74
     0
 49
-3.0
 74
     0
 49
12.0
 74
     0
 49
-3.0
 74
     0
 49
0.0
 74
     0
 49
-3.0
 74
     0
  0
LTYPE
  5
BDA
330
B24
100
AcDbSymbolTableRecord
100
AcDbLinetypeTableRecord
  2
ACAD_ISO10W100
 70
     0
  3
ISO dash dot __ . __ . __ . __ . __ . __ . __ . 
 72
    65
 73
     4
 40
18.0
 49
12.0
 74
     0
 49
-3.0
 74
     0
 49
0.0
 74
     0
 49
-3.0
 74
     0
  0
LTYPE
  5
BDB
330
B24
100
AcDbSymbolTableRecord
100
AcDbLinetypeTableRecord
  2
ACAD_ISO09W100
 70
     0
  3
ISO long-dash double-short-dash ____ __ __ ____
 72
    65
 73
     6
 40
45.0
 49
24.0
 74
     0
 49
-3.0
 74
     0
 49
6.0
 74
     0
 49
-3.0
 74
     0
 49
6.0
 74
     0
 49
-3.0
 74
     0
  0
LTYPE
  5
BDC
330
B24
100
AcDbSymbolTableRecord
100
AcDbLinetypeTableRecord
  2
ACAD_ISO08W100
 70
     0
  3
ISO long-dash short-dash ____ __ ____ __ ____ _
 72
    65
 73
     4
 40
36.0
 49
24.0
 74
     0
 49
-3.0
 74
     0
 49
6.0
 74
     0
 49
-3.0
 74
     0
  0
LTYPE
  5
BDD
330
B24
100
AcDbSymbolTableRecord
100
AcDbLinetypeTableRecord
  2
ACAD_ISO07W100
 70
     0
  3
ISO dot . . . . . . . . . . . . . . . . . . . . 
 72
    65
 73
     2
 40
3.0
 49
0.0
 74
     0
 49
-3.0
 74
     0
  0
LTYPE
  5
BDE
330
B24
100
AcDbSymbolTableRecord
100
AcDbLinetypeTableRecord
  2
ACAD_ISO06W100
 70
     0
  3
ISO long-dash triple-dot ____ ... ____ ... ____
 72
    65
 73
     8
 40
36.0
 49
24.0
 74
     0
 49
-3.0
 74
     0
 49
0.0
 74
     0
 49
-3.0
 74
     0
 49
0.0
 74
     0
 49
-3.0
 74
     0
 49
0.0
 74
     0
 49
-3.0
 74
     0
  0
LTYPE
  5
BDF
330
B24
100
AcDbSymbolTableRecord
100
AcDbLinetypeTableRecord
  2
ACAD_ISO05W100
 70
     0
  3
ISO long-dash double-dot ____ .. ____ .. ____ . 
 72
    65
 73
     6
 40
33.0
 49
24.0
 74
     0
 49
-3.0
 74
     0
 49
0.0
 74
     0
 49
-3.0
 74
     0
 49
0.0
 74
     0
 49
-3.0
 74
     0
  0
LTYPE
  5
BE0
330
B24
100
AcDbSymbolTableRecord
100
AcDbLinetypeTableRecord
  2
ACAD_ISO04W100
 70
     0
  3
ISO long-dash dot ____ . ____ . ____ . ____ . _
 72
    65
 73
     4
 40
30.0
 49
24.0
 74
     0
 49
-3.0
 74
     0
 49
0.0
 74
     0
 49
-3.0
 74
     0
  0
LTYPE
  5
BE1
330
B24
100
AcDbSymbolTableRecord
100
AcDbLinetypeTableRecord
  2
ACAD_ISO03W100
 70
     0
  3
ISO dash space __    __    __    __    __    __
 72
    65
 73
     2
 40
30.0
 49
12.0
 74
     0
 49
-18.0
 74
     0
  0
LTYPE
  5
BE2
330
B24
100
AcDbSymbolTableRecord
100
AcDbLinetypeTableRecord
  2
ACAD_ISO02W100
 70
     0
  3
ISO dash __ __ __ __ __ __ __ __ __ __ __ __ __
 72
    65
 73
     2
 40
15.0
 49
12.0
 74
     0
 49
-3.0
 74
     0
  0
LTYPE
  5
BE3
330
B24
100
AcDbSymbolTableRecord
100
AcDbLinetypeTableRecord
  2
ZIGZAG
 70
     0
  3
Zig zag /\/\/\/\/\/\/\/\/\/\/\/\/\/\/\/\/\/\/\/\/\/\/\/
 72
    65
 73
     4
 40
20.32254
 49
0.00254
 74
     0
 49
-5.08
 74
     2
 75
     0
340
BBC
 46
5.08
 50
0.0
 44
-5.08
 45
0.0
  9
ZIG
 49
-10.16
 74
     2
 75
     0
340
BBC
 46
5.08
 50
180.0
 44
5.08
 45
0.0
  9
ZIG
 49
-5.08
 74
     0
  0
LTYPE
  5
BE4
330
B24
100
AcDbSymbolTableRecord
100
AcDbLinetypeTableRecord
  2
TRACKS
 70
     0
  3
Tracks -|-|-|-|-|-|-|-|-|-|-|-|-|-|-|-|-|-|-|-|-|-|-|-|-
 72
    65
 73
     2
 40
7.62
 49
3.81
 74
     2
 75
     0
340
BBC
 46
6.35
 50
0.0
 44
0.0
 45
0.0
  9
TRACK1
 49
3.81
 74
     0
  0
LTYPE
  5
BE5
330
B24
100
AcDbSymbolTableRecord
100
AcDbLinetypeTableRecord
  2
PHANTOMX2
 70
     0
  3
Phantom (2x) ____________    ____    ____   _
 72
    65
 73
     6
 40
127.0
 49
63.5
 74
     0
 49
-12.7
 74
     0
 49
12.7
 74
     0
 49
-12.7
 74
     0
 49
12.7
 74
     0
 49
-12.7
 74
     0
  0
LTYPE
  5
BE6
330
B24
100
AcDbSymbolTableRecord
100
AcDbLinetypeTableRecord
  2
PHANTOM2
 70
     0
  3
Phantom (.5x) ___ _ _ ___ _ _ ___ _ _ ___ _ _
 72
    65
 73
     6
 40
31.75
 49
15.875
 74
     0
 49
-3.175
 74
     0
 49
3.175
 74
     0
 49
-3.175
 74
     0
 49
3.175
 74
     0
 49
-3.175
 74
     0
  0
ENDTAB
  0
TABLE
  2
LAYER
  5
B22
330
0
100
AcDbSymbolTable
 70
     5
  0
LAYER
  5
B2F
330
B22
100
AcDbSymbolTableRecord
100
AcDbLayerTableRecord
  2
0
 70
     0
 62
     7
  6
Continuous
370
    25
390
B2E
347
B64
348
0
  0
LAYER
  5
BE7
330
B22
100
AcDbSymbolTableRecord
100
AcDbLayerTableRecord
  2
Construction
 70
     0
 62
     9
  6
HIDDEN
290
     0
370
    25
390
B2E
347
B64
348
0
  0
LAYER
  5
BE8
330
B22
100
AcDbSymbolTableRecord
100
AcDbLayerTableRecord
  2
Cuts
 70
     0
 62
     4
  6
Continuous
370
    25
390
B2E
347
B64
348
0
  0
LAYER
  5
BE9
330
B22
100
AcDbSymbolTableRecord
100
AcDbLayerTableRecord
  2
Legend
 70
     0
 62
     3
  6
Continuous
370
    25
390
B2E
347
B64
348
0
  0
LAYER
  5
BEA
330
B22
100
AcDbSymbolTableRecord
100
AcDbLayerTableRecord
  2
Outline
 70
     0
 62
     2
  6
Continuous
370
    25
390
B2E
347
B64
348
0
  0
ENDTAB
  0
TABLE
  2
STYLE
  5
B23
330
0
100
AcDbSymbolTable
 70
     5
  0
STYLE
  5
B30
330
B23
100
AcDbSymbolTableRecord
100
AcDbTextStyleTableRecord
  2
Standard
 70
     0
 40
0.0
 41
1.0
 50
0.0
 71
     0
 42
0.2
  3
txt
  4

  0
STYLE
  5
BB6
330
B23
100
AcDbSymbolTableRecord
100
AcDbTextStyleTableRecord
  2
textstyle0
 70
     0
 40
0.0
 41
1.0
 50
0.0
 71
     0
 42
0.2
  3
STANDARD
  4

  0
STYLE
  5
BBC
330
B23
100
AcDbSymbolTableRecord
100
AcDbTextStyleTableRecord
  2
textstyle1
 70
     0
 40
0.0
 41
1.0
 50
0.0
 71
     0
 42
0.2
  3
ltypeshp.shx
  4

  0
STYLE
  5
BBF
330
B23
100
AcDbSymbolTableRecord
100
AcDbTextStyleTableRecord
  2
textstyle2
 70
     0
 40
0.0
 41
1.0
 50
0.0
 71
     0
 42
0.2
  3
qcadshp.shx
  4

  0
STYLE
  5
BF0
330
B23
100
AcDbSymbolTableRecord
100
AcDbTextStyleTableRecord
  2
textstyle3
 70
     0
 40
0.0
 41
1.0
 50
0.0
 71
     0
 42
0.2
  3
arial.ttf
  4

1001
ACAD
1000
Arial
1071
        0
  0
ENDTAB
  0
TABLE
  2
VIEW
  5
B25
330
0
100
AcDbSymbolTable
 70
     0
  0
ENDTAB
  0
TABLE
  2
UCS
  5
B26
330
0
100
AcDbSymbolTable
 70
     0
  0
ENDTAB
  0
TABLE
  2
APPID
  5
B28
330
0
100
AcDbSymbolTable
 70
     2
  0
APPID
  5
B31
330
B28
100
AcDbSymbolTableRecord
100
AcDbRegAppTableRecord
  2
ACAD
 70
     0
  0
APPID
  5
B7C
330
B28
100
AcDbSymbolTableRecord
100
AcDbRegAppTableRecord
  2
QCAD
 70
     0
  0
ENDTAB
  0
TABLE
  2
DIMSTYLE
  5
B29
330
0
100
AcDbSymbolTable
 70
     2
100
AcDbDimStyleTable
  0
DIMSTYLE
105
B45
330
B29
100
AcDbSymbolTableRecord
100
AcDbDimStyleTableRecord
  2
Standard
 70
     0
178
     0
340
B30
  0
DIMSTYLE
105
BB4
330
B29
100
AcDbSymbolTableRecord
100
AcDbDimStyleTableRecord
  2
QCADDimStyle
 70
     0
 41
2.5
 42
0.625
 43
5.0
 44
1.25
 73
     0
 77
     1
 78
     8
 79
     2
140
2.5
147
0.625
178
     0
279
     2
340
B30
  0
ENDTAB
  0
TABLE
  2
BLOCK_RECORD
  5
B21
330
0
100
AcDbSymbolTable
 70
     1
  0
BLOCK_RECORD
  5
B3D
330
B21
100
AcDbSymbolTableRecord
100
AcDbBlockTableRecord
  2
*Model_Space
340
B40
 70
     0
280
     1
281
     0
  0
BLOCK_RECORD
  5
B39
330
B21
100
AcDbSymbolTableRecord
100
AcDbBlockTableRecord
  2
*Paper_Space
340
B3C
 70
     0
280
     1
281
     0
1001
QCAD
1000
PageSettings/Scale:1:1
  0
BLOCK_RECORD
  5
BED
330
B21
100
AcDbSymbolTableRecord
100
AcDbBlockTableRecord
  2
IEC Mains Inlet
340
0
102
{BLKREFS
331
8C1
102
}
 70
     0
280
     1
281
     0
  0
ENDTAB
  0
ENDSEC
  0
SECTION
  2
BLOCKS
  0
BLOCK
  5
B3E
330
B3D
100
AcDbEntity
  8
0
100
AcDbBlockBegin
  2
*Model_Space
 70
     0
 10
0.0
 20
0.0
 30
0.0
  3
*Model_Space
  1

  0
ENDBLK
  5
B3F
330
B3D
100
AcDbEntity
  8
0
100
AcDbBlockEnd
  0
BLOCK
  5
B3A
330
B39
100
AcDbEntity
 67
     1
  8
0
100
AcDbBlockBegin
  2
*Paper_Space
 70
     0
 10
0.0
 20
0.0
 30
0.0
  3
*Paper_Space
  1

  0
ENDBLK
  5
B3B
330
B39
100
AcDbEntity
 67
     1
  8
0
100
AcDbBlockEnd
  0
BLOCK
  5
BEE
330
BED
100
AcDbEntity
  8
0
100
AcDbBlockBegin
  2
IEC Mains Inlet
 70
     0
 10
0.0
 20
0.0
 30
0.0
  3
IEC Mains Inlet
  1

  0
LINE
  5
130
330
BED
100
AcDbEntity
  8
Cuts
100
AcDbLine
 10
19.5
 20
20.0
 30
0.0
 11
40.5
 21
20.0
 31
0.0
  0
LINE
  5
131
330
BED
100
AcDbEntity
  8
Cuts
100
AcDbLine
 10
44.0
 20
16.5
 30
0.0
 11
44.0
 21
3.5
 31
0.0
  0
LINE
  5
128
330
BED
100
AcDbEntity
  8
Cuts
100
AcDbLine
 10
40.5
 20
0.0
 30
0.0
 11
19.5
 21
0.0
 31
0.0
  0
LINE
  5
129
330
BED
100
AcDbEntity
  8
Cuts
100
AcDbLine
 10
16.0
 20
3.5
 30
0.0
 11
16.0
 21
16.5
 31
0.0
  0
ARC
  5
12B
330
BED
100
AcDbEntity
  8
Cuts
100
AcDbCircle
 10
19.5
 20
16.5
 30
0.0
 40
3.5
100
AcDbArc
 50
90.0
 51
180.0
1001
QCAD
1000
reversed:1
  0
ARC
  5
12A
330
BED
100
AcDbEntity
  8
Cuts
100
AcDbCircle
 10
40.5
 20
16.5
 30
0.0
 40
3.5
100
AcDbArc
 50
0.0
 51
90.0
1001
QCAD
1000
reversed:1
  0
ARC
  5
12C
330
BED
100
AcDbEntity
  8
Cuts
100
AcDbCircle
 10
40.5
 20
3.5
 30
0.0
 40
3.5
100
AcDbArc
 50
270.0
 51
0.0
1001
QCAD
1000
reversed:1
  0
ARC
  5
12D
330
BED
100
AcDbEntity
  8
Cuts
100
AcDbCircle
 10
19.5
 20
3.5
 30
0.0
 40
3.5
100
AcDbArc
 50
180.0
 51
270.0
  0
CIRCLE
  5
12E
330
BED
100
AcDbEntity
  8
Cuts
100
AcDbCircle
 10
10.0
 20
10.0
 30
0.0
 40
1.75
  0
CIRCLE
  5
12F
330
BED
100
AcDbEntity
  8
Cuts
100
AcDbCircle
 10
50.0
 20
10.0
 30
0.0
 40
1.75
  0
ENDBLK
  5
BEF
330
BED
100
AcDbEntity
  8
0
100
AcDbBlockEnd
  0
ENDSEC
  0
SECTION
  2
ENTITIES
  0
LINE
  5
6FF
330
B3D
100
AcDbEntity
  8
Cuts
100
AcDbLine
 10
-425.0
 20
222.0
 30
0.0
 11
-425.0
 21
238.0
 31
0.0
  0
LINE
  5
716
330
B3D
100
AcDbEntity
  8
Cuts
100
AcDbLine
 10
-385.0
 20
222.0
 30
0.0
 11
-385.0
 21
238.0
 31
0.0
  0
LINE
  5
72C
330
B3D
100
AcDbEntity
  8
Cuts
100
AcDbLine
 10
-405.0
 20
222.0
 30
0.0
 11
-405.0
 21
238.0
 31
0.0
  0
LINE
  5
8C2
330
B3D
100
AcDbEntity
  8
Cuts
100
AcDbLine
 10
-410.75
 20
556.0
 30
0.0
 11
-410.75
 21
584.0
 31
0.0
  0
LINE
  5
700
330
B3D
100
AcDbEntity
  8
Cuts
100
AcDbLine
 10
-425.0
 20
238.0
 30
0.0
 11
-415.0
 21
238.0
 31
0.0
  0
LINE
  5
717
330
B3D
100
AcDbEntity
  8
Cuts
100
AcDbLine
 10
-385.0
 20
238.0
 30
0.0
 11
-375.0
 21
238.0
 31
0.0
  0
LINE
  5
72D
330
B3D
100
AcDbEntity
  8
Cuts
100
AcDbLine
 10
-405.0
 20
238.0
 30
0.0
 11
-395.0
 21
238.0
 31
0.0
  0
LINE
  5
8C3
330
B3D
100
AcDbEntity
  8
Cuts
100
AcDbLine
 10
-410.75
 20
584.0
 30
0.0
 11
-389.25
 21
584.0
 31
0.0
  0
LINE
  5
701
330
B3D
100
AcDbEntity
  8
Cuts
100
AcDbLine
 10
-415.0
 20
238.0
 30
0.0
 11
-415.0
 21
222.0
 31
0.0
  0
LINE
  5
718
330
B3D
100
AcDbEntity
  8
Cuts
100
AcDbLine
 10
-375.0
 20
238.0
 30
0.0
 11
-375.0
 21
222.0
 31
0.0
  0
LINE
  5
72E
330
B3D
100
AcDbEntity
  8
Cuts
100
AcDbLine
 10
-395.0
 20
238.0
 30
0.0
 11
-395.0
 21
222.0
 31
0.0
  0
LINE
  5
8C4
330
B3D
100
AcDbEntity
  8
Cuts
100
AcDbLine
 10
-389.25
 20
584.0
 30
0.0
 11
-389.25
 21
556.0
 31
0.0
  0
LINE
  5
702
330
B3D
100
AcDbEntity
  8
Cuts
100
AcDbLine
 10
-415.0
 20
222.0
 30
0.0
 11
-425.0
 21
222.0
 31
0.0
  0
LINE
  5
719
330
B3D
100
AcDbEntity
  8
Cuts
100
AcDbLine
 10
-375.0
 20
222.0
 30
0.0
 11
-385.0
 21
222.0
 31
0.0
  0
LINE
  5
72F
330
B3D
100
AcDbEntity
  8
Cuts
100
AcDbLine
 10
-395.0
 20
222.0
 30
0.0
 11
-405.0
 21
222.0
 31
0.0
  0
LINE
  5
8C5
330
B3D
100
AcDbEntity
  8
Cuts
100
AcDbLine
 10
-389.25
 20
556.0
 30
0.0
 11
-410.75
 21
556.0
 31
0.0
  0
CIRCLE
  5
703
330
B3D
100
AcDbEntity
  8
Cuts
100
AcDbCircle
 10
-480.0
 20
230.0
 30
0.0
 40
4.0
  0
CIRCLE
  5
704
330
B3D
100
AcDbEntity
  8
Cuts
100
AcDbCircle
 10
-450.0
 20
230.0
 30
0.0
 40
4.0
  0
CIRCLE
  5
71A
330
B3D
100
AcDbEntity
  8
Cuts
100
AcDbCircle
 10
-350.0
 20
230.0
 30
0.0
 40
4.0
  0
CIRCLE
  5
71B
330
B3D
100
AcDbEntity
  8
Cuts
100
AcDbCircle
 10
-320.0
 20
230.0
 30
0.0
 40
4.0
  0
LINE
  5
705
330
B3D
100
AcDbEntity
  8
Outline
100
AcDbLine
 10
-488.5
 20
284.0
 30
0.0
 11
-441.5
 21
284.0
 31
0.0
  0
LINE
  5
71C
330
B3D
100
AcDbEntity
  8
Outline
100
AcDbLine
 10
-358.5
 20
284.0
 30
0.0
 11
-311.5
 21
284.0
 31
0.0
  0
LINE
  5
706
330
B3D
100
AcDbEntity
  8
Outline
100
AcDbLine
 10
-441.5
 20
284.0
 30
0.0
 11
-441.5
 21
256.0
 31
0.0
  0
LINE
  5
71D
330
B3D
100
AcDbEntity
  8
Outline
100
AcDbLine
 10
-311.5
 20
284.0
 30
0.0
 11
-311.5
 21
256.0
 31
0.0
  0
LINE
  5
707
330
B3D
100
AcDbEntity
  8
Outline
100
AcDbLine
 10
-441.5
 20
256.0
 30
0.0
 11
-488.5
 21
256.0
 31
0.0
  0
LINE
  5
71E
330
B3D
100
AcDbEntity
  8
Outline
100
AcDbLine
 10
-311.5
 20
256.0
 30
0.0
 11
-358.5
 21
256.0
 31
0.0
  0
LINE
  5
708
330
B3D
100
AcDbEntity
  8
Outline
100
AcDbLine
 10
-488.5
 20
256.0
 30
0.0
 11
-488.5
 21
284.0
 31
0.0
  0
LINE
  5
71F
330
B3D
100
AcDbEntity
  8
Outline
100
AcDbLine
 10
-358.5
 20
256.0
 30
0.0
 11
-358.5
 21
284.0
 31
0.0
  0
CIRCLE
  5
709
330
B3D
100
AcDbEntity
  8
Outline
100
AcDbCircle
 10
-480.0
 20
230.0
 30
0.0
 40
7.5
  0
CIRCLE
  5
70A
330
B3D
100
AcDbEntity
  8
Outline
100
AcDbCircle
 10
-450.0
 20
230.0
 30
0.0
 40
7.5
  0
CIRCLE
  5
720
330
B3D
100
AcDbEntity
  8
Outline
100
AcDbCircle
 10
-350.0
 20
230.0
 30
0.0
 40
7.5
  0
CIRCLE
  5
721
330
B3D
100
AcDbEntity
  8
Outline
100
AcDbCircle
 10
-320.0
 20
230.0
 30
0.0
 40
7.5
  0
CIRCLE
  5
70B
330
B3D
100
AcDbEntity
  8
Cuts
100
AcDbCircle
 10
-420.0
 20
270.0
 30
0.0
 40
3.5
  0
CIRCLE
  5
737
330
B3D
100
AcDbEntity
  8
Cuts
100
AcDbCircle
 10
-380.0
 20
270.0
 30
0.0
 40
3.5
  0
CIRCLE
  5
70C
330
B3D
100
AcDbEntity
  8
Outline
100
AcDbCircle
 10
-420.0
 20
270.0
 30
0.0
 40
10.0
  0
CIRCLE
  5
738
330
B3D
100
AcDbEntity
  8
Outline
100
AcDbCircle
 10
-380.0
 20
270.0
 30
0.0
 40
10.0
  0
LINE
  5
736
330
B3D
100
AcDbEntity
  8
Legend
100
AcDbLine
 10
-400.0
 20
242.0
 30
0.0
 11
-400.0
 21
300.0
 31
0.0
  0
MTEXT
  5
712
330
B3D
100
AcDbEntity
  8
Legend
100
AcDbMText
 10
-479.9999999999999
 20
216.0
 30
0.0
 40
4.0
 41
0.0
 46
0.0
 71
     5
 72
     1
  1
-V
  7
textstyle3
 73
     1
 44
1.0
  0
MTEXT
  5
713
330
B3D
100
AcDbEntity
  8
Legend
100
AcDbMText
 10
-449.9999999999999
 20
216.0000000000001
 30
0.0
 40
4.0
 41
0.0
 46
0.0
 71
     5
 72
     1
  1
+V
  7
textstyle3
 73
     1
 44
1.0
  0
MTEXT
  5
714
330
B3D
100
AcDbEntity
  8
Legend
100
AcDbMText
 10
-419.9999999999999
 20
215.9999999999999
 30
0.0
 40
3.0
 41
0.0
 46
0.0
 71
     5
 72
     1
  1
On/Off
  7
textstyle3
 73
     1
 44
1.0
  0
MTEXT
  5
715
330
B3D
100
AcDbEntity
  8
Legend
100
AcDbMText
 10
-420.0
 20
255.0
 30
0.0
 40
3.0
 41
0.0
 46
0.0
 71
     5
 72
     1
  1
Voltage
  7
textstyle3
 73
     1
 44
1.0
  0
MTEXT
  5
728
330
B3D
100
AcDbEntity
  8
Legend
100
AcDbMText
 10
-350.0
 20
216.0000000000001
 30
0.0
 40
4.0
 41
0.0
 46
0.0
 71
     5
 72
     1
  1
-V
  7
textstyle3
 73
     1
 44
1.0
  0
MTEXT
  5
729
330
B3D
100
AcDbEntity
  8
Legend
100
AcDbMText
 10
-319.9999999999999
 20
216.0000000000001
 30
0.0
 40
4.0
 41
0.0
 46
0.0
 71
     5
 72
     1
  1
+V
  7
textstyle3
 73
     1
 44
1.0
  0
MTEXT
  5
72A
330
B3D
100
AcDbEntity
  8
Legend
100
AcDbMText
 10
-379.9999999999998
 20
215.9999999999999
 30
0.0
 40
3.0
 41
0.0
 46
0.0
 71
     5
 72
     1
  1
On/Off
  7
textstyle3
 73
     1
 44
1.0
  0
MTEXT
  5
730
330
B3D
100
AcDbEntity
  8
Legend
100
AcDbMText
 10
-399.9999999999999
 20
215.9999999999997
 30
0.0
 40
3.0
 41
0.0
 46
0.0
 71
     5
 72
     1
  1
Linked
  7
textstyle3
 73
     1
 44
1.0
  0
MTEXT
  5
739
330
B3D
100
AcDbEntity
  8
Legend
100
AcDbMText
 10
-380.0
 20
255.0
 30
0.0
 40
3.0
 41
0.0
 46
0.0
 71
     5
 72
     1
  1
Voltage
  7
textstyle3
 73
     1
 44
1.0
  0
MTEXT
  5
9F2
330
B3D
100
AcDbEntity
  8
Legend
100
AcDbMText
 10
-465.0
 20
289.9999999999999
 30
0.0
 40
3.0
 41
0.0
 46
0.0
 71
     5
 72
     1
  1
Channel A
  7
textstyle3
 73
     1
 44
1.0
  0
MTEXT
  5
9F3
330
B3D
100
AcDbEntity
  8
Legend
100
AcDbMText
 10
-334.9999999999999
 20
290.0000000000001
 30
0.0
 40
3.0
 41
0.0
 46
0.0
 71
     5
 72
     1
  1
Channel B
  7
textstyle3
 73
     1
 44
1.0
  0
LINE
  5
73A
330
B3D
100
AcDbEntity
  8
Legend
100
AcDbLine
 10
-450.0
 20
207.0
 30
0.0
 11
-400.0
 21
207.0
 31
0.0
  0
LINE
  5
73B
330
B3D
100
AcDbEntity
  8
Legend
100
AcDbLine
 10
-400.0
 20
207.0
 30
0.0
 11
-400.0
 21
211.0
 31
0.0
  0
LINE
  5
73C
330
B3D
100
AcDbEntity
  8
Legend
100
AcDbLine
 10
-350.0
 20
207.0
 30
0.0
 11
-400.0
 21
207.0
 31
0.0
  0
LINE
  5
741
330
B3D
100
AcDbEntity
  8
Cuts
100
AcDbLine
 10
-490.0
 20
500.0
 30
0.0
 11
-490.0
 21
507.0
 31
0.0
  0
LINE
  5
744
330
B3D
100
AcDbEntity
  8
Cuts
100
AcDbLine
 10
-450.0
 20
500.0
 30
0.0
 11
-450.0
 21
507.0
 31
0.0
  0
LINE
  5
747
330
B3D
100
AcDbEntity
  8
Cuts
100
AcDbLine
 10
-410.0
 20
500.0
 30
0.0
 11
-410.0
 21
507.0
 31
0.0
  0
LINE
  5
74A
330
B3D
100
AcDbEntity
  8
Cuts
100
AcDbLine
 10
-370.0
 20
500.0
 30
0.0
 11
-370.0
 21
507.0
 31
0.0
  0
LINE
  5
74D
330
B3D
100
AcDbEntity
  8
Cuts
100
AcDbLine
 10
-330.0
 20
500.0
 30
0.0
 11
-330.0
 21
507.0
 31
0.0
  0
LINE
  5
758
330
B3D
100
AcDbEntity
  8
Cuts
100
AcDbLine
 10
-310.0
 20
340.0000000000001
 30
0.0
 11
-310.0
 21
333.0000000000001
 31
0.0
  0
LINE
  5
759
330
B3D
100
AcDbEntity
  8
Cuts
100
AcDbLine
 10
-350.0
 20
340.0000000000001
 30
0.0
 11
-350.0
 21
333.0000000000001
 31
0.0
  0
LINE
  5
75A
330
B3D
100
AcDbEntity
  8
Cuts
100
AcDbLine
 10
-390.0
 20
340.0000000000001
 30
0.0
 11
-390.0
 21
333.0000000000001
 31
0.0
  0
LINE
  5
75B
330
B3D
100
AcDbEntity
  8
Cuts
100
AcDbLine
 10
-430.0
 20
340.0000000000001
 30
0.0
 11
-430.0
 21
333.0000000000001
 31
0.0
  0
LINE
  5
75C
330
B3D
100
AcDbEntity
  8
Cuts
100
AcDbLine
 10
-470.0
 20
340.0000000000002
 30
0.0
 11
-470.0
 21
333.0000000000001
 31
0.0
  0
LINE
  5
76D
330
B3D
100
AcDbEntity
  8
Cuts
100
AcDbLine
 10
-500.0
 20
350.0
 30
0.0
 11
-507.0
 21
350.0
 31
0.0
  0
LINE
  5
76E
330
B3D
100
AcDbEntity
  8
Cuts
100
AcDbLine
 10
-500.0
 20
390.0
 30
0.0
 11
-507.0
 21
390.0
 31
0.0
  0
LINE
  5
76F
330
B3D
100
AcDbEntity
  8
Cuts
100
AcDbLine
 10
-500.0
 20
430.0
 30
0.0
 11
-507.0
 21
430.0
 31
0.0
  0
LINE
  5
770
330
B3D
100
AcDbEntity
  8
Cuts
100
AcDbLine
 10
-500.0
 20
470.0
 30
0.0
 11
-507.0
 21
470.0
 31
0.0
  0
LINE
  5
791
330
B3D
100
AcDbEntity
  8
Cuts
100
AcDbLine
 10
-310.0
 20
307.0
 30
0.0
 11
-310.0
 21
299.9999999999999
 31
0.0
  0
LINE
  5
792
330
B3D
100
AcDbEntity
  8
Cuts
100
AcDbLine
 10
-350.0
 20
307.0
 30
0.0
 11
-350.0
 21
299.9999999999999
 31
0.0
  0
LINE
  5
793
330
B3D
100
AcDbEntity
  8
Cuts
100
AcDbLine
 10
-390.0
 20
307.0
 30
0.0
 11
-390.0
 21
300.0
 31
0.0
  0
LINE
  5
794
330
B3D
100
AcDbEntity
  8
Cuts
100
AcDbLine
 10
-430.0
 20
307.0
 30
0.0
 11
-430.0
 21
300.0
 31
0.0
  0
LINE
  5
795
330
B3D
100
AcDbEntity
  8
Cuts
100
AcDbLine
 10
-470.0
 20
307.0000000000001
 30
0.0
 11
-470.0
 21
299.9999999999999
 31
0.0
  0
LINE
  5
7A6
330
B3D
100
AcDbEntity
  8
Cuts
100
AcDbLine
 10
-490.0
 20
193.0
 30
0.0
 11
-490.0
 21
200.0
 31
0.0
  0
LINE
  5
7A7
330
B3D
100
AcDbEntity
  8
Cuts
100
AcDbLine
 10
-450.0
 20
193.0
 30
0.0
 11
-450.0
 21
200.0
 31
0.0
  0
LINE
  5
7A8
330
B3D
100
AcDbEntity
  8
Cuts
100
AcDbLine
 10
-410.0
 20
193.0
 30
0.0
 11
-410.0
 21
200.0
 31
0.0
  0
LINE
  5
7A9
330
B3D
100
AcDbEntity
  8
Cuts
100
AcDbLine
 10
-370.0
 20
193.0
 30
0.0
 11
-370.0
 21
200.0
 31
0.0
  0
LINE
  5
7AA
330
B3D
100
AcDbEntity
  8
Cuts
100
AcDbLine
 10
-330.0
 20
193.0
 30
0.0
 11
-330.0
 21
200.0
 31
0.0
  0
LINE
  5
7CE
330
B3D
100
AcDbEntity
  8
Cuts
100
AcDbLine
 10
-507.0
 20
240.0
 30
0.0
 11
-500.0
 21
240.0
 31
0.0
  0
LINE
  5
7CF
330
B3D
100
AcDbEntity
  8
Cuts
100
AcDbLine
 10
-507.0
 20
275.0
 30
0.0
 11
-500.0
 21
275.0
 31
0.0
  0
LINE
  5
7D0
330
B3D
100
AcDbEntity
  8
Cuts
100
AcDbLine
 10
-507.0
 20
210.0
 30
0.0
 11
-500.0
 21
210.0
 31
0.0
  0
LINE
  5
7DB
330
B3D
100
AcDbEntity
  8
Cuts
100
AcDbLine
 10
-293.0
 20
240.0
 30
0.0
 11
-300.0
 21
240.0
 31
0.0
  0
LINE
  5
7DC
330
B3D
100
AcDbEntity
  8
Cuts
100
AcDbLine
 10
-293.0
 20
275.0
 30
0.0
 11
-300.0
 21
275.0
 31
0.0
  0
LINE
  5
7DD
330
B3D
100
AcDbEntity
  8
Cuts
100
AcDbLine
 10
-293.0
 20
210.0
 30
0.0
 11
-300.0
 21
210.0
 31
0.0
  0
LINE
  5
811
330
B3D
100
AcDbEntity
  8
Cuts
100
AcDbLine
 10
-310.0
 20
647.0
 30
0.0
 11
-310.0
 21
639.9999999999999
 31
0.0
  0
LINE
  5
812
330
B3D
100
AcDbEntity
  8
Cuts
100
AcDbLine
 10
-350.0
 20
647.0
 30
0.0
 11
-350.0
 21
639.9999999999999
 31
0.0
  0
LINE
  5
813
330
B3D
100
AcDbEntity
  8
Cuts
100
AcDbLine
 10
-390.0
 20
647.0
 30
0.0
 11
-390.0
 21
640.0
 31
0.0
  0
LINE
  5
814
330
B3D
100
AcDbEntity
  8
Cuts
100
AcDbLine
 10
-430.0
 20
647.0
 30
0.0
 11
-430.0
 21
640.0
 31
0.0
  0
LINE
  5
815
330
B3D
100
AcDbEntity
  8
Cuts
100
AcDbLine
 10
-470.0
 20
647.0
 30
0.0
 11
-470.0
 21
639.9999999999999
 31
0.0
  0
LINE
  5
816
330
B3D
100
AcDbEntity
  8
Cuts
100
AcDbLine
 10
-490.0
 20
533.0
 30
0.0
 11
-490.0
 21
540.0
 31
0.0
  0
LINE
  5
817
330
B3D
100
AcDbEntity
  8
Cuts
100
AcDbLine
 10
-450.0
 20
533.0
 30
0.0
 11
-450.0
 21
540.0
 31
0.0
  0
LINE
  5
818
330
B3D
100
AcDbEntity
  8
Cuts
100
AcDbLine
 10
-410.0
 20
533.0
 30
0.0
 11
-410.0
 21
540.0
 31
0.0
  0
LINE
  5
819
330
B3D
100
AcDbEntity
  8
Cuts
100
AcDbLine
 10
-370.0
 20
533.0
 30
0.0
 11
-370.0
 21
540.0
 31
0.0
  0
LINE
  5
81A
330
B3D
100
AcDbEntity
  8
Cuts
100
AcDbLine
 10
-330.0
 20
533.0
 30
0.0
 11
-330.0
 21
540.0
 31
0.0
  0
LINE
  5
81B
330
B3D
100
AcDbEntity
  8
Cuts
100
AcDbLine
 10
-507.0
 20
580.0
 30
0.0
 11
-500.0
 21
580.0
 31
0.0
  0
LINE
  5
81C
330
B3D
100
AcDbEntity
  8
Cuts
100
AcDbLine
 10
-507.0
 20
615.0
 30
0.0
 11
-500.0
 21
615.0
 31
0.0
  0
LINE
  5
81D
330
B3D
100
AcDbEntity
  8
Cuts
100
AcDbLine
 10
-507.0
 20
550.0
 30
0.0
 11
-500.0
 21
550.0
 31
0.0
  0
LINE
  5
81E
330
B3D
100
AcDbEntity
  8
Cuts
100
AcDbLine
 10
-293.0
 20
580.0
 30
0.0
 11
-300.0
 21
580.0
 31
0.0
  0
LINE
  5
81F
330
B3D
100
AcDbEntity
  8
Cuts
100
AcDbLine
 10
-293.0
 20
615.0
 30
0.0
 11
-300.0
 21
615.0
 31
0.0
  0
LINE
  5
820
330
B3D
100
AcDbEntity
  8
Cuts
100
AcDbLine
 10
-293.0
 20
550.0
 30
0.0
 11
-300.0
 21
550.0
 31
0.0
  0
LINE
  5
8EA
330
B3D
100
AcDbEntity
  8
Cuts
100
AcDbLine
 10
-153.0
 20
349.9999999999999
 30
0.0
 11
-160.0
 21
349.9999999999999
 31
0.0
  0
LINE
  5
8EB
330
B3D
100
AcDbEntity
  8
Cuts
100
AcDbLine
 10
-153.0
 20
389.9999999999999
 30
0.0
 11
-160.0
 21
389.9999999999999
 31
0.0
  0
LINE
  5
8EC
330
B3D
100
AcDbEntity
  8
Cuts
100
AcDbLine
 10
-153.0
 20
429.9999999999999
 30
0.0
 11
-160.0
 21
429.9999999999999
 31
0.0
  0
LINE
  5
8ED
330
B3D
100
AcDbEntity
  8
Cuts
100
AcDbLine
 10
-153.0
 20
469.9999999999999
 30
0.0
 11
-160.0
 21
469.9999999999999
 31
0.0
  0
LINE
  5
8FB
330
B3D
100
AcDbEntity
  8
Cuts
100
AcDbLine
 10
-200.0
 20
340.0
 30
0.0
 11
-200.0
 21
333.0
 31
0.0
  0
LINE
  5
8FC
330
B3D
100
AcDbEntity
  8
Cuts
100
AcDbLine
 10
-235.0
 20
340.0
 30
0.0
 11
-235.0
 21
333.0
 31
0.0
  0
LINE
  5
8FD
330
B3D
100
AcDbEntity
  8
Cuts
100
AcDbLine
 10
-170.0
 20
340.0
 30
0.0
 11
-170.0
 21
333.0
 31
0.0
  0
LINE
  5
908
330
B3D
100
AcDbEntity
  8
Cuts
100
AcDbLine
 10
-200.0
 20
499.9999999999999
 30
0.0
 11
-200.0
 21
506.9999999999999
 31
0.0
  0
LINE
  5
909
330
B3D
100
AcDbEntity
  8
Cuts
100
AcDbLine
 10
-235.0
 20
499.9999999999999
 30
0.0
 11
-235.0
 21
506.9999999999999
 31
0.0
  0
LINE
  5
90A
330
B3D
100
AcDbEntity
  8
Cuts
100
AcDbLine
 10
-170.0
 20
499.9999999999999
 30
0.0
 11
-170.0
 21
506.9999999999999
 31
0.0
  0
LINE
  5
915
330
B3D
100
AcDbEntity
  8
Cuts
100
AcDbLine
 10
-533.0
 20
350.0
 30
0.0
 11
-540.0
 21
350.0
 31
0.0
  0
LINE
  5
916
330
B3D
100
AcDbEntity
  8
Cuts
100
AcDbLine
 10
-533.0
 20
390.0
 30
0.0
 11
-540.0
 21
390.0
 31
0.0
  0
LINE
  5
917
330
B3D
100
AcDbEntity
  8
Cuts
100
AcDbLine
 10
-533.0
 20
430.0
 30
0.0
 11
-540.0
 21
430.0
 31
0.0
  0
LINE
  5
918
330
B3D
100
AcDbEntity
  8
Cuts
100
AcDbLine
 10
-533.0
 20
470.0
 30
0.0
 11
-540.0
 21
470.0
 31
0.0
  0
LINE
  5
919
330
B3D
100
AcDbEntity
  8
Cuts
100
AcDbLine
 10
-580.0
 20
340.0000000000001
 30
0.0
 11
-580.0
 21
333.0000000000001
 31
0.0
  0
LINE
  5
91A
330
B3D
100
AcDbEntity
  8
Cuts
100
AcDbLine
 10
-615.0
 20
340.0000000000001
 30
0.0
 11
-615.0
 21
333.0000000000001
 31
0.0
  0
LINE
  5
91B
330
B3D
100
AcDbEntity
  8
Cuts
100
AcDbLine
 10
-550.0
 20
340.0000000000001
 30
0.0
 11
-550.0
 21
333.0000000000001
 31
0.0
  0
LINE
  5
91C
330
B3D
100
AcDbEntity
  8
Cuts
100
AcDbLine
 10
-580.0
 20
500.0
 30
0.0
 11
-580.0
 21
507.0
 31
0.0
  0
LINE
  5
91D
330
B3D
100
AcDbEntity
  8
Cuts
100
AcDbLine
 10
-615.0
 20
500.0
 30
0.0
 11
-615.0
 21
507.0
 31
0.0
  0
LINE
  5
91E
330
B3D
100
AcDbEntity
  8
Cuts
100
AcDbLine
 10
-550.0
 20
500.0
 30
0.0
 11
-550.0
 21
507.0
 31
0.0
  0
LINE
  5
951
330
B3D
100
AcDbEntity
  8
Cuts
100
AcDbLine
 10
-490.0
 20
839.9999999999998
 30
0.0
 11
-490.0
 21
846.9999999999998
 31
0.0
  0
LINE
  5
952
330
B3D
100
AcDbEntity
  8
Cuts
100
AcDbLine
 10
-450.0
 20
839.9999999999998
 30
0.0
 11
-450.0
 21
846.9999999999998
 31
0.0
  0
LINE
  5
953
330
B3D
100
AcDbEntity
  8
Cuts
100
AcDbLine
 10
-410.0
 20
839.9999999999998
 30
0.0
 11
-410.0
 21
846.9999999999998
 31
0.0
  0
LINE
  5
954
330
B3D
100
AcDbEntity
  8
Cuts
100
AcDbLine
 10
-370.0
 20
839.9999999999998
 30
0.0
 11
-370.0
 21
846.9999999999998
 31
0.0
  0
LINE
  5
955
330
B3D
100
AcDbEntity
  8
Cuts
100
AcDbLine
 10
-330.0
 20
839.9999999999998
 30
0.0
 11
-330.0
 21
846.9999999999998
 31
0.0
  0
LINE
  5
956
330
B3D
100
AcDbEntity
  8
Cuts
100
AcDbLine
 10
-310.0
 20
679.9999999999999
 30
0.0
 11
-310.0
 21
672.9999999999998
 31
0.0
  0
LINE
  5
957
330
B3D
100
AcDbEntity
  8
Cuts
100
AcDbLine
 10
-350.0
 20
679.9999999999999
 30
0.0
 11
-350.0
 21
672.9999999999998
 31
0.0
  0
LINE
  5
958
330
B3D
100
AcDbEntity
  8
Cuts
100
AcDbLine
 10
-390.0
 20
679.9999999999999
 30
0.0
 11
-390.0
 21
672.9999999999999
 31
0.0
  0
LINE
  5
959
330
B3D
100
AcDbEntity
  8
Cuts
100
AcDbLine
 10
-430.0
 20
679.9999999999999
 30
0.0
 11
-430.0
 21
672.9999999999999
 31
0.0
  0
LINE
  5
95A
330
B3D
100
AcDbEntity
  8
Cuts
100
AcDbLine
 10
-470.0
 20
680.0
 30
0.0
 11
-470.0
 21
672.9999999999998
 31
0.0
  0
LINE
  5
95B
330
B3D
100
AcDbEntity
  8
Cuts
100
AcDbLine
 10
-500.0
 20
689.9999999999998
 30
0.0
 11
-507.0
 21
689.9999999999998
 31
0.0
  0
LINE
  5
95C
330
B3D
100
AcDbEntity
  8
Cuts
100
AcDbLine
 10
-500.0
 20
729.9999999999998
 30
0.0
 11
-507.0
 21
729.9999999999998
 31
0.0
  0
LINE
  5
95D
330
B3D
100
AcDbEntity
  8
Cuts
100
AcDbLine
 10
-500.0
 20
769.9999999999998
 30
0.0
 11
-507.0
 21
769.9999999999998
 31
0.0
  0
LINE
  5
95E
330
B3D
100
AcDbEntity
  8
Cuts
100
AcDbLine
 10
-500.0
 20
809.9999999999998
 30
0.0
 11
-507.0
 21
809.9999999999998
 31
0.0
  0
LINE
  5
742
330
B3D
100
AcDbEntity
  8
Cuts
100
AcDbLine
 10
-490.0
 20
507.0
 30
0.0
 11
-470.0
 21
507.0
 31
0.0
  0
LINE
  5
745
330
B3D
100
AcDbEntity
  8
Cuts
100
AcDbLine
 10
-450.0
 20
507.0
 30
0.0
 11
-430.0
 21
507.0
 31
0.0
  0
LINE
  5
748
330
B3D
100
AcDbEntity
  8
Cuts
100
AcDbLine
 10
-410.0
 20
507.0
 30
0.0
 11
-390.0
 21
507.0
 31
0.0
  0
LINE
  5
74B
330
B3D
100
AcDbEntity
  8
Cuts
100
AcDbLine
 10
-370.0
 20
507.0
 30
0.0
 11
-350.0
 21
507.0
 31
0.0
  0
LINE
  5
74E
330
B3D
100
AcDbEntity
  8
Cuts
100
AcDbLine
 10
-330.0
 20
507.0
 30
0.0
 11
-310.0
 21
507.0
 31
0.0
  0
LINE
  5
75D
330
B3D
100
AcDbEntity
  8
Cuts
100
AcDbLine
 10
-310.0
 20
333.0000000000001
 30
0.0
 11
-330.0
 21
333.0000000000001
 31
0.0
  0
LINE
  5
75E
330
B3D
100
AcDbEntity
  8
Cuts
100
AcDbLine
 10
-350.0
 20
333.0000000000001
 30
0.0
 11
-370.0
 21
333.0000000000001
 31
0.0
  0
LINE
  5
75F
330
B3D
100
AcDbEntity
  8
Cuts
100
AcDbLine
 10
-390.0
 20
333.0000000000001
 30
0.0
 11
-410.0
 21
333.0000000000001
 31
0.0
  0
LINE
  5
760
330
B3D
100
AcDbEntity
  8
Cuts
100
AcDbLine
 10
-430.0
 20
333.0000000000001
 30
0.0
 11
-450.0
 21
333.0000000000001
 31
0.0
  0
LINE
  5
761
330
B3D
100
AcDbEntity
  8
Cuts
100
AcDbLine
 10
-470.0
 20
333.0000000000001
 30
0.0
 11
-490.0
 21
333.0000000000001
 31
0.0
  0
LINE
  5
772
330
B3D
100
AcDbEntity
  8
Cuts
100
AcDbLine
 10
-507.0
 20
350.0
 30
0.0
 11
-507.0
 21
370.0
 31
0.0
  0
LINE
  5
773
330
B3D
100
AcDbEntity
  8
Cuts
100
AcDbLine
 10
-507.0
 20
390.0
 30
0.0
 11
-507.0
 21
410.0
 31
0.0
  0
LINE
  5
774
330
B3D
100
AcDbEntity
  8
Cuts
100
AcDbLine
 10
-507.0
 20
430.0
 30
0.0
 11
-507.0
 21
450.0
 31
0.0
  0
LINE
  5
775
330
B3D
100
AcDbEntity
  8
Cuts
100
AcDbLine
 10
-507.0
 20
470.0
 30
0.0
 11
-507.0
 21
490.0
 31
0.0
  0
LINE
  5
796
330
B3D
100
AcDbEntity
  8
Cuts
100
AcDbLine
 10
-310.0
 20
299.9999999999999
 30
0.0
 11
-330.0
 21
299.9999999999999
 31
0.0
  0
LINE
  5
797
330
B3D
100
AcDbEntity
  8
Cuts
100
AcDbLine
 10
-350.0
 20
299.9999999999999
 30
0.0
 11
-370.0
 21
300.0
 31
0.0
  0
LINE
  5
798
330
B3D
100
AcDbEntity
  8
Cuts
100
AcDbLine
 10
-390.0
 20
300.0
 30
0.0
 11
-410.0
 21
300.0
 31
0.0
  0
LINE
  5
799
330
B3D
100
AcDbEntity
  8
Cuts
100
AcDbLine
 10
-430.0
 20
300.0
 30
0.0
 11
-450.0
 21
300.0
 31
0.0
  0
LINE
  5
79A
330
B3D
100
AcDbEntity
  8
Cuts
100
AcDbLine
 10
-470.0
 20
299.9999999999999
 30
0.0
 11
-490.0
 21
300.0
 31
0.0
  0
LINE
  5
7AB
330
B3D
100
AcDbEntity
  8
Cuts
100
AcDbLine
 10
-490.0
 20
200.0
 30
0.0
 11
-470.0
 21
200.0
 31
0.0
  0
LINE
  5
7AC
330
B3D
100
AcDbEntity
  8
Cuts
100
AcDbLine
 10
-450.0
 20
200.0
 30
0.0
 11
-430.0
 21
200.0
 31
0.0
  0
LINE
  5
7AD
330
B3D
100
AcDbEntity
  8
Cuts
100
AcDbLine
 10
-410.0
 20
200.0
 30
0.0
 11
-390.0
 21
200.0
 31
0.0
  0
LINE
  5
7AE
330
B3D
100
AcDbEntity
  8
Cuts
100
AcDbLine
 10
-370.0
 20
200.0
 30
0.0
 11
-350.0
 21
200.0
 31
0.0
  0
LINE
  5
7AF
330
B3D
100
AcDbEntity
  8
Cuts
100
AcDbLine
 10
-330.0
 20
200.0
 30
0.0
 11
-310.0
 21
200.0
 31
0.0
  0
LINE
  5
7D1
330
B3D
100
AcDbEntity
  8
Cuts
100
AcDbLine
 10
-500.0
 20
210.0
 30
0.0
 11
-500.0
 21
225.0
 31
0.0
  0
LINE
  5
7D2
330
B3D
100
AcDbEntity
  8
Cuts
100
AcDbLine
 10
-500.0
 20
240.0
 30
0.0
 11
-500.0
 21
260.0
 31
0.0
  0
LINE
  5
7D3
330
B3D
100
AcDbEntity
  8
Cuts
100
AcDbLine
 10
-500.0
 20
275.0
 30
0.0
 11
-500.0
 21
290.0
 31
0.0
  0
LINE
  5
7DE
330
B3D
100
AcDbEntity
  8
Cuts
100
AcDbLine
 10
-300.0
 20
210.0
 30
0.0
 11
-300.0
 21
225.0
 31
0.0
  0
LINE
  5
7DF
330
B3D
100
AcDbEntity
  8
Cuts
100
AcDbLine
 10
-300.0
 20
240.0
 30
0.0
 11
-300.0
 21
260.0
 31
0.0
  0
LINE
  5
7E0
330
B3D
100
AcDbEntity
  8
Cuts
100
AcDbLine
 10
-300.0
 20
275.0
 30
0.0
 11
-300.0
 21
290.0
 31
0.0
  0
LINE
  5
821
330
B3D
100
AcDbEntity
  8
Cuts
100
AcDbLine
 10
-310.0
 20
639.9999999999999
 30
0.0
 11
-330.0
 21
639.9999999999999
 31
0.0
  0
LINE
  5
822
330
B3D
100
AcDbEntity
  8
Cuts
100
AcDbLine
 10
-350.0
 20
639.9999999999999
 30
0.0
 11
-370.0
 21
640.0
 31
0.0
  0
LINE
  5
823
330
B3D
100
AcDbEntity
  8
Cuts
100
AcDbLine
 10
-390.0
 20
640.0
 30
0.0
 11
-410.0
 21
640.0
 31
0.0
  0
LINE
  5
824
330
B3D
100
AcDbEntity
  8
Cuts
100
AcDbLine
 10
-430.0
 20
640.0
 30
0.0
 11
-450.0
 21
640.0
 31
0.0
  0
LINE
  5
825
330
B3D
100
AcDbEntity
  8
Cuts
100
AcDbLine
 10
-470.0
 20
639.9999999999999
 30
0.0
 11
-490.0
 21
640.0
 31
0.0
  0
LINE
  5
826
330
B3D
100
AcDbEntity
  8
Cuts
100
AcDbLine
 10
-490.0
 20
540.0
 30
0.0
 11
-470.0
 21
540.0
 31
0.0
  0
LINE
  5
827
330
B3D
100
AcDbEntity
  8
Cuts
100
AcDbLine
 10
-450.0
 20
540.0
 30
0.0
 11
-430.0
 21
540.0
 31
0.0
  0
LINE
  5
828
330
B3D
100
AcDbEntity
  8
Cuts
100
AcDbLine
 10
-410.0
 20
540.0
 30
0.0
 11
-390.0
 21
540.0
 31
0.0
  0
LINE
  5
829
330
B3D
100
AcDbEntity
  8
Cuts
100
AcDbLine
 10
-370.0
 20
540.0
 30
0.0
 11
-350.0
 21
540.0
 31
0.0
  0
LINE
  5
82A
330
B3D
100
AcDbEntity
  8
Cuts
100
AcDbLine
 10
-330.0
 20
540.0
 30
0.0
 11
-310.0
 21
540.0
 31
0.0
  0
LINE
  5
82B
330
B3D
100
AcDbEntity
  8
Cuts
100
AcDbLine
 10
-500.0
 20
550.0
 30
0.0
 11
-500.0
 21
565.0
 31
0.0
  0
LINE
  5
82C
330
B3D
100
AcDbEntity
  8
Cuts
100
AcDbLine
 10
-500.0
 20
580.0
 30
0.0
 11
-500.0
 21
600.0
 31
0.0
  0
LINE
  5
82D
330
B3D
100
AcDbEntity
  8
Cuts
100
AcDbLine
 10
-500.0
 20
615.0
 30
0.0
 11
-500.0
 21
630.0
 31
0.0
  0
LINE
  5
82E
330
B3D
100
AcDbEntity
  8
Cuts
100
AcDbLine
 10
-300.0
 20
550.0
 30
0.0
 11
-300.0
 21
565.0
 31
0.0
  0
LINE
  5
82F
330
B3D
100
AcDbEntity
  8
Cuts
100
AcDbLine
 10
-300.0
 20
580.0
 30
0.0
 11
-300.0
 21
600.0
 31
0.0
  0
LINE
  5
830
330
B3D
100
AcDbEntity
  8
Cuts
100
AcDbLine
 10
-300.0
 20
615.0
 30
0.0
 11
-300.0
 21
630.0
 31
0.0
  0
LINE
  5
8EE
330
B3D
100
AcDbEntity
  8
Cuts
100
AcDbLine
 10
-160.0
 20
349.9999999999999
 30
0.0
 11
-160.0
 21
369.9999999999999
 31
0.0
  0
LINE
  5
8EF
330
B3D
100
AcDbEntity
  8
Cuts
100
AcDbLine
 10
-160.0
 20
389.9999999999999
 30
0.0
 11
-160.0
 21
409.9999999999999
 31
0.0
  0
LINE
  5
8F0
330
B3D
100
AcDbEntity
  8
Cuts
100
AcDbLine
 10
-160.0
 20
429.9999999999999
 30
0.0
 11
-160.0
 21
449.9999999999999
 31
0.0
  0
LINE
  5
8F1
330
B3D
100
AcDbEntity
  8
Cuts
100
AcDbLine
 10
-160.0
 20
469.9999999999999
 30
0.0
 11
-160.0
 21
489.9999999999999
 31
0.0
  0
LINE
  5
8FE
330
B3D
100
AcDbEntity
  8
Cuts
100
AcDbLine
 10
-170.0
 20
333.0
 30
0.0
 11
-185.0
 21
333.0
 31
0.0
  0
LINE
  5
8FF
330
B3D
100
AcDbEntity
  8
Cuts
100
AcDbLine
 10
-200.0
 20
333.0
 30
0.0
 11
-220.0
 21
333.0
 31
0.0
  0
LINE
  5
900
330
B3D
100
AcDbEntity
  8
Cuts
100
AcDbLine
 10
-235.0
 20
333.0
 30
0.0
 11
-250.0
 21
333.0
 31
0.0
  0
LINE
  5
90B
330
B3D
100
AcDbEntity
  8
Cuts
100
AcDbLine
 10
-170.0
 20
506.9999999999999
 30
0.0
 11
-185.0
 21
506.9999999999999
 31
0.0
  0
LINE
  5
90C
330
B3D
100
AcDbEntity
  8
Cuts
100
AcDbLine
 10
-200.0
 20
506.9999999999999
 30
0.0
 11
-220.0
 21
506.9999999999999
 31
0.0
  0
LINE
  5
90D
330
B3D
100
AcDbEntity
  8
Cuts
100
AcDbLine
 10
-235.0
 20
506.9999999999999
 30
0.0
 11
-250.0
 21
506.9999999999999
 31
0.0
  0
LINE
  5
91F
330
B3D
100
AcDbEntity
  8
Cuts
100
AcDbLine
 10
-540.0
 20
350.0
 30
0.0
 11
-540.0
 21
370.0
 31
0.0
  0
LINE
  5
920
330
B3D
100
AcDbEntity
  8
Cuts
100
AcDbLine
 10
-540.0
 20
390.0
 30
0.0
 11
-540.0
 21
410.0
 31
0.0
  0
LINE
  5
921
330
B3D
100
AcDbEntity
  8
Cuts
100
AcDbLine
 10
-540.0
 20
430.0
 30
0.0
 11
-540.0
 21
450.0
 31
0.0
  0
LINE
  5
922
330
B3D
100
AcDbEntity
  8
Cuts
100
AcDbLine
 10
-540.0
 20
470.0
 30
0.0
 11
-540.0
 21
490.0
 31
0.0
  0
LINE
  5
923
330
B3D
100
AcDbEntity
  8
Cuts
100
AcDbLine
 10
-550.0
 20
333.0000000000001
 30
0.0
 11
-565.0
 21
333.0000000000001
 31
0.0
  0
LINE
  5
924
330
B3D
100
AcDbEntity
  8
Cuts
100
AcDbLine
 10
-580.0
 20
333.0000000000001
 30
0.0
 11
-600.0
 21
333.0000000000001
 31
0.0
  0
LINE
  5
925
330
B3D
100
AcDbEntity
  8
Cuts
100
AcDbLine
 10
-615.0
 20
333.0000000000001
 30
0.0
 11
-630.0
 21
333.0000000000001
 31
0.0
  0
LINE
  5
926
330
B3D
100
AcDbEntity
  8
Cuts
100
AcDbLine
 10
-550.0
 20
507.0
 30
0.0
 11
-565.0
 21
507.0
 31
0.0
  0
LINE
  5
927
330
B3D
100
AcDbEntity
  8
Cuts
100
AcDbLine
 10
-580.0
 20
507.0
 30
0.0
 11
-600.0
 21
507.0
 31
0.0
  0
LINE
  5
928
330
B3D
100
AcDbEntity
  8
Cuts
100
AcDbLine
 10
-615.0
 20
507.0
 30
0.0
 11
-630.0
 21
507.0
 31
0.0
  0
LINE
  5
95F
330
B3D
100
AcDbEntity
  8
Cuts
100
AcDbLine
 10
-490.0
 20
846.9999999999998
 30
0.0
 11
-470.0
 21
846.9999999999998
 31
0.0
  0
LINE
  5
960
330
B3D
100
AcDbEntity
  8
Cuts
100
AcDbLine
 10
-450.0
 20
846.9999999999998
 30
0.0
 11
-430.0
 21
846.9999999999998
 31
0.0
  0
LINE
  5
961
330
B3D
100
AcDbEntity
  8
Cuts
100
AcDbLine
 10
-410.0
 20
846.9999999999998
 30
0.0
 11
-390.0
 21
846.9999999999998
 31
0.0
  0
LINE
  5
962
330
B3D
100
AcDbEntity
  8
Cuts
100
AcDbLine
 10
-370.0
 20
846.9999999999998
 30
0.0
 11
-350.0
 21
846.9999999999998
 31
0.0
  0
LINE
  5
963
330
B3D
100
AcDbEntity
  8
Cuts
100
AcDbLine
 10
-330.0
 20
846.9999999999998
 30
0.0
 11
-310.0
 21
846.9999999999998
 31
0.0
  0
LINE
  5
964
330
B3D
100
AcDbEntity
  8
Cuts
100
AcDbLine
 10
-310.0
 20
672.9999999999998
 30
0.0
 11
-330.0
 21
672.9999999999998
 31
0.0
  0
LINE
  5
965
330
B3D
100
AcDbEntity
  8
Cuts
100
AcDbLine
 10
-350.0
 20
672.9999999999998
 30
0.0
 11
-370.0
 21
672.9999999999999
 31
0.0
  0
LINE
  5
966
330
B3D
100
AcDbEntity
  8
Cuts
100
AcDbLine
 10
-390.0
 20
672.9999999999999
 30
0.0
 11
-410.0
 21
672.9999999999999
 31
0.0
  0
LINE
  5
967
330
B3D
100
AcDbEntity
  8
Cuts
100
AcDbLine
 10
-430.0
 20
672.9999999999999
 30
0.0
 11
-450.0
 21
672.9999999999999
 31
0.0
  0
LINE
  5
968
330
B3D
100
AcDbEntity
  8
Cuts
100
AcDbLine
 10
-470.0
 20
672.9999999999998
 30
0.0
 11
-490.0
 21
672.9999999999999
 31
0.0
  0
LINE
  5
969
330
B3D
100
AcDbEntity
  8
Cuts
100
AcDbLine
 10
-507.0
 20
689.9999999999998
 30
0.0
 11
-507.0
 21
709.9999999999998
 31
0.0
  0
LINE
  5
96A
330
B3D
100
AcDbEntity
  8
Cuts
100
AcDbLine
 10
-507.0
 20
729.9999999999998
 30
0.0
 11
-507.0
 21
749.9999999999998
 31
0.0
  0
LINE
  5
96B
330
B3D
100
AcDbEntity
  8
Cuts
100
AcDbLine
 10
-507.0
 20
769.9999999999998
 30
0.0
 11
-507.0
 21
789.9999999999998
 31
0.0
  0
LINE
  5
96C
330
B3D
100
AcDbEntity
  8
Cuts
100
AcDbLine
 10
-507.0
 20
809.9999999999998
 30
0.0
 11
-507.0
 21
829.9999999999998
 31
0.0
  0
LINE
  5
743
330
B3D
100
AcDbEntity
  8
Cuts
100
AcDbLine
 10
-470.0
 20
507.0
 30
0.0
 11
-470.0
 21
500.0
 31
0.0
  0
LINE
  5
746
330
B3D
100
AcDbEntity
  8
Cuts
100
AcDbLine
 10
-430.0
 20
507.0
 30
0.0
 11
-430.0
 21
500.0
 31
0.0
  0
LINE
  5
749
330
B3D
100
AcDbEntity
  8
Cuts
100
AcDbLine
 10
-390.0
 20
507.0
 30
0.0
 11
-390.0
 21
500.0
 31
0.0
  0
LINE
  5
74C
330
B3D
100
AcDbEntity
  8
Cuts
100
AcDbLine
 10
-350.0
 20
507.0
 30
0.0
 11
-350.0
 21
500.0
 31
0.0
  0
LINE
  5
74F
330
B3D
100
AcDbEntity
  8
Cuts
100
AcDbLine
 10
-310.0
 20
507.0
 30
0.0
 11
-310.0
 21
500.0
 31
0.0
  0
LINE
  5
762
330
B3D
100
AcDbEntity
  8
Cuts
100
AcDbLine
 10
-330.0
 20
333.0000000000001
 30
0.0
 11
-330.0
 21
340.0000000000001
 31
0.0
  0
LINE
  5
763
330
B3D
100
AcDbEntity
  8
Cuts
100
AcDbLine
 10
-370.0
 20
333.0000000000001
 30
0.0
 11
-370.0
 21
340.0000000000001
 31
0.0
  0
LINE
  5
764
330
B3D
100
AcDbEntity
  8
Cuts
100
AcDbLine
 10
-410.0
 20
333.0000000000001
 30
0.0
 11
-410.0
 21
340.0000000000001
 31
0.0
  0
LINE
  5
765
330
B3D
100
AcDbEntity
  8
Cuts
100
AcDbLine
 10
-450.0
 20
333.0000000000001
 30
0.0
 11
-450.0
 21
340.0000000000002
 31
0.0
  0
LINE
  5
766
330
B3D
100
AcDbEntity
  8
Cuts
100
AcDbLine
 10
-490.0
 20
333.0000000000001
 30
0.0
 11
-490.0
 21
340.0000000000002
 31
0.0
  0
LINE
  5
776
330
B3D
100
AcDbEntity
  8
Cuts
100
AcDbLine
 10
-507.0
 20
370.0
 30
0.0
 11
-500.0
 21
370.0
 31
0.0
  0
LINE
  5
777
330
B3D
100
AcDbEntity
  8
Cuts
100
AcDbLine
 10
-507.0
 20
410.0
 30
0.0
 11
-500.0
 21
410.0
 31
0.0
  0
LINE
  5
778
330
B3D
100
AcDbEntity
  8
Cuts
100
AcDbLine
 10
-507.0
 20
450.0
 30
0.0
 11
-500.0
 21
450.0
 31
0.0
  0
LINE
  5
779
330
B3D
100
AcDbEntity
  8
Cuts
100
AcDbLine
 10
-507.0
 20
490.0
 30
0.0
 11
-500.0
 21
490.0
 31
0.0
  0
LINE
  5
79B
330
B3D
100
AcDbEntity
  8
Cuts
100
AcDbLine
 10
-330.0
 20
299.9999999999999
 30
0.0
 11
-330.0
 21
307.0
 31
0.0
  0
LINE
  5
79C
330
B3D
100
AcDbEntity
  8
Cuts
100
AcDbLine
 10
-370.0
 20
300.0
 30
0.0
 11
-370.0
 21
307.0
 31
0.0
  0
LINE
  5
79D
330
B3D
100
AcDbEntity
  8
Cuts
100
AcDbLine
 10
-410.0
 20
300.0
 30
0.0
 11
-410.0
 21
307.0
 31
0.0
  0
LINE
  5
79E
330
B3D
100
AcDbEntity
  8
Cuts
100
AcDbLine
 10
-450.0
 20
300.0
 30
0.0
 11
-450.0
 21
307.0000000000001
 31
0.0
  0
LINE
  5
79F
330
B3D
100
AcDbEntity
  8
Cuts
100
AcDbLine
 10
-490.0
 20
300.0
 30
0.0
 11
-490.0
 21
307.0000000000001
 31
0.0
  0
LINE
  5
7B0
330
B3D
100
AcDbEntity
  8
Cuts
100
AcDbLine
 10
-470.0
 20
200.0
 30
0.0
 11
-470.0
 21
193.0
 31
0.0
  0
LINE
  5
7B1
330
B3D
100
AcDbEntity
  8
Cuts
100
AcDbLine
 10
-430.0
 20
200.0
 30
0.0
 11
-430.0
 21
193.0
 31
0.0
  0
LINE
  5
7B2
330
B3D
100
AcDbEntity
  8
Cuts
100
AcDbLine
 10
-390.0
 20
200.0
 30
0.0
 11
-390.0
 21
193.0
 31
0.0
  0
LINE
  5
7B3
330
B3D
100
AcDbEntity
  8
Cuts
100
AcDbLine
 10
-350.0
 20
200.0
 30
0.0
 11
-350.0
 21
193.0
 31
0.0
  0
LINE
  5
7B4
330
B3D
100
AcDbEntity
  8
Cuts
100
AcDbLine
 10
-310.0
 20
200.0
 30
0.0
 11
-310.0
 21
193.0
 31
0.0
  0
LINE
  5
7D4
330
B3D
100
AcDbEntity
  8
Cuts
100
AcDbLine
 10
-500.0
 20
225.0
 30
0.0
 11
-507.0
 21
225.0
 31
0.0
  0
LINE
  5
7D5
330
B3D
100
AcDbEntity
  8
Cuts
100
AcDbLine
 10
-500.0
 20
260.0
 30
0.0
 11
-507.0
 21
260.0
 31
0.0
  0
LINE
  5
7D6
330
B3D
100
AcDbEntity
  8
Cuts
100
AcDbLine
 10
-500.0
 20
290.0
 30
0.0
 11
-507.0
 21
290.0
 31
0.0
  0
LINE
  5
7E1
330
B3D
100
AcDbEntity
  8
Cuts
100
AcDbLine
 10
-300.0
 20
225.0
 30
0.0
 11
-293.0
 21
225.0
 31
0.0
  0
LINE
  5
7E2
330
B3D
100
AcDbEntity
  8
Cuts
100
AcDbLine
 10
-300.0
 20
260.0
 30
0.0
 11
-293.0
 21
260.0
 31
0.0
  0
LINE
  5
7E3
330
B3D
100
AcDbEntity
  8
Cuts
100
AcDbLine
 10
-300.0
 20
290.0
 30
0.0
 11
-293.0
 21
290.0
 31
0.0
  0
LINE
  5
831
330
B3D
100
AcDbEntity
  8
Cuts
100
AcDbLine
 10
-330.0
 20
639.9999999999999
 30
0.0
 11
-330.0
 21
647.0
 31
0.0
  0
LINE
  5
832
330
B3D
100
AcDbEntity
  8
Cuts
100
AcDbLine
 10
-370.0
 20
640.0
 30
0.0
 11
-370.0
 21
647.0
 31
0.0
  0
LINE
  5
833
330
B3D
100
AcDbEntity
  8
Cuts
100
AcDbLine
 10
-410.0
 20
640.0
 30
0.0
 11
-410.0
 21
647.0
 31
0.0
  0
LINE
  5
834
330
B3D
100
AcDbEntity
  8
Cuts
100
AcDbLine
 10
-450.0
 20
640.0
 30
0.0
 11
-450.0
 21
647.0
 31
0.0
  0
LINE
  5
835
330
B3D
100
AcDbEntity
  8
Cuts
100
AcDbLine
 10
-490.0
 20
640.0
 30
0.0
 11
-490.0
 21
647.0
 31
0.0
  0
LINE
  5
836
330
B3D
100
AcDbEntity
  8
Cuts
100
AcDbLine
 10
-470.0
 20
540.0
 30
0.0
 11
-470.0
 21
533.0
 31
0.0
  0
LINE
  5
837
330
B3D
100
AcDbEntity
  8
Cuts
100
AcDbLine
 10
-430.0
 20
540.0
 30
0.0
 11
-430.0
 21
533.0
 31
0.0
  0
LINE
  5
838
330
B3D
100
AcDbEntity
  8
Cuts
100
AcDbLine
 10
-390.0
 20
540.0
 30
0.0
 11
-390.0
 21
533.0
 31
0.0
  0
LINE
  5
839
330
B3D
100
AcDbEntity
  8
Cuts
100
AcDbLine
 10
-350.0
 20
540.0
 30
0.0
 11
-350.0
 21
533.0
 31
0.0
  0
LINE
  5
83A
330
B3D
100
AcDbEntity
  8
Cuts
100
AcDbLine
 10
-310.0
 20
540.0
 30
0.0
 11
-310.0
 21
533.0
 31
0.0
  0
LINE
  5
83B
330
B3D
100
AcDbEntity
  8
Cuts
100
AcDbLine
 10
-500.0
 20
565.0
 30
0.0
 11
-507.0
 21
565.0
 31
0.0
  0
LINE
  5
83C
330
B3D
100
AcDbEntity
  8
Cuts
100
AcDbLine
 10
-500.0
 20
600.0
 30
0.0
 11
-507.0
 21
600.0
 31
0.0
  0
LINE
  5
83D
330
B3D
100
AcDbEntity
  8
Cuts
100
AcDbLine
 10
-500.0
 20
630.0
 30
0.0
 11
-507.0
 21
630.0
 31
0.0
  0
LINE
  5
83E
330
B3D
100
AcDbEntity
  8
Cuts
100
AcDbLine
 10
-300.0
 20
565.0
 30
0.0
 11
-293.0
 21
565.0
 31
0.0
  0
LINE
  5
83F
330
B3D
100
AcDbEntity
  8
Cuts
100
AcDbLine
 10
-300.0
 20
600.0
 30
0.0
 11
-293.0
 21
600.0
 31
0.0
  0
LINE
  5
840
330
B3D
100
AcDbEntity
  8
Cuts
100
AcDbLine
 10
-300.0
 20
630.0
 30
0.0
 11
-293.0
 21
630.0
 31
0.0
  0
LINE
  5
8F2
330
B3D
100
AcDbEntity
  8
Cuts
100
AcDbLine
 10
-160.0
 20
369.9999999999999
 30
0.0
 11
-153.0
 21
369.9999999999999
 31
0.0
  0
LINE
  5
8F3
330
B3D
100
AcDbEntity
  8
Cuts
100
AcDbLine
 10
-160.0
 20
409.9999999999999
 30
0.0
 11
-153.0
 21
409.9999999999999
 31
0.0
  0
LINE
  5
8F4
330
B3D
100
AcDbEntity
  8
Cuts
100
AcDbLine
 10
-160.0
 20
449.9999999999999
 30
0.0
 11
-153.0
 21
449.9999999999999
 31
0.0
  0
LINE
  5
8F5
330
B3D
100
AcDbEntity
  8
Cuts
100
AcDbLine
 10
-160.0
 20
489.9999999999999
 30
0.0
 11
-153.0
 21
489.9999999999999
 31
0.0
  0
LINE
  5
901
330
B3D
100
AcDbEntity
  8
Cuts
100
AcDbLine
 10
-185.0
 20
333.0
 30
0.0
 11
-185.0
 21
340.0
 31
0.0
  0
LINE
  5
902
330
B3D
100
AcDbEntity
  8
Cuts
100
AcDbLine
 10
-220.0
 20
333.0
 30
0.0
 11
-220.0
 21
340.0
 31
0.0
  0
LINE
  5
903
330
B3D
100
AcDbEntity
  8
Cuts
100
AcDbLine
 10
-250.0
 20
333.0
 30
0.0
 11
-250.0
 21
340.0
 31
0.0
  0
LINE
  5
90E
330
B3D
100
AcDbEntity
  8
Cuts
100
AcDbLine
 10
-185.0
 20
506.9999999999999
 30
0.0
 11
-185.0
 21
499.9999999999999
 31
0.0
  0
LINE
  5
90F
330
B3D
100
AcDbEntity
  8
Cuts
100
AcDbLine
 10
-220.0
 20
506.9999999999999
 30
0.0
 11
-220.0
 21
499.9999999999999
 31
0.0
  0
LINE
  5
910
330
B3D
100
AcDbEntity
  8
Cuts
100
AcDbLine
 10
-250.0
 20
506.9999999999999
 30
0.0
 11
-250.0
 21
499.9999999999999
 31
0.0
  0
LINE
  5
929
330
B3D
100
AcDbEntity
  8
Cuts
100
AcDbLine
 10
-540.0
 20
370.0
 30
0.0
 11
-533.0
 21
370.0
 31
0.0
  0
LINE
  5
92A
330
B3D
100
AcDbEntity
  8
Cuts
100
AcDbLine
 10
-540.0
 20
410.0
 30
0.0
 11
-533.0
 21
410.0
 31
0.0
  0
LINE
  5
92B
330
B3D
100
AcDbEntity
  8
Cuts
100
AcDbLine
 10
-540.0
 20
450.0
 30
0.0
 11
-533.0
 21
450.0
 31
0.0
  0
LINE
  5
92C
330
B3D
100
AcDbEntity
  8
Cuts
100
AcDbLine
 10
-540.0
 20
490.0
 30
0.0
 11
-533.0
 21
490.0
 31
0.0
  0
LINE
  5
92D
330
B3D
100
AcDbEntity
  8
Cuts
100
AcDbLine
 10
-565.0
 20
333.0000000000001
 30
0.0
 11
-565.0
 21
340.0000000000001
 31
0.0
  0
LINE
  5
92E
330
B3D
100
AcDbEntity
  8
Cuts
100
AcDbLine
 10
-600.0
 20
333.0000000000001
 30
0.0
 11
-600.0
 21
340.0000000000001
 31
0.0
  0
LINE
  5
92F
330
B3D
100
AcDbEntity
  8
Cuts
100
AcDbLine
 10
-630.0
 20
333.0000000000001
 30
0.0
 11
-630.0
 21
340.0000000000001
 31
0.0
  0
LINE
  5
930
330
B3D
100
AcDbEntity
  8
Cuts
100
AcDbLine
 10
-565.0
 20
507.0
 30
0.0
 11
-565.0
 21
500.0
 31
0.0
  0
LINE
  5
931
330
B3D
100
AcDbEntity
  8
Cuts
100
AcDbLine
 10
-600.0
 20
507.0
 30
0.0
 11
-600.0
 21
500.0
 31
0.0
  0
LINE
  5
932
330
B3D
100
AcDbEntity
  8
Cuts
100
AcDbLine
 10
-630.0
 20
507.0
 30
0.0
 11
-630.0
 21
500.0
 31
0.0
  0
LINE
  5
96D
330
B3D
100
AcDbEntity
  8
Cuts
100
AcDbLine
 10
-470.0
 20
846.9999999999998
 30
0.0
 11
-470.0
 21
839.9999999999998
 31
0.0
  0
LINE
  5
96E
330
B3D
100
AcDbEntity
  8
Cuts
100
AcDbLine
 10
-430.0
 20
846.9999999999998
 30
0.0
 11
-430.0
 21
839.9999999999998
 31
0.0
  0
LINE
  5
96F
330
B3D
100
AcDbEntity
  8
Cuts
100
AcDbLine
 10
-390.0
 20
846.9999999999998
 30
0.0
 11
-390.0
 21
839.9999999999998
 31
0.0
  0
LINE
  5
970
330
B3D
100
AcDbEntity
  8
Cuts
100
AcDbLine
 10
-350.0
 20
846.9999999999998
 30
0.0
 11
-350.0
 21
839.9999999999998
 31
0.0
  0
LINE
  5
971
330
B3D
100
AcDbEntity
  8
Cuts
100
AcDbLine
 10
-310.0
 20
846.9999999999998
 30
0.0
 11
-310.0
 21
839.9999999999998
 31
0.0
  0
LINE
  5
972
330
B3D
100
AcDbEntity
  8
Cuts
100
AcDbLine
 10
-330.0
 20
672.9999999999998
 30
0.0
 11
-330.0
 21
679.9999999999999
 31
0.0
  0
LINE
  5
973
330
B3D
100
AcDbEntity
  8
Cuts
100
AcDbLine
 10
-370.0
 20
672.9999999999999
 30
0.0
 11
-370.0
 21
679.9999999999999
 31
0.0
  0
LINE
  5
974
330
B3D
100
AcDbEntity
  8
Cuts
100
AcDbLine
 10
-410.0
 20
672.9999999999999
 30
0.0
 11
-410.0
 21
679.9999999999999
 31
0.0
  0
LINE
  5
975
330
B3D
100
AcDbEntity
  8
Cuts
100
AcDbLine
 10
-450.0
 20
672.9999999999999
 30
0.0
 11
-450.0
 21
680.0
 31
0.0
  0
LINE
  5
976
330
B3D
100
AcDbEntity
  8
Cuts
100
AcDbLine
 10
-490.0
 20
672.9999999999999
 30
0.0
 11
-490.0
 21
680.0
 31
0.0
  0
LINE
  5
977
330
B3D
100
AcDbEntity
  8
Cuts
100
AcDbLine
 10
-507.0
 20
709.9999999999998
 30
0.0
 11
-500.0
 21
709.9999999999998
 31
0.0
  0
LINE
  5
978
330
B3D
100
AcDbEntity
  8
Cuts
100
AcDbLine
 10
-507.0
 20
749.9999999999998
 30
0.0
 11
-500.0
 21
749.9999999999998
 31
0.0
  0
LINE
  5
979
330
B3D
100
AcDbEntity
  8
Cuts
100
AcDbLine
 10
-507.0
 20
789.9999999999998
 30
0.0
 11
-500.0
 21
789.9999999999998
 31
0.0
  0
LINE
  5
97A
330
B3D
100
AcDbEntity
  8
Cuts
100
AcDbLine
 10
-507.0
 20
829.9999999999998
 30
0.0
 11
-500.0
 21
829.9999999999998
 31
0.0
  0
LINE
  5
752
330
B3D
100
AcDbEntity
  8
Cuts
100
AcDbLine
 10
-500.0
 20
500.0
 30
0.0
 11
-490.0
 21
500.0
 31
0.0
  0
LINE
  5
767
330
B3D
100
AcDbEntity
  8
Cuts
100
AcDbLine
 10
-300.0
 20
339.9999999999999
 30
0.0
 11
-310.0
 21
340.0000000000001
 31
0.0
  0
LINE
  5
77A
330
B3D
100
AcDbEntity
  8
Cuts
100
AcDbLine
 10
-500.0
 20
340.0
 30
0.0
 11
-500.0
 21
350.0
 31
0.0
  0
LINE
  5
7A0
330
B3D
100
AcDbEntity
  8
Cuts
100
AcDbLine
 10
-293.0
 20
307.0
 30
0.0
 11
-310.0
 21
307.0
 31
0.0
  0
LINE
  5
7B5
330
B3D
100
AcDbEntity
  8
Cuts
100
AcDbLine
 10
-507.0
 20
193.0
 30
0.0
 11
-490.0
 21
193.0
 31
0.0
  0
LINE
  5
7D7
330
B3D
100
AcDbEntity
  8
Cuts
100
AcDbLine
 10
-507.0
 20
193.0
 30
0.0
 11
-507.0
 21
210.0
 31
0.0
  0
LINE
  5
7E4
330
B3D
100
AcDbEntity
  8
Cuts
100
AcDbLine
 10
-293.0
 20
193.0
 30
0.0
 11
-293.0
 21
210.0
 31
0.0
  0
LINE
  5
841
330
B3D
100
AcDbEntity
  8
Cuts
100
AcDbLine
 10
-293.0
 20
647.0
 30
0.0
 11
-310.0
 21
647.0
 31
0.0
  0
LINE
  5
842
330
B3D
100
AcDbEntity
  8
Cuts
100
AcDbLine
 10
-507.0
 20
533.0
 30
0.0
 11
-490.0
 21
533.0
 31
0.0
  0
LINE
  5
843
330
B3D
100
AcDbEntity
  8
Cuts
100
AcDbLine
 10
-507.0
 20
533.0
 30
0.0
 11
-507.0
 21
550.0
 31
0.0
  0
LINE
  5
844
330
B3D
100
AcDbEntity
  8
Cuts
100
AcDbLine
 10
-293.0
 20
533.0
 30
0.0
 11
-293.0
 21
550.0
 31
0.0
  0
LINE
  5
8F6
330
B3D
100
AcDbEntity
  8
Cuts
100
AcDbLine
 10
-153.0
 20
339.9999999999999
 30
0.0
 11
-153.0
 21
349.9999999999999
 31
0.0
  0
LINE
  5
904
330
B3D
100
AcDbEntity
  8
Cuts
100
AcDbLine
 10
-153.0
 20
339.9999999999999
 30
0.0
 11
-170.0
 21
340.0
 31
0.0
  0
LINE
  5
911
330
B3D
100
AcDbEntity
  8
Cuts
100
AcDbLine
 10
-153.0
 20
500.0
 30
0.0
 11
-170.0
 21
499.9999999999999
 31
0.0
  0
LINE
  5
933
330
B3D
100
AcDbEntity
  8
Cuts
100
AcDbLine
 10
-533.0
 20
340.0
 30
0.0
 11
-533.0
 21
350.0
 31
0.0
  0
LINE
  5
934
330
B3D
100
AcDbEntity
  8
Cuts
100
AcDbLine
 10
-533.0
 20
340.0
 30
0.0
 11
-550.0
 21
340.0000000000001
 31
0.0
  0
LINE
  5
935
330
B3D
100
AcDbEntity
  8
Cuts
100
AcDbLine
 10
-533.0
 20
500.0000000000001
 30
0.0
 11
-550.0
 21
500.0
 31
0.0
  0
LINE
  5
97B
330
B3D
100
AcDbEntity
  8
Cuts
100
AcDbLine
 10
-500.0
 20
839.9999999999998
 30
0.0
 11
-490.0
 21
839.9999999999998
 31
0.0
  0
LINE
  5
97C
330
B3D
100
AcDbEntity
  8
Cuts
100
AcDbLine
 10
-300.0
 20
679.9999999999998
 30
0.0
 11
-310.0
 21
679.9999999999999
 31
0.0
  0
LINE
  5
97D
330
B3D
100
AcDbEntity
  8
Cuts
100
AcDbLine
 10
-500.0
 20
679.9999999999998
 30
0.0
 11
-500.0
 21
689.9999999999998
 31
0.0
  0
LINE
  5
753
330
B3D
100
AcDbEntity
  8
Cuts
100
AcDbLine
 10
-470.0
 20
500.0
 30
0.0
 11
-450.0
 21
500.0
 31
0.0
  0
LINE
  5
768
330
B3D
100
AcDbEntity
  8
Cuts
100
AcDbLine
 10
-330.0
 20
340.0000000000001
 30
0.0
 11
-350.0
 21
340.0000000000001
 31
0.0
  0
LINE
  5
77B
330
B3D
100
AcDbEntity
  8
Cuts
100
AcDbLine
 10
-500.0
 20
370.0
 30
0.0
 11
-500.0
 21
390.0
 31
0.0
  0
LINE
  5
7A1
330
B3D
100
AcDbEntity
  8
Cuts
100
AcDbLine
 10
-330.0
 20
307.0
 30
0.0
 11
-350.0
 21
307.0
 31
0.0
  0
LINE
  5
7B6
330
B3D
100
AcDbEntity
  8
Cuts
100
AcDbLine
 10
-470.0
 20
193.0
 30
0.0
 11
-450.0
 21
193.0
 31
0.0
  0
LINE
  5
845
330
B3D
100
AcDbEntity
  8
Cuts
100
AcDbLine
 10
-330.0
 20
647.0
 30
0.0
 11
-350.0
 21
647.0
 31
0.0
  0
LINE
  5
846
330
B3D
100
AcDbEntity
  8
Cuts
100
AcDbLine
 10
-470.0
 20
533.0
 30
0.0
 11
-450.0
 21
533.0
 31
0.0
  0
LINE
  5
8F7
330
B3D
100
AcDbEntity
  8
Cuts
100
AcDbLine
 10
-153.0
 20
369.9999999999999
 30
0.0
 11
-153.0
 21
389.9999999999999
 31
0.0
  0
LINE
  5
936
330
B3D
100
AcDbEntity
  8
Cuts
100
AcDbLine
 10
-533.0
 20
370.0
 30
0.0
 11
-533.0
 21
390.0
 31
0.0
  0
LINE
  5
97E
330
B3D
100
AcDbEntity
  8
Cuts
100
AcDbLine
 10
-470.0
 20
839.9999999999998
 30
0.0
 11
-450.0
 21
839.9999999999998
 31
0.0
  0
LINE
  5
97F
330
B3D
100
AcDbEntity
  8
Cuts
100
AcDbLine
 10
-330.0
 20
679.9999999999999
 30
0.0
 11
-350.0
 21
679.9999999999999
 31
0.0
  0
LINE
  5
980
330
B3D
100
AcDbEntity
  8
Cuts
100
AcDbLine
 10
-500.0
 20
709.9999999999998
 30
0.0
 11
-500.0
 21
729.9999999999998
 31
0.0
  0
LINE
  5
754
330
B3D
100
AcDbEntity
  8
Cuts
100
AcDbLine
 10
-430.0
 20
500.0
 30
0.0
 11
-410.0
 21
500.0
 31
0.0
  0
LINE
  5
769
330
B3D
100
AcDbEntity
  8
Cuts
100
AcDbLine
 10
-370.0
 20
340.0000000000001
 30
0.0
 11
-390.0
 21
340.0000000000001
 31
0.0
  0
LINE
  5
77C
330
B3D
100
AcDbEntity
  8
Cuts
100
AcDbLine
 10
-500.0
 20
410.0
 30
0.0
 11
-500.0
 21
430.0
 31
0.0
  0
LINE
  5
7A2
330
B3D
100
AcDbEntity
  8
Cuts
100
AcDbLine
 10
-370.0
 20
307.0
 30
0.0
 11
-390.0
 21
307.0
 31
0.0
  0
LINE
  5
7B7
330
B3D
100
AcDbEntity
  8
Cuts
100
AcDbLine
 10
-430.0
 20
193.0
 30
0.0
 11
-410.0
 21
193.0
 31
0.0
  0
LINE
  5
7D8
330
B3D
100
AcDbEntity
  8
Cuts
100
AcDbLine
 10
-507.0
 20
225.0
 30
0.0
 11
-507.0
 21
240.0
 31
0.0
  0
LINE
  5
7E5
330
B3D
100
AcDbEntity
  8
Cuts
100
AcDbLine
 10
-293.0
 20
225.0
 30
0.0
 11
-293.0
 21
240.0
 31
0.0
  0
LINE
  5
847
330
B3D
100
AcDbEntity
  8
Cuts
100
AcDbLine
 10
-370.0
 20
647.0
 30
0.0
 11
-390.0
 21
647.0
 31
0.0
  0
LINE
  5
848
330
B3D
100
AcDbEntity
  8
Cuts
100
AcDbLine
 10
-430.0
 20
533.0
 30
0.0
 11
-410.0
 21
533.0
 31
0.0
  0
LINE
  5
849
330
B3D
100
AcDbEntity
  8
Cuts
100
AcDbLine
 10
-507.0
 20
565.0
 30
0.0
 11
-507.0
 21
580.0
 31
0.0
  0
LINE
  5
84A
330
B3D
100
AcDbEntity
  8
Cuts
100
AcDbLine
 10
-293.0
 20
565.0
 30
0.0
 11
-293.0
 21
580.0
 31
0.0
  0
LINE
  5
8F8
330
B3D
100
AcDbEntity
  8
Cuts
100
AcDbLine
 10
-153.0
 20
409.9999999999999
 30
0.0
 11
-153.0
 21
429.9999999999999
 31
0.0
  0
LINE
  5
905
330
B3D
100
AcDbEntity
  8
Cuts
100
AcDbLine
 10
-185.0
 20
340.0
 30
0.0
 11
-200.0
 21
340.0
 31
0.0
  0
LINE
  5
912
330
B3D
100
AcDbEntity
  8
Cuts
100
AcDbLine
 10
-185.0
 20
499.9999999999999
 30
0.0
 11
-200.0
 21
499.9999999999999
 31
0.0
  0
LINE
  5
937
330
B3D
100
AcDbEntity
  8
Cuts
100
AcDbLine
 10
-533.0
 20
410.0
 30
0.0
 11
-533.0
 21
430.0
 31
0.0
  0
LINE
  5
938
330
B3D
100
AcDbEntity
  8
Cuts
100
AcDbLine
 10
-565.0
 20
340.0000000000001
 30
0.0
 11
-580.0
 21
340.0000000000001
 31
0.0
  0
LINE
  5
939
330
B3D
100
AcDbEntity
  8
Cuts
100
AcDbLine
 10
-565.0
 20
500.0
 30
0.0
 11
-580.0
 21
500.0
 31
0.0
  0
LINE
  5
981
330
B3D
100
AcDbEntity
  8
Cuts
100
AcDbLine
 10
-430.0
 20
839.9999999999998
 30
0.0
 11
-410.0
 21
839.9999999999998
 31
0.0
  0
LINE
  5
982
330
B3D
100
AcDbEntity
  8
Cuts
100
AcDbLine
 10
-370.0
 20
679.9999999999999
 30
0.0
 11
-390.0
 21
679.9999999999999
 31
0.0
  0
LINE
  5
983
330
B3D
100
AcDbEntity
  8
Cuts
100
AcDbLine
 10
-500.0
 20
749.9999999999998
 30
0.0
 11
-500.0
 21
769.9999999999998
 31
0.0
  0
LINE
  5
755
330
B3D
100
AcDbEntity
  8
Cuts
100
AcDbLine
 10
-390.0
 20
500.0
 30
0.0
 11
-370.0
 21
500.0
 31
0.0
  0
LINE
  5
76A
330
B3D
100
AcDbEntity
  8
Cuts
100
AcDbLine
 10
-410.0
 20
340.0000000000001
 30
0.0
 11
-430.0
 21
340.0000000000001
 31
0.0
  0
LINE
  5
77D
330
B3D
100
AcDbEntity
  8
Cuts
100
AcDbLine
 10
-500.0
 20
450.0
 30
0.0
 11
-500.0
 21
470.0
 31
0.0
  0
LINE
  5
7A3
330
B3D
100
AcDbEntity
  8
Cuts
100
AcDbLine
 10
-410.0
 20
307.0
 30
0.0
 11
-430.0
 21
307.0
 31
0.0
  0
LINE
  5
7B8
330
B3D
100
AcDbEntity
  8
Cuts
100
AcDbLine
 10
-390.0
 20
193.0
 30
0.0
 11
-370.0
 21
193.0
 31
0.0
  0
LINE
  5
7D9
330
B3D
100
AcDbEntity
  8
Cuts
100
AcDbLine
 10
-507.0
 20
260.0
 30
0.0
 11
-507.0
 21
275.0
 31
0.0
  0
LINE
  5
7E6
330
B3D
100
AcDbEntity
  8
Cuts
100
AcDbLine
 10
-293.0
 20
260.0
 30
0.0
 11
-293.0
 21
275.0
 31
0.0
  0
LINE
  5
84B
330
B3D
100
AcDbEntity
  8
Cuts
100
AcDbLine
 10
-410.0
 20
647.0
 30
0.0
 11
-430.0
 21
647.0
 31
0.0
  0
LINE
  5
84C
330
B3D
100
AcDbEntity
  8
Cuts
100
AcDbLine
 10
-390.0
 20
533.0
 30
0.0
 11
-370.0
 21
533.0
 31
0.0
  0
LINE
  5
84D
330
B3D
100
AcDbEntity
  8
Cuts
100
AcDbLine
 10
-507.0
 20
600.0
 30
0.0
 11
-507.0
 21
615.0
 31
0.0
  0
LINE
  5
84E
330
B3D
100
AcDbEntity
  8
Cuts
100
AcDbLine
 10
-293.0
 20
600.0
 30
0.0
 11
-293.0
 21
615.0
 31
0.0
  0
LINE
  5
8F9
330
B3D
100
AcDbEntity
  8
Cuts
100
AcDbLine
 10
-153.0
 20
449.9999999999999
 30
0.0
 11
-153.0
 21
469.9999999999999
 31
0.0
  0
LINE
  5
906
330
B3D
100
AcDbEntity
  8
Cuts
100
AcDbLine
 10
-220.0
 20
340.0
 30
0.0
 11
-235.0
 21
340.0
 31
0.0
  0
LINE
  5
913
330
B3D
100
AcDbEntity
  8
Cuts
100
AcDbLine
 10
-220.0
 20
499.9999999999999
 30
0.0
 11
-235.0
 21
499.9999999999999
 31
0.0
  0
LINE
  5
93A
330
B3D
100
AcDbEntity
  8
Cuts
100
AcDbLine
 10
-533.0
 20
450.0
 30
0.0
 11
-533.0
 21
470.0
 31
0.0
  0
LINE
  5
93B
330
B3D
100
AcDbEntity
  8
Cuts
100
AcDbLine
 10
-600.0
 20
340.0000000000001
 30
0.0
 11
-615.0
 21
340.0000000000001
 31
0.0
  0
LINE
  5
93C
330
B3D
100
AcDbEntity
  8
Cuts
100
AcDbLine
 10
-600.0
 20
500.0
 30
0.0
 11
-615.0
 21
500.0
 31
0.0
  0
LINE
  5
984
330
B3D
100
AcDbEntity
  8
Cuts
100
AcDbLine
 10
-390.0
 20
839.9999999999998
 30
0.0
 11
-370.0
 21
839.9999999999998
 31
0.0
  0
LINE
  5
985
330
B3D
100
AcDbEntity
  8
Cuts
100
AcDbLine
 10
-410.0
 20
679.9999999999999
 30
0.0
 11
-430.0
 21
679.9999999999999
 31
0.0
  0
LINE
  5
986
330
B3D
100
AcDbEntity
  8
Cuts
100
AcDbLine
 10
-500.0
 20
789.9999999999998
 30
0.0
 11
-500.0
 21
809.9999999999998
 31
0.0
  0
LINE
  5
756
330
B3D
100
AcDbEntity
  8
Cuts
100
AcDbLine
 10
-350.0
 20
500.0
 30
0.0
 11
-330.0
 21
500.0
 31
0.0
  0
LINE
  5
76B
330
B3D
100
AcDbEntity
  8
Cuts
100
AcDbLine
 10
-450.0
 20
340.0000000000002
 30
0.0
 11
-470.0
 21
340.0000000000002
 31
0.0
  0
LINE
  5
77E
330
B3D
100
AcDbEntity
  8
Cuts
100
AcDbLine
 10
-500.0
 20
490.0
 30
0.0
 11
-500.0
 21
500.0
 31
0.0
  0
LINE
  5
7A4
330
B3D
100
AcDbEntity
  8
Cuts
100
AcDbLine
 10
-450.0
 20
307.0000000000001
 30
0.0
 11
-470.0
 21
307.0000000000001
 31
0.0
  0
LINE
  5
7B9
330
B3D
100
AcDbEntity
  8
Cuts
100
AcDbLine
 10
-350.0
 20
193.0
 30
0.0
 11
-330.0
 21
193.0
 31
0.0
  0
LINE
  5
7DA
330
B3D
100
AcDbEntity
  8
Cuts
100
AcDbLine
 10
-507.0
 20
290.0
 30
0.0
 11
-507.0
 21
307.0
 31
0.0
  0
LINE
  5
7E7
330
B3D
100
AcDbEntity
  8
Cuts
100
AcDbLine
 10
-293.0
 20
290.0
 30
0.0
 11
-293.0
 21
307.0
 31
0.0
  0
LINE
  5
84F
330
B3D
100
AcDbEntity
  8
Cuts
100
AcDbLine
 10
-450.0
 20
647.0
 30
0.0
 11
-470.0
 21
647.0
 31
0.0
  0
LINE
  5
850
330
B3D
100
AcDbEntity
  8
Cuts
100
AcDbLine
 10
-350.0
 20
533.0
 30
0.0
 11
-330.0
 21
533.0
 31
0.0
  0
LINE
  5
851
330
B3D
100
AcDbEntity
  8
Cuts
100
AcDbLine
 10
-507.0
 20
630.0
 30
0.0
 11
-507.0
 21
647.0
 31
0.0
  0
LINE
  5
852
330
B3D
100
AcDbEntity
  8
Cuts
100
AcDbLine
 10
-293.0
 20
630.0
 30
0.0
 11
-293.0
 21
647.0
 31
0.0
  0
LINE
  5
8FA
330
B3D
100
AcDbEntity
  8
Cuts
100
AcDbLine
 10
-153.0
 20
489.9999999999999
 30
0.0
 11
-153.0
 21
499.9999999999999
 31
0.0
  0
LINE
  5
907
330
B3D
100
AcDbEntity
  8
Cuts
100
AcDbLine
 10
-250.0
 20
340.0
 30
0.0
 11
-267.0
 21
340.0
 31
0.0
  0
LINE
  5
914
330
B3D
100
AcDbEntity
  8
Cuts
100
AcDbLine
 10
-250.0
 20
499.9999999999999
 30
0.0
 11
-267.0
 21
500.0
 31
0.0
  0
LINE
  5
93D
330
B3D
100
AcDbEntity
  8
Cuts
100
AcDbLine
 10
-533.0
 20
490.0
 30
0.0
 11
-533.0
 21
500.0
 31
0.0
  0
LINE
  5
93E
330
B3D
100
AcDbEntity
  8
Cuts
100
AcDbLine
 10
-630.0
 20
340.0000000000001
 30
0.0
 11
-647.0
 21
340.0000000000001
 31
0.0
  0
LINE
  5
93F
330
B3D
100
AcDbEntity
  8
Cuts
100
AcDbLine
 10
-630.0
 20
500.0
 30
0.0
 11
-647.0
 21
500.0000000000001
 31
0.0
  0
LINE
  5
987
330
B3D
100
AcDbEntity
  8
Cuts
100
AcDbLine
 10
-350.0
 20
839.9999999999998
 30
0.0
 11
-330.0
 21
839.9999999999998
 31
0.0
  0
LINE
  5
988
330
B3D
100
AcDbEntity
  8
Cuts
100
AcDbLine
 10
-450.0
 20
680.0
 30
0.0
 11
-470.0
 21
680.0
 31
0.0
  0
LINE
  5
989
330
B3D
100
AcDbEntity
  8
Cuts
100
AcDbLine
 10
-500.0
 20
829.9999999999998
 30
0.0
 11
-500.0
 21
839.9999999999998
 31
0.0
  0
LINE
  5
757
330
B3D
100
AcDbEntity
  8
Cuts
100
AcDbLine
 10
-310.0
 20
500.0
 30
0.0
 11
-300.0
 21
500.0
 31
0.0
  0
LINE
  5
76C
330
B3D
100
AcDbEntity
  8
Cuts
100
AcDbLine
 10
-490.0
 20
340.0000000000002
 30
0.0
 11
-500.0
 21
340.0
 31
0.0
  0
LINE
  5
7A5
330
B3D
100
AcDbEntity
  8
Cuts
100
AcDbLine
 10
-490.0
 20
307.0000000000001
 30
0.0
 11
-507.0
 21
307.0
 31
0.0
  0
LINE
  5
7BA
330
B3D
100
AcDbEntity
  8
Cuts
100
AcDbLine
 10
-310.0
 20
193.0
 30
0.0
 11
-293.0
 21
193.0
 31
0.0
  0
LINE
  5
853
330
B3D
100
AcDbEntity
  8
Cuts
100
AcDbLine
 10
-490.0
 20
647.0
 30
0.0
 11
-507.0
 21
647.0
 31
0.0
  0
LINE
  5
854
330
B3D
100
AcDbEntity
  8
Cuts
100
AcDbLine
 10
-310.0
 20
533.0
 30
0.0
 11
-293.0
 21
533.0
 31
0.0
  0
LINE
  5
98A
330
B3D
100
AcDbEntity
  8
Cuts
100
AcDbLine
 10
-310.0
 20
839.9999999999998
 30
0.0
 11
-300.0
 21
839.9999999999998
 31
0.0
  0
LINE
  5
98B
330
B3D
100
AcDbEntity
  8
Cuts
100
AcDbLine
 10
-490.0
 20
680.0
 30
0.0
 11
-500.0
 21
679.9999999999998
 31
0.0
  0
LINE
  5
77F
330
B3D
100
AcDbEntity
  8
Cuts
100
AcDbLine
 10
-300.0
 20
350.0
 30
0.0
 11
-293.0
 21
350.0
 31
0.0
  0
LINE
  5
780
330
B3D
100
AcDbEntity
  8
Cuts
100
AcDbLine
 10
-300.0
 20
390.0
 30
0.0
 11
-293.0
 21
390.0
 31
0.0
  0
LINE
  5
781
330
B3D
100
AcDbEntity
  8
Cuts
100
AcDbLine
 10
-300.0
 20
430.0
 30
0.0
 11
-293.0
 21
430.0
 31
0.0
  0
LINE
  5
782
330
B3D
100
AcDbEntity
  8
Cuts
100
AcDbLine
 10
-300.0
 20
470.0
 30
0.0
 11
-293.0
 21
470.0
 31
0.0
  0
LINE
  5
783
330
B3D
100
AcDbEntity
  8
Cuts
100
AcDbLine
 10
-293.0
 20
350.0
 30
0.0
 11
-293.0
 21
370.0
 31
0.0
  0
LINE
  5
784
330
B3D
100
AcDbEntity
  8
Cuts
100
AcDbLine
 10
-293.0
 20
390.0
 30
0.0
 11
-293.0
 21
410.0
 31
0.0
  0
LINE
  5
785
330
B3D
100
AcDbEntity
  8
Cuts
100
AcDbLine
 10
-293.0
 20
430.0
 30
0.0
 11
-293.0
 21
450.0
 31
0.0
  0
LINE
  5
786
330
B3D
100
AcDbEntity
  8
Cuts
100
AcDbLine
 10
-293.0
 20
470.0
 30
0.0
 11
-293.0
 21
490.0
 31
0.0
  0
LINE
  5
787
330
B3D
100
AcDbEntity
  8
Cuts
100
AcDbLine
 10
-293.0
 20
370.0
 30
0.0
 11
-300.0000000000001
 21
370.0
 31
0.0
  0
LINE
  5
788
330
B3D
100
AcDbEntity
  8
Cuts
100
AcDbLine
 10
-293.0
 20
410.0
 30
0.0
 11
-300.0
 21
410.0
 31
0.0
  0
LINE
  5
789
330
B3D
100
AcDbEntity
  8
Cuts
100
AcDbLine
 10
-293.0
 20
450.0
 30
0.0
 11
-300.0
 21
450.0
 31
0.0
  0
LINE
  5
78A
330
B3D
100
AcDbEntity
  8
Cuts
100
AcDbLine
 10
-293.0
 20
490.0
 30
0.0
 11
-300.0
 21
490.0
 31
0.0
  0
LINE
  5
78B
330
B3D
100
AcDbEntity
  8
Cuts
100
AcDbLine
 10
-300.0000000000001
 20
340.0
 30
0.0
 11
-300.0
 21
350.0
 31
0.0
  0
LINE
  5
78C
330
B3D
100
AcDbEntity
  8
Cuts
100
AcDbLine
 10
-300.0000000000001
 20
370.0
 30
0.0
 11
-300.0
 21
390.0
 31
0.0
  0
LINE
  5
78D
330
B3D
100
AcDbEntity
  8
Cuts
100
AcDbLine
 10
-300.0
 20
410.0
 30
0.0
 11
-300.0
 21
430.0
 31
0.0
  0
LINE
  5
78E
330
B3D
100
AcDbEntity
  8
Cuts
100
AcDbLine
 10
-300.0
 20
450.0
 30
0.0
 11
-300.0
 21
470.0
 31
0.0
  0
LINE
  5
78F
330
B3D
100
AcDbEntity
  8
Cuts
100
AcDbLine
 10
-300.0
 20
490.0
 30
0.0
 11
-300.0
 21
500.0
 31
0.0
  0
LINE
  5
8D9
330
B3D
100
AcDbEntity
  8
Cuts
100
AcDbLine
 10
-267.0
 20
350.0
 30
0.0
 11
-260.0
 21
350.0
 31
0.0
  0
LINE
  5
8DA
330
B3D
100
AcDbEntity
  8
Cuts
100
AcDbLine
 10
-267.0
 20
390.0
 30
0.0
 11
-260.0
 21
390.0
 31
0.0
  0
LINE
  5
8DB
330
B3D
100
AcDbEntity
  8
Cuts
100
AcDbLine
 10
-267.0
 20
430.0
 30
0.0
 11
-260.0
 21
430.0
 31
0.0
  0
LINE
  5
8DC
330
B3D
100
AcDbEntity
  8
Cuts
100
AcDbLine
 10
-267.0
 20
470.0
 30
0.0
 11
-260.0
 21
470.0
 31
0.0
  0
LINE
  5
8DD
330
B3D
100
AcDbEntity
  8
Cuts
100
AcDbLine
 10
-260.0
 20
350.0
 30
0.0
 11
-260.0
 21
370.0
 31
0.0
  0
LINE
  5
8DE
330
B3D
100
AcDbEntity
  8
Cuts
100
AcDbLine
 10
-260.0
 20
390.0
 30
0.0
 11
-260.0
 21
410.0
 31
0.0
  0
LINE
  5
8DF
330
B3D
100
AcDbEntity
  8
Cuts
100
AcDbLine
 10
-260.0
 20
430.0
 30
0.0
 11
-260.0
 21
450.0
 31
0.0
  0
LINE
  5
8E0
330
B3D
100
AcDbEntity
  8
Cuts
100
AcDbLine
 10
-260.0
 20
470.0
 30
0.0
 11
-260.0
 21
490.0
 31
0.0
  0
LINE
  5
8E1
330
B3D
100
AcDbEntity
  8
Cuts
100
AcDbLine
 10
-260.0
 20
370.0
 30
0.0
 11
-267.0000000000001
 21
370.0
 31
0.0
  0
LINE
  5
8E2
330
B3D
100
AcDbEntity
  8
Cuts
100
AcDbLine
 10
-260.0
 20
410.0
 30
0.0
 11
-267.0
 21
410.0
 31
0.0
  0
LINE
  5
8E3
330
B3D
100
AcDbEntity
  8
Cuts
100
AcDbLine
 10
-260.0
 20
450.0
 30
0.0
 11
-267.0
 21
450.0
 31
0.0
  0
LINE
  5
8E4
330
B3D
100
AcDbEntity
  8
Cuts
100
AcDbLine
 10
-260.0
 20
490.0
 30
0.0
 11
-267.0
 21
490.0
 31
0.0
  0
LINE
  5
8E5
330
B3D
100
AcDbEntity
  8
Cuts
100
AcDbLine
 10
-267.0000000000001
 20
340.0
 30
0.0
 11
-267.0
 21
350.0
 31
0.0
  0
LINE
  5
8E6
330
B3D
100
AcDbEntity
  8
Cuts
100
AcDbLine
 10
-267.0000000000001
 20
370.0
 30
0.0
 11
-267.0
 21
390.0
 31
0.0
  0
LINE
  5
8E7
330
B3D
100
AcDbEntity
  8
Cuts
100
AcDbLine
 10
-267.0
 20
410.0
 30
0.0
 11
-267.0
 21
430.0
 31
0.0
  0
LINE
  5
8E8
330
B3D
100
AcDbEntity
  8
Cuts
100
AcDbLine
 10
-267.0
 20
450.0
 30
0.0
 11
-267.0
 21
470.0
 31
0.0
  0
LINE
  5
8E9
330
B3D
100
AcDbEntity
  8
Cuts
100
AcDbLine
 10
-267.0
 20
490.0
 30
0.0
 11
-267.0
 21
500.0
 31
0.0
  0
LINE
  5
940
330
B3D
100
AcDbEntity
  8
Cuts
100
AcDbLine
 10
-647.0
 20
350.0000000000001
 30
0.0
 11
-640.0
 21
350.0000000000001
 31
0.0
  0
LINE
  5
941
330
B3D
100
AcDbEntity
  8
Cuts
100
AcDbLine
 10
-647.0
 20
390.0000000000001
 30
0.0
 11
-640.0
 21
390.0000000000001
 31
0.0
  0
LINE
  5
942
330
B3D
100
AcDbEntity
  8
Cuts
100
AcDbLine
 10
-647.0
 20
430.0000000000001
 30
0.0
 11
-640.0
 21
430.0000000000001
 31
0.0
  0
LINE
  5
943
330
B3D
100
AcDbEntity
  8
Cuts
100
AcDbLine
 10
-647.0
 20
470.0000000000001
 30
0.0
 11
-640.0
 21
470.0000000000001
 31
0.0
  0
LINE
  5
944
330
B3D
100
AcDbEntity
  8
Cuts
100
AcDbLine
 10
-640.0
 20
350.0000000000001
 30
0.0
 11
-640.0
 21
370.0000000000001
 31
0.0
  0
LINE
  5
945
330
B3D
100
AcDbEntity
  8
Cuts
100
AcDbLine
 10
-640.0
 20
390.0000000000001
 30
0.0
 11
-640.0
 21
410.0000000000001
 31
0.0
  0
LINE
  5
946
330
B3D
100
AcDbEntity
  8
Cuts
100
AcDbLine
 10
-640.0
 20
430.0000000000001
 30
0.0
 11
-640.0
 21
450.0000000000001
 31
0.0
  0
LINE
  5
947
330
B3D
100
AcDbEntity
  8
Cuts
100
AcDbLine
 10
-640.0
 20
470.0000000000001
 30
0.0
 11
-640.0
 21
490.0000000000001
 31
0.0
  0
LINE
  5
948
330
B3D
100
AcDbEntity
  8
Cuts
100
AcDbLine
 10
-640.0
 20
370.0000000000001
 30
0.0
 11
-647.0
 21
370.0000000000001
 31
0.0
  0
LINE
  5
949
330
B3D
100
AcDbEntity
  8
Cuts
100
AcDbLine
 10
-640.0
 20
410.0000000000001
 30
0.0
 11
-647.0
 21
410.0000000000001
 31
0.0
  0
LINE
  5
94A
330
B3D
100
AcDbEntity
  8
Cuts
100
AcDbLine
 10
-640.0
 20
450.0000000000001
 30
0.0
 11
-647.0
 21
450.0000000000001
 31
0.0
  0
LINE
  5
94B
330
B3D
100
AcDbEntity
  8
Cuts
100
AcDbLine
 10
-640.0
 20
490.0000000000001
 30
0.0
 11
-647.0
 21
490.0000000000001
 31
0.0
  0
LINE
  5
94C
330
B3D
100
AcDbEntity
  8
Cuts
100
AcDbLine
 10
-647.0
 20
340.0000000000001
 30
0.0
 11
-647.0
 21
350.0000000000001
 31
0.0
  0
LINE
  5
94D
330
B3D
100
AcDbEntity
  8
Cuts
100
AcDbLine
 10
-647.0
 20
370.0000000000001
 30
0.0
 11
-647.0
 21
390.0000000000001
 31
0.0
  0
LINE
  5
94E
330
B3D
100
AcDbEntity
  8
Cuts
100
AcDbLine
 10
-647.0
 20
410.0000000000001
 30
0.0
 11
-647.0
 21
430.0000000000001
 31
0.0
  0
LINE
  5
94F
330
B3D
100
AcDbEntity
  8
Cuts
100
AcDbLine
 10
-647.0
 20
450.0000000000001
 30
0.0
 11
-647.0
 21
470.0000000000001
 31
0.0
  0
LINE
  5
950
330
B3D
100
AcDbEntity
  8
Cuts
100
AcDbLine
 10
-647.0
 20
490.0000000000001
 30
0.0
 11
-647.0
 21
500.0000000000001
 31
0.0
  0
LINE
  5
98C
330
B3D
100
AcDbEntity
  8
Cuts
100
AcDbLine
 10
-300.0
 20
689.9999999999998
 30
0.0
 11
-293.0
 21
689.9999999999998
 31
0.0
  0
LINE
  5
98D
330
B3D
100
AcDbEntity
  8
Cuts
100
AcDbLine
 10
-300.0
 20
729.9999999999998
 30
0.0
 11
-293.0
 21
729.9999999999998
 31
0.0
  0
LINE
  5
98E
330
B3D
100
AcDbEntity
  8
Cuts
100
AcDbLine
 10
-300.0
 20
769.9999999999998
 30
0.0
 11
-293.0
 21
769.9999999999998
 31
0.0
  0
LINE
  5
98F
330
B3D
100
AcDbEntity
  8
Cuts
100
AcDbLine
 10
-300.0
 20
809.9999999999998
 30
0.0
 11
-293.0
 21
809.9999999999998
 31
0.0
  0
LINE
  5
990
330
B3D
100
AcDbEntity
  8
Cuts
100
AcDbLine
 10
-293.0
 20
689.9999999999998
 30
0.0
 11
-293.0
 21
709.9999999999998
 31
0.0
  0
LINE
  5
991
330
B3D
100
AcDbEntity
  8
Cuts
100
AcDbLine
 10
-293.0
 20
729.9999999999998
 30
0.0
 11
-293.0
 21
749.9999999999998
 31
0.0
  0
LINE
  5
992
330
B3D
100
AcDbEntity
  8
Cuts
100
AcDbLine
 10
-293.0
 20
769.9999999999998
 30
0.0
 11
-293.0
 21
789.9999999999998
 31
0.0
  0
LINE
  5
993
330
B3D
100
AcDbEntity
  8
Cuts
100
AcDbLine
 10
-293.0
 20
809.9999999999998
 30
0.0
 11
-293.0
 21
829.9999999999998
 31
0.0
  0
LINE
  5
994
330
B3D
100
AcDbEntity
  8
Cuts
100
AcDbLine
 10
-293.0
 20
709.9999999999998
 30
0.0
 11
-300.0000000000001
 21
709.9999999999998
 31
0.0
  0
LINE
  5
995
330
B3D
100
AcDbEntity
  8
Cuts
100
AcDbLine
 10
-293.0
 20
749.9999999999998
 30
0.0
 11
-300.0
 21
749.9999999999998
 31
0.0
  0
LINE
  5
996
330
B3D
100
AcDbEntity
  8
Cuts
100
AcDbLine
 10
-293.0
 20
789.9999999999998
 30
0.0
 11
-300.0
 21
789.9999999999998
 31
0.0
  0
LINE
  5
997
330
B3D
100
AcDbEntity
  8
Cuts
100
AcDbLine
 10
-293.0
 20
829.9999999999998
 30
0.0
 11
-300.0
 21
829.9999999999998
 31
0.0
  0
LINE
  5
998
330
B3D
100
AcDbEntity
  8
Cuts
100
AcDbLine
 10
-300.0000000000001
 20
679.9999999999998
 30
0.0
 11
-300.0
 21
689.9999999999998
 31
0.0
  0
LINE
  5
999
330
B3D
100
AcDbEntity
  8
Cuts
100
AcDbLine
 10
-300.0000000000001
 20
709.9999999999998
 30
0.0
 11
-300.0
 21
729.9999999999998
 31
0.0
  0
LINE
  5
99A
330
B3D
100
AcDbEntity
  8
Cuts
100
AcDbLine
 10
-300.0
 20
749.9999999999998
 30
0.0
 11
-300.0
 21
769.9999999999998
 31
0.0
  0
LINE
  5
99B
330
B3D
100
AcDbEntity
  8
Cuts
100
AcDbLine
 10
-300.0
 20
789.9999999999998
 30
0.0
 11
-300.0
 21
809.9999999999998
 31
0.0
  0
LINE
  5
99C
330
B3D
100
AcDbEntity
  8
Cuts
100
AcDbLine
 10
-300.0
 20
829.9999999999998
 30
0.0
 11
-300.0
 21
839.9999999999998
 31
0.0
  0
INSERT
  5
8C1
330
B3D
100
AcDbEntity
  8
Cuts
100
AcDbBlockReference
  2
IEC Mains Inlet
 10
-380.0
 20
560.0
 30
0.0
  0
CIRCLE
  5
99D
330
B3D
100
AcDbEntity
  8
Cuts
100
AcDbCircle
 10
-480.0
 20
480.0
 30
0.0
 40
4.0
  0
CIRCLE
  5
9A6
330
B3D
100
AcDbEntity
  8
Cuts
100
AcDbCircle
 10
-480.0
 20
460.0
 30
0.0
 40
4.0
  0
CIRCLE
  5
9AF
330
B3D
100
AcDbEntity
  8
Cuts
100
AcDbCircle
 10
-480.0
 20
440.0
 30
0.0
 40
4.0
  0
CIRCLE
  5
9B8
330
B3D
100
AcDbEntity
  8
Cuts
100
AcDbCircle
 10
-480.0
 20
420.0
 30
0.0
 40
4.0
  0
CIRCLE
  5
99E
330
B3D
100
AcDbEntity
  8
Cuts
100
AcDbCircle
 10
-460.0
 20
480.0
 30
0.0
 40
4.0
  0
CIRCLE
  5
9A7
330
B3D
100
AcDbEntity
  8
Cuts
100
AcDbCircle
 10
-460.0
 20
460.0
 30
0.0
 40
4.0
  0
CIRCLE
  5
9B0
330
B3D
100
AcDbEntity
  8
Cuts
100
AcDbCircle
 10
-460.0
 20
440.0
 30
0.0
 40
4.0
  0
CIRCLE
  5
9B9
330
B3D
100
AcDbEntity
  8
Cuts
100
AcDbCircle
 10
-460.0
 20
420.0
 30
0.0
 40
4.0
  0
CIRCLE
  5
99F
330
B3D
100
AcDbEntity
  8
Cuts
100
AcDbCircle
 10
-440.0
 20
480.0
 30
0.0
 40
4.0
  0
CIRCLE
  5
9A8
330
B3D
100
AcDbEntity
  8
Cuts
100
AcDbCircle
 10
-440.0
 20
460.0
 30
0.0
 40
4.0
  0
CIRCLE
  5
9B1
330
B3D
100
AcDbEntity
  8
Cuts
100
AcDbCircle
 10
-440.0
 20
440.0
 30
0.0
 40
4.0
  0
CIRCLE
  5
9BA
330
B3D
100
AcDbEntity
  8
Cuts
100
AcDbCircle
 10
-440.0
 20
420.0
 30
0.0
 40
4.0
  0
CIRCLE
  5
9A0
330
B3D
100
AcDbEntity
  8
Cuts
100
AcDbCircle
 10
-420.0
 20
480.0
 30
0.0
 40
4.0
  0
CIRCLE
  5
9A9
330
B3D
100
AcDbEntity
  8
Cuts
100
AcDbCircle
 10
-420.0
 20
460.0
 30
0.0
 40
4.0
  0
CIRCLE
  5
9B2
330
B3D
100
AcDbEntity
  8
Cuts
100
AcDbCircle
 10
-420.0
 20
440.0
 30
0.0
 40
4.0
  0
CIRCLE
  5
9BB
330
B3D
100
AcDbEntity
  8
Cuts
100
AcDbCircle
 10
-420.0
 20
420.0
 30
0.0
 40
4.0
  0
CIRCLE
  5
9A1
330
B3D
100
AcDbEntity
  8
Cuts
100
AcDbCircle
 10
-400.0
 20
480.0
 30
0.0
 40
4.0
  0
CIRCLE
  5
9AA
330
B3D
100
AcDbEntity
  8
Cuts
100
AcDbCircle
 10
-400.0
 20
460.0
 30
0.0
 40
4.0
  0
CIRCLE
  5
9B3
330
B3D
100
AcDbEntity
  8
Cuts
100
AcDbCircle
 10
-400.0
 20
440.0
 30
0.0
 40
4.0
  0
CIRCLE
  5
9BC
330
B3D
100
AcDbEntity
  8
Cuts
100
AcDbCircle
 10
-400.0
 20
420.0
 30
0.0
 40
4.0
  0
CIRCLE
  5
9A2
330
B3D
100
AcDbEntity
  8
Cuts
100
AcDbCircle
 10
-380.0
 20
480.0
 30
0.0
 40
4.0
  0
CIRCLE
  5
9AB
330
B3D
100
AcDbEntity
  8
Cuts
100
AcDbCircle
 10
-380.0
 20
460.0
 30
0.0
 40
4.0
  0
CIRCLE
  5
9B4
330
B3D
100
AcDbEntity
  8
Cuts
100
AcDbCircle
 10
-380.0
 20
440.0
 30
0.0
 40
4.0
  0
CIRCLE
  5
9BD
330
B3D
100
AcDbEntity
  8
Cuts
100
AcDbCircle
 10
-380.0
 20
420.0
 30
0.0
 40
4.0
  0
CIRCLE
  5
9A3
330
B3D
100
AcDbEntity
  8
Cuts
100
AcDbCircle
 10
-360.0
 20
480.0
 30
0.0
 40
4.0
  0
CIRCLE
  5
9AC
330
B3D
100
AcDbEntity
  8
Cuts
100
AcDbCircle
 10
-360.0
 20
460.0
 30
0.0
 40
4.0
  0
CIRCLE
  5
9B5
330
B3D
100
AcDbEntity
  8
Cuts
100
AcDbCircle
 10
-360.0
 20
440.0
 30
0.0
 40
4.0
  0
CIRCLE
  5
9BE
330
B3D
100
AcDbEntity
  8
Cuts
100
AcDbCircle
 10
-360.0
 20
420.0
 30
0.0
 40
4.0
  0
CIRCLE
  5
9CA
330
B3D
100
AcDbEntity
  8
Cuts
100
AcDbCircle
 10
-240.0
 20
480.0
 30
0.0
 40
4.0
  0
CIRCLE
  5
9CB
330
B3D
100
AcDbEntity
  8
Cuts
100
AcDbCircle
 10
-240.0
 20
460.0
 30
0.0
 40
4.0
  0
CIRCLE
  5
9CC
330
B3D
100
AcDbEntity
  8
Cuts
100
AcDbCircle
 10
-240.0
 20
440.0
 30
0.0
 40
4.0
  0
CIRCLE
  5
9CD
330
B3D
100
AcDbEntity
  8
Cuts
100
AcDbCircle
 10
-240.0
 20
420.0
 30
0.0
 40
4.0
  0
CIRCLE
  5
9DE
330
B3D
100
AcDbEntity
  8
Cuts
100
AcDbCircle
 10
-620.0
 20
480.0
 30
0.0
 40
4.0
  0
CIRCLE
  5
9DF
330
B3D
100
AcDbEntity
  8
Cuts
100
AcDbCircle
 10
-620.0
 20
460.0
 30
0.0
 40
4.0
  0
CIRCLE
  5
9E0
330
B3D
100
AcDbEntity
  8
Cuts
100
AcDbCircle
 10
-620.0
 20
440.0
 30
0.0
 40
4.0
  0
CIRCLE
  5
9E1
330
B3D
100
AcDbEntity
  8
Cuts
100
AcDbCircle
 10
-620.0
 20
420.0
 30
0.0
 40
4.0
  0
CIRCLE
  5
9A4
330
B3D
100
AcDbEntity
  8
Cuts
100
AcDbCircle
 10
-340.0
 20
480.0
 30
0.0
 40
4.0
  0
CIRCLE
  5
9AD
330
B3D
100
AcDbEntity
  8
Cuts
100
AcDbCircle
 10
-340.0
 20
460.0
 30
0.0
 40
4.0
  0
CIRCLE
  5
9B6
330
B3D
100
AcDbEntity
  8
Cuts
100
AcDbCircle
 10
-340.0
 20
440.0
 30
0.0
 40
4.0
  0
CIRCLE
  5
9BF
330
B3D
100
AcDbEntity
  8
Cuts
100
AcDbCircle
 10
-340.0
 20
420.0
 30
0.0
 40
4.0
  0
CIRCLE
  5
9CF
330
B3D
100
AcDbEntity
  8
Cuts
100
AcDbCircle
 10
-220.0
 20
480.0
 30
0.0
 40
4.0
  0
CIRCLE
  5
9D0
330
B3D
100
AcDbEntity
  8
Cuts
100
AcDbCircle
 10
-220.0
 20
460.0
 30
0.0
 40
4.0
  0
CIRCLE
  5
9D1
330
B3D
100
AcDbEntity
  8
Cuts
100
AcDbCircle
 10
-220.0
 20
440.0
 30
0.0
 40
4.0
  0
CIRCLE
  5
9D2
330
B3D
100
AcDbEntity
  8
Cuts
100
AcDbCircle
 10
-220.0
 20
420.0
 30
0.0
 40
4.0
  0
CIRCLE
  5
9E3
330
B3D
100
AcDbEntity
  8
Cuts
100
AcDbCircle
 10
-600.0
 20
480.0
 30
0.0
 40
4.0
  0
CIRCLE
  5
9E4
330
B3D
100
AcDbEntity
  8
Cuts
100
AcDbCircle
 10
-600.0
 20
460.0
 30
0.0
 40
4.0
  0
CIRCLE
  5
9E5
330
B3D
100
AcDbEntity
  8
Cuts
100
AcDbCircle
 10
-600.0
 20
440.0
 30
0.0
 40
4.0
  0
CIRCLE
  5
9E6
330
B3D
100
AcDbEntity
  8
Cuts
100
AcDbCircle
 10
-600.0
 20
420.0
 30
0.0
 40
4.0
  0
CIRCLE
  5
9A5
330
B3D
100
AcDbEntity
  8
Cuts
100
AcDbCircle
 10
-320.0
 20
480.0
 30
0.0
 40
4.0
  0
CIRCLE
  5
9AE
330
B3D
100
AcDbEntity
  8
Cuts
100
AcDbCircle
 10
-320.0
 20
460.0
 30
0.0
 40
4.0
  0
CIRCLE
  5
9B7
330
B3D
100
AcDbEntity
  8
Cuts
100
AcDbCircle
 10
-320.0
 20
440.0
 30
0.0
 40
4.0
  0
CIRCLE
  5
9C0
330
B3D
100
AcDbEntity
  8
Cuts
100
AcDbCircle
 10
-320.0
 20
420.0
 30
0.0
 40
4.0
  0
CIRCLE
  5
9D4
330
B3D
100
AcDbEntity
  8
Cuts
100
AcDbCircle
 10
-200.0
 20
480.0
 30
0.0
 40
4.0
  0
CIRCLE
  5
9D5
330
B3D
100
AcDbEntity
  8
Cuts
100
AcDbCircle
 10
-200.0
 20
460.0
 30
0.0
 40
4.0
  0
CIRCLE
  5
9D6
330
B3D
100
AcDbEntity
  8
Cuts
100
AcDbCircle
 10
-200.0
 20
440.0
 30
0.0
 40
4.0
  0
CIRCLE
  5
9D7
330
B3D
100
AcDbEntity
  8
Cuts
100
AcDbCircle
 10
-200.0
 20
420.0
 30
0.0
 40
4.0
  0
CIRCLE
  5
9D9
330
B3D
100
AcDbEntity
  8
Cuts
100
AcDbCircle
 10
-180.0
 20
480.0
 30
0.0
 40
4.0
  0
CIRCLE
  5
9DA
330
B3D
100
AcDbEntity
  8
Cuts
100
AcDbCircle
 10
-180.0
 20
460.0
 30
0.0
 40
4.0
  0
CIRCLE
  5
9DB
330
B3D
100
AcDbEntity
  8
Cuts
100
AcDbCircle
 10
-180.0
 20
440.0
 30
0.0
 40
4.0
  0
CIRCLE
  5
9DC
330
B3D
100
AcDbEntity
  8
Cuts
100
AcDbCircle
 10
-180.0
 20
420.0
 30
0.0
 40
4.0
  0
CIRCLE
  5
9E8
330
B3D
100
AcDbEntity
  8
Cuts
100
AcDbCircle
 10
-580.0
 20
480.0
 30
0.0
 40
4.0
  0
CIRCLE
  5
9E9
330
B3D
100
AcDbEntity
  8
Cuts
100
AcDbCircle
 10
-580.0
 20
460.0
 30
0.0
 40
4.0
  0
CIRCLE
  5
9EA
330
B3D
100
AcDbEntity
  8
Cuts
100
AcDbCircle
 10
-580.0
 20
440.0
 30
0.0
 40
4.0
  0
CIRCLE
  5
9EB
330
B3D
100
AcDbEntity
  8
Cuts
100
AcDbCircle
 10
-580.0
 20
420.0
 30
0.0
 40
4.0
  0
CIRCLE
  5
9ED
330
B3D
100
AcDbEntity
  8
Cuts
100
AcDbCircle
 10
-560.0
 20
480.0
 30
0.0
 40
4.0
  0
CIRCLE
  5
9EE
330
B3D
100
AcDbEntity
  8
Cuts
100
AcDbCircle
 10
-560.0
 20
460.0
 30
0.0
 40
4.0
  0
CIRCLE
  5
9EF
330
B3D
100
AcDbEntity
  8
Cuts
100
AcDbCircle
 10
-560.0
 20
440.0
 30
0.0
 40
4.0
  0
CIRCLE
  5
9F0
330
B3D
100
AcDbEntity
  8
Cuts
100
AcDbCircle
 10
-560.0
 20
420.0
 30
0.0
 40
4.0
  0
LINE
  5
AC2
330
B3D
100
AcDbEntity
  8
Outline
100
AcDbLine
 10
220.5
 20
295.0
 30
0.0
 11
379.5
 21
295.0
 31
0.0
  0
LINE
  5
AC3
330
B3D
100
AcDbEntity
  8
Outline
100
AcDbLine
 10
379.5
 20
295.0
 30
0.0
 11
379.5
 21
505.0
 31
0.0
  0
LINE
  5
AC4
330
B3D
100
AcDbEntity
  8
Outline
100
AcDbLine
 10
379.5
 20
505.0
 30
0.0
 11
220.5
 21
505.0
 31
0.0
  0
LINE
  5
AC5
330
B3D
100
AcDbEntity
  8
Outline
100
AcDbLine
 10
220.5
 20
505.0
 30
0.0
 11
220.5
 21
295.0
 31
0.0
  0
CIRCLE
  5
ACA
330
B3D
100
AcDbEntity
  8
Outline
100
AcDbCircle
 10
226.975
 20
498.425
 30
0.0
 40
1.5
  0
CIRCLE
  5
ACB
330
B3D
100
AcDbEntity
  8
Outline
100
AcDbCircle
 10
373.025
 20
498.425
 30
0.0
 40
1.5
  0
CIRCLE
  5
ACC
330
B3D
100
AcDbEntity
  8
Outline
100
AcDbCircle
 10
373.025
 20
301.575
 30
0.0
 40
1.5
  0
CIRCLE
  5
ACD
330
B3D
100
AcDbEntity
  8
Outline
100
AcDbCircle
 10
226.975
 20
301.575
 30
0.0
 40
1.5
  0
LINE
  5
ACE
330
B3D
100
AcDbEntity
  8
Outline
100
AcDbLine
 10
440.0
 20
306.5
 30
0.0
 11
560.0
 21
306.5
 31
0.0
  0
LINE
  5
ACF
330
B3D
100
AcDbEntity
  8
Outline
100
AcDbLine
 10
560.0
 20
306.5
 30
0.0
 11
560.0
 21
493.5
 31
0.0
  0
LINE
  5
AD0
330
B3D
100
AcDbEntity
  8
Outline
100
AcDbLine
 10
560.0
 20
493.5
 30
0.0
 11
440.0
 21
493.5
 31
0.0
  0
LINE
  5
AD1
330
B3D
100
AcDbEntity
  8
Outline
100
AcDbLine
 10
440.0
 20
493.5
 30
0.0
 11
440.0
 21
306.5
 31
0.0
  0
LINE
  5
AE9
330
B3D
100
AcDbEntity
  8
Outline
100
AcDbLine
 10
123.0000000000001
 20
500.0000000000001
 30
0.0
 11
120.0000000000001
 21
500.0000000000001
 31
0.0
  0
LINE
  5
AEA
330
B3D
100
AcDbEntity
  8
Outline
100
AcDbLine
 10
200.0
 20
500.0
 30
0.0
 11
126.0000000000001
 21
500.0000000000001
 31
0.0
  0
LINE
  5
AFA
330
B3D
100
AcDbEntity
  8
Outline
100
AcDbLine
 10
-486.9999999999999
 20
490.0000000000001
 30
0.0
 11
-489.9999999999999
 21
490.0000000000001
 31
0.0
  0
LINE
  5
AFB
330
B3D
100
AcDbEntity
  8
Outline
100
AcDbLine
 10
-410.0
 20
490.0
 30
0.0
 11
-483.9999999999999
 21
490.0000000000001
 31
0.0
  0
LINE
  5
B03
330
B3D
100
AcDbEntity
  8
Outline
100
AcDbLine
 10
-386.9999999999999
 20
490.0000000000001
 30
0.0
 11
-389.9999999999999
 21
490.0000000000001
 31
0.0
  0
LINE
  5
B04
330
B3D
100
AcDbEntity
  8
Outline
100
AcDbLine
 10
-310.0
 20
490.0
 30
0.0
 11
-383.9999999999999
 21
490.0000000000001
 31
0.0
  0
LINE
  5
AD3
330
B3D
100
AcDbEntity
  8
Outline
100
AcDbLine
 10
120.0000000000001
 20
500.0000000000001
 30
0.0
 11
120.0
 21
380.0
 31
0.0
  0
LINE
  5
AFC
330
B3D
100
AcDbEntity
  8
Outline
100
AcDbLine
 10
-489.9999999999999
 20
490.0000000000001
 30
0.0
 11
-490.0
 21
370.0
 31
0.0
  0
LINE
  5
B05
330
B3D
100
AcDbEntity
  8
Outline
100
AcDbLine
 10
-389.9999999999999
 20
490.0000000000001
 30
0.0
 11
-390.0
 21
370.0
 31
0.0
  0
LINE
  5
AD4
330
B3D
100
AcDbEntity
  8
Outline
100
AcDbLine
 10
120.0
 20
380.0
 30
0.0
 11
200.0
 21
380.0
 31
0.0
  0
LINE
  5
AFD
330
B3D
100
AcDbEntity
  8
Outline
100
AcDbLine
 10
-490.0
 20
370.0
 30
0.0
 11
-410.0
 21
370.0
 31
0.0
  0
LINE
  5
B06
330
B3D
100
AcDbEntity
  8
Outline
100
AcDbLine
 10
-390.0
 20
370.0
 30
0.0
 11
-310.0
 21
370.0
 31
0.0
  0
LINE
  5
AD5
330
B3D
100
AcDbEntity
  8
Outline
100
AcDbLine
 10
200.0
 20
380.0
 30
0.0
 11
200.0
 21
500.0
 31
0.0
  0
LINE
  5
AFE
330
B3D
100
AcDbEntity
  8
Outline
100
AcDbLine
 10
-410.0
 20
370.0
 30
0.0
 11
-410.0
 21
490.0
 31
0.0
  0
LINE
  5
B07
330
B3D
100
AcDbEntity
  8
Outline
100
AcDbLine
 10
-310.0
 20
370.0
 30
0.0
 11
-310.0
 21
490.0
 31
0.0
  0
ARC
  5
AE2
330
B3D
100
AcDbEntity
  8
Outline
100
AcDbCircle
 10
124.5
 20
497.0
 30
0.0
 40
1.5
100
AcDbArc
 50
180.0
 51
0.0
  0
ARC
  5
AFF
330
B3D
100
AcDbEntity
  8
Outline
100
AcDbCircle
 10
-485.5
 20
487.0
 30
0.0
 40
1.5
100
AcDbArc
 50
180.0
 51
0.0
  0
ARC
  5
B08
330
B3D
100
AcDbEntity
  8
Outline
100
AcDbCircle
 10
-385.5
 20
487.0
 30
0.0
 40
1.5
100
AcDbArc
 50
180.0
 51
0.0
  0
CIRCLE
  5
ADD
330
B3D
100
AcDbEntity
  8
Outline
100
AcDbCircle
 10
195.5
 20
385.5
 30
0.0
 40
1.5
  0
CIRCLE
  5
B00
330
B3D
100
AcDbEntity
  8
Outline
100
AcDbCircle
 10
-414.5
 20
375.5
 30
0.0
 40
1.5
  0
CIRCLE
  5
B09
330
B3D
100
AcDbEntity
  8
Outline
100
AcDbCircle
 10
-314.5
 20
375.5
 30
0.0
 40
1.5
  0
LINE
  5
AE6
330
B3D
100
AcDbEntity
  8
Outline
100
AcDbLine
 10
126.0000000000001
 20
500.0000000000001
 30
0.0
 11
126.0000000000001
 21
497.0
 31
0.0
  0
LINE
  5
B01
330
B3D
100
AcDbEntity
  8
Outline
100
AcDbLine
 10
-483.9999999999999
 20
490.0000000000001
 30
0.0
 11
-483.9999999999999
 21
487.0
 31
0.0
  0
LINE
  5
B0A
330
B3D
100
AcDbEntity
  8
Outline
100
AcDbLine
 10
-383.9999999999999
 20
490.0000000000001
 30
0.0
 11
-383.9999999999999
 21
487.0
 31
0.0
  0
LINE
  5
AE4
330
B3D
100
AcDbEntity
  8
Outline
100
AcDbLine
 10
123.0000000000001
 20
500.0000000000001
 30
0.0
 11
123.0000000000001
 21
497.0
 31
0.0
  0
LINE
  5
B02
330
B3D
100
AcDbEntity
  8
Outline
100
AcDbLine
 10
-486.9999999999999
 20
490.0000000000001
 30
0.0
 11
-486.9999999999999
 21
487.0
 31
0.0
  0
LINE
  5
B0B
330
B3D
100
AcDbEntity
  8
Outline
100
AcDbLine
 10
-386.9999999999999
 20
490.0000000000001
 30
0.0
 11
-386.9999999999999
 21
487.0
 31
0.0
  0
LINE
  5
AEC
330
B3D
100
AcDbEntity
  8
Outline
100
AcDbLine
 10
130.0
 20
305.0
 30
0.0
 11
190.0
 21
305.0
 31
0.0
  0
LINE
  5
AED
330
B3D
100
AcDbEntity
  8
Outline
100
AcDbLine
 10
190.0
 20
305.0
 30
0.0
 11
190.0
 21
355.0
 31
0.0
  0
LINE
  5
AEE
330
B3D
100
AcDbEntity
  8
Outline
100
AcDbLine
 10
190.0
 20
355.0
 30
0.0
 11
130.0
 21
355.0
 31
0.0
  0
LINE
  5
AEF
330
B3D
100
AcDbEntity
  8
Outline
100
AcDbLine
 10
130.0
 20
355.0
 30
0.0
 11
130.0
 21
305.0
 31
0.0
  0
CIRCLE
  5
AF4
330
B3D
100
AcDbEntity
  8
Outline
100
AcDbCircle
 10
135.0
 20
350.0
 30
0.0
 40
1.5
  0
CIRCLE
  5
AF5
330
B3D
100
AcDbEntity
  8
Outline
100
AcDbCircle
 10
135.0
 20
310.0
 30
0.0
 40
1.5
  0
CIRCLE
  5
AF6
330
B3D
100
AcDbEntity
  8
Outline
100
AcDbCircle
 10
185.0
 20
350.0
 30
0.0
 40
1.5
  0
CIRCLE
  5
AF7
330
B3D
100
AcDbEntity
  8
Outline
100
AcDbCircle
 10
185.0
 20
310.0
 30
0.0
 40
1.5
  0
LINE
  5
AF8
330
B3D
100
AcDbEntity
  8
Outline
100
AcDbLine
 10
140.0
 20
355.0
 30
0.0
 11
140.0
 21
305.0
 31
0.0
  0
LINE
  5
AF9
330
B3D
100
AcDbEntity
  8
Outline
100
AcDbLine
 10
180.0
 20
305.0
 30
0.0
 11
180.0
 21
355.0
 31
0.0
  0
LINE
  5
B0C
330
B3D
100
AcDbEntity
  8
Outline
100
AcDbLine
 10
101.5
 20
295.0
 30
0.0
 11
398.5
 21
295.0
 31
0.0
  0
LINE
  5
B0D
330
B3D
100
AcDbEntity
  8
Outline
100
AcDbLine
 10
398.5
 20
295.0
 30
0.0
 11
398.5
 21
505.0
 31
0.0
  0
LINE
  5
B0E
330
B3D
100
AcDbEntity
  8
Outline
100
AcDbLine
 10
398.5
 20
505.0
 30
0.0
 11
101.5
 21
505.0
 31
0.0
  0
LINE
  5
B0F
330
B3D
100
AcDbEntity
  8
Outline
100
AcDbLine
 10
101.5
 20
505.0
 30
0.0
 11
101.5
 21
295.0
 31
0.0
  0
LINE
  5
B10
330
B3D
100
AcDbEntity
  8
Cuts
100
AcDbLine
 10
100.0
 20
290.0
 30
0.0
 11
400.0
 21
290.0
 31
0.0
  0
LINE
  5
B11
330
B3D
100
AcDbEntity
  8
Cuts
100
AcDbLine
 10
400.0
 20
290.0
 30
0.0
 11
400.0
 21
510.0
 31
0.0
  0
LINE
  5
B12
330
B3D
100
AcDbEntity
  8
Cuts
100
AcDbLine
 10
400.0
 20
510.0
 30
0.0
 11
100.0
 21
510.0
 31
0.0
  0
LINE
  5
B13
330
B3D
100
AcDbEntity
  8
Cuts
100
AcDbLine
 10
100.0
 20
510.0
 30
0.0
 11
100.0
 21
290.0
 31
0.0
  0
LINE
  5
B14
330
B3D
100
AcDbEntity
  8
Cuts
100
AcDbLine
 10
420.0
 20
510.0
 30
0.0
 11
580.0
 21
510.0
 31
0.0
  0
LINE
  5
B15
330
B3D
100
AcDbEntity
  8
Cuts
100
AcDbLine
 10
580.0
 20
510.0
 30
0.0
 11
580.0
 21
290.0
 31
0.0
  0
LINE
  5
B16
330
B3D
100
AcDbEntity
  8
Cuts
100
AcDbLine
 10
580.0
 20
290.0
 30
0.0
 11
420.0
 21
290.0
 31
0.0
  0
LINE
  5
B17
330
B3D
100
AcDbEntity
  8
Cuts
100
AcDbLine
 10
420.0
 20
290.0
 30
0.0
 11
420.0
 21
510.0
 31
0.0
  0
LINE
  5
B1C
330
B3D
100
AcDbEntity
  8
Cuts
100
AcDbLine
 10
439.0
 20
305.5
 30
0.0
 11
561.0
 21
305.5
 31
0.0
  0
LINE
  5
B1D
330
B3D
100
AcDbEntity
  8
Cuts
100
AcDbLine
 10
561.0
 20
305.5
 30
0.0
 11
561.0
 21
494.5
 31
0.0
  0
LINE
  5
B1E
330
B3D
100
AcDbEntity
  8
Cuts
100
AcDbLine
 10
561.0
 20
494.5
 30
0.0
 11
439.0
 21
494.5
 31
0.0
  0
LINE
  5
B1F
330
B3D
100
AcDbEntity
  8
Cuts
100
AcDbLine
 10
439.0
 20
494.5
 30
0.0
 11
439.0
 21
305.5
 31
0.0
  0
VIEWPORT
  5
BEB
330
B39
100
AcDbEntity
 67
     1
  8
0
100
AcDbViewport
 10
128.5
 20
97.5
 30
0.0
 40
314.226
 41
222.18
 68
     1
 69
     1
 12
128.5
 22
97.5
 13
0.0
 23
0.0
 14
10.0
 24
10.0
 15
10.0
 25
10.0
 16
0.0
 26
0.0
 36
1.0
 17
0.0
 27
0.0
 37
0.0
 42
50.0
 43
0.0
 44
0.0
 45
222.18
 50
0.0
 51
0.0
 72
   100
 90
   557152
  1

281
     0
 71
     1
 74
     0
110
0.0
120
0.0
130
0.0
111
1.0
121
0.0
131
0.0
112
0.0
122
1.0
132
0.0
 79
     0
146
0.0
170
     0
 61
     5
348
B4D
292
     1
282
     1
141
0.0
142
0.0
 63
   256
361
BEC
  0
ENDSEC
  0
SECTION
  2
OBJECTS
  0
DICTIONARY
  5
B2B
330
0
100
AcDbDictionary
281
     1
  3
ACAD_DETAILVIEWSTYLE
350
BF8
  3
ACAD_GROUP
350
B2C
  3
ACAD_LAYOUT
350
B38
  3
ACAD_MATERIAL
350
B61
  3
ACAD_MLEADERSTYLE
350
B79
  3
ACAD_MLINESTYLE
350
B35
  3
ACAD_PLOTSETTINGS
350
B37
  3
ACAD_PLOTSTYLENAME
350
B2D
  3
ACAD_SCALELIST
350
B65
  3
ACAD_SECTIONVIEWSTYLE
350
BF9
  3
ACAD_TABLESTYLE
350
B77
  3
ACAD_VISUALSTYLE
350
B48
  3
ACDB_RECOMPOSE_DATA
350
BF5
  3
AcDbVariableDictionary
350
BF1
  3
QCAD_OBJECTS
350
B7D
  0
SUN
  5
B7B
330
B47
100
AcDbSun
 90
        1
290
     0
 63
     7
421
 16777215
 40
1.0
291
     1
 91
  2455826
 92
 54000000
292
     0
 70
     2
 71
   256
280
     1
  0
SUN
  5
BEC
330
BEB
100
AcDbSun
 90
        1
290
     0
 63
     7
421
 16777215
 40
1.0
291
     1
 91
  2455826
 92
 54000000
292
     0
 70
     2
 71
   256
280
     1
  0
DICTIONARY
  5
BF8
102
{ACAD_REACTORS
330
B2B
102
}
330
B2B
100
AcDbDictionary
281
     1
  0
DICTIONARY
  5
B2C
102
{ACAD_REACTORS
330
B2B
102
}
330
B2B
100
AcDbDictionary
281
     1
  0
DICTIONARY
  5
B38
102
{ACAD_REACTORS
330
B2B
102
}
330
B2B
100
AcDbDictionary
281
     1
  3
Layout1
350
B3C
  3
Model
350
B40
  0
DICTIONARY
  5
B61
102
{ACAD_REACTORS
330
B2B
102
}
330
B2B
100
AcDbDictionary
281
     1
  3
ByBlock
350
B63
  3
ByLayer
350
B62
  3
Global
350
B64
  0
DICTIONARY
  5
B79
102
{ACAD_REACTORS
330
B2B
102
}
330
B2B
100
AcDbDictionary
281
     1
  3
Standard
350
B7A
  0
DICTIONARY
  5
B35
102
{ACAD_REACTORS
330
B2B
102
}
330
B2B
100
AcDbDictionary
281
     1
  3
Standard
350
B36
  0
DICTIONARY
  5
B37
102
{ACAD_REACTORS
330
B2B
102
}
330
B2B
100
AcDbDictionary
281
     1
  0
ACDBDICTIONARYWDFLT
  5
B2D
102
{ACAD_REACTORS
330
B2B
102
}
330
B2B
100
AcDbDictionary
281
     1
  3
Normal
350
B2E
100
AcDbDictionaryWithDefault
340
B2E
  0
DICTIONARY
  5
B65
102
{ACAD_REACTORS
330
B2B
102
}
330
B2B
100
AcDbDictionary
281
     1
  3
A0
350
B66
  3
A1
350
B67
  3
A2
350
B68
  3
A3
350
B69
  3
A4
350
B6A
  3
A5
350
B6B
  3
A6
350
B6C
  3
A7
350
B6D
  3
A8
350
B6E
  3
A9
350
B6F
  3
B1
350
B70
  3
B2
350
B71
  3
B3
350
B72
  3
B4
350
B73
  3
B5
350
B74
  3
B6
350
B75
  3
B7
350
B76
  0
DICTIONARY
  5
BF9
102
{ACAD_REACTORS
330
B2B
102
}
330
B2B
100
AcDbDictionary
281
     1
  0
DICTIONARY
  5
B77
102
{ACAD_REACTORS
330
B2B
102
}
330
B2B
100
AcDbDictionary
281
     1
  3
Standard
350
B78
  0
DICTIONARY
  5
B48
102
{ACAD_REACTORS
330
B2B
102
}
330
B2B
100
AcDbDictionary
281
     1
  3
2dWireframe
350
B4D
  3
Basic
350
B50
  3
Brighten
350
B54
  3
ColorChange
350
B58
  3
Conceptual
350
B52
  3
Dim
350
B53
  3
EdgeColorOff
350
B5B
  3
Facepattern
350
B57
  3
Flat
350
B49
  3
FlatWithEdges
350
B4A
  3
Gouraud
350
B4B
  3
GouraudWithEdges
350
B4C
  3
Hidden
350
B4F
  3
JitterOff
350
B59
  3
Linepattern
350
B56
  3
OverhangOff
350
B5A
  3
Realistic
350
B51
  3
Shaded
350
B60
  3
Shaded with edges
350
B5F
  3
Shades of Gray
350
B5C
  3
Sketchy
350
B5D
  3
Thicken
350
B55
  3
Wireframe
350
B4E
  3
X-Ray
350
B5E
  0
XRECORD
  5
BF5
102
{ACAD_REACTORS
330
B2B
102
}
330
B2B
100
AcDbXrecord
280
     1
 90
        1
330
B78
  0
DICTIONARY
  5
BF1
102
{ACAD_REACTORS
330
B2B
102
}
330
B2B
100
AcDbDictionary
281
     1
  3
CANNOSCALE
350
BF2
  3
CMLEADERSTYLE
350
BF7
  3
CTABLESTYLE
350
BF6
  0
DICTIONARY
  5
B7D
102
{ACAD_REACTORS
330
B2B
102
}
330
B2B
100
AcDbDictionary
281
     1
  3
ColorSettings/BackgroundColor
350
B7F
  3
ColorSettings/ColorMode
350
B80
  3
Grid/DisplayGrid00
350
B81
  3
Grid/DisplayGrid01
350
B82
  3
Grid/DisplayGrid02
350
B83
  3
Grid/DisplayGrid03
350
B84
  3
Grid/GridSpacingX00
350
B85
  3
Grid/GridSpacingX01
350
B86
  3
Grid/GridSpacingX02
350
B87
  3
Grid/GridSpacingX03
350
B88
  3
Grid/GridSpacingY00
350
B89
  3
Grid/GridSpacingY01
350
B8A
  3
Grid/GridSpacingY02
350
B8B
  3
Grid/GridSpacingY03
350
B8C
  3
Grid/IsometricGrid00
350
B8D
  3
Grid/IsometricGrid01
350
B8E
  3
Grid/IsometricGrid02
350
B8F
  3
Grid/IsometricGrid03
350
B90
  3
Grid/IsometricProjection00
350
B91
  3
Grid/IsometricProjection01
350
B92
  3
Grid/IsometricProjection02
350
B93
  3
Grid/IsometricProjection03
350
B94
  3
Grid/MetaGridSpacingX00
350
B95
  3
Grid/MetaGridSpacingX01
350
B96
  3
Grid/MetaGridSpacingX02
350
B97
  3
Grid/MetaGridSpacingX03
350
B98
  3
Grid/MetaGridSpacingY00
350
B99
  3
Grid/MetaGridSpacingY01
350
B9A
  3
Grid/MetaGridSpacingY02
350
B9B
  3
Grid/MetaGridSpacingY03
350
B9C
  3
MultiPageSettings/Columns
350
B9D
  3
MultiPageSettings/GlueMarginsBottom
350
B9E
  3
MultiPageSettings/GlueMarginsLeft
350
B9F
  3
MultiPageSettings/GlueMarginsRight
350
BA0
  3
MultiPageSettings/GlueMarginsTop
350
BA1
  3
MultiPageSettings/PrintCropMarks
350
BA2
  3
MultiPageSettings/Rows
350
BA3
  3
PageSettings/OffsetX
350
BA4
  3
PageSettings/OffsetY
350
BA5
  3
PageSettings/PageOrientation
350
BA6
  3
PageSettings/PaperHeight
350
BA7
  3
PageSettings/PaperWidth
350
BA8
  3
PageSettings/Scale
350
BA9
  3
PageSettings/ShowPaperBorders
350
BAA
  3
PageTagSettings/EnablePageTags
350
BAB
  3
PageTagSettings/TagAlignment
350
BAC
  3
PageTagSettings/TagFont
350
BAD
  3
PageTagSettings/TagPosition
350
BAE
  3
QCADVersion
350
BAF
  3
UnitSettings/PaperUnit
350
BB0
  3
ViewportCenter
350
BB1
  3
ViewportHeight
350
BB2
  3
ViewportWidth
350
BB3
  0
LAYOUT
  5
B3C
102
{ACAD_REACTORS
330
B38
102
}
330
B38
100
AcDbPlotSettings
  1

  2
none_device
  4
ISO_A4_(210.00_x_297.00_MM)
  6

 40
7.5
 41
20.0
 42
7.5
 43
20.0
 44
210.0
 45
297.0
 46
0.0
 47
0.0
 48
0.0
 49
0.0
140
0.0
141
0.0
142
1.0
143
1.0
 70
   688
 72
     1
 73
     1
 74
     5
  7

 75
    16
 76
     0
 77
     2
 78
   300
147
1.0
148
0.0
149
0.0
100
AcDbLayout
  1
Layout1
 70
     1
 71
     0
 10
-20.0
 20
-7.5
 11
277.0
 21
202.5
 12
0.0
 22
0.0
 32
0.0
 14
0.0
 24
0.0
 34
0.0
 15
0.0
 25
0.0
 35
0.0
146
0.0
 13
0.0
 23
0.0
 33
0.0
 16
1.0
 26
0.0
 36
0.0
 17
0.0
 27
1.0
 37
0.0
 76
     0
330
B39
331
BEB
  0
LAYOUT
  5
B40
102
{ACAD_REACTORS
330
B38
102
}
330
B38
100
AcDbPlotSettings
  1

  2
none_device
  4
Letter_(8.50_x_11.00_Inches)
  6

 40
6.35
 41
6.35
 42
6.35000508
 43
6.35000508
 44
215.9
 45
279.4
 46
0.0
 47
0.0
 48
0.0
 49
0.0
140
0.0
141
0.0
142
1.0
143
1.0
 70
  1712
 72
     0
 73
     0
 74
     0
  7

 75
     0
 76
     0
 77
     2
 78
   300
147
1.0
148
0.0
149
0.0
100
AcDbLayout
  1
Model
 70
     1
 71
     0
 10
0.0
 20
0.0
 11
12.0
 21
9.0
 12
0.0
 22
0.0
 32
0.0
 14
-647.0
 24
193.0
 34
0.0
 15
580.0
 25
846.9999999999998
 35
0.0
146
0.0
 13
0.0
 23
0.0
 33
0.0
 16
1.0
 26
0.0
 36
0.0
 17
0.0
 27
1.0
 37
0.0
 76
     0
330
B3D
331
B47
  0
MATERIAL
  5
B63
102
{ACAD_REACTORS
330
B61
102
}
330
B61
100
AcDbMaterial
  1
ByBlock
 72
     1
 94
      127
  0
MATERIAL
  5
B62
102
{ACAD_REACTORS
330
B61
102
}
330
B61
100
AcDbMaterial
  1
ByLayer
 72
     1
 94
      127
  0
MATERIAL
  5
B64
102
{ACAD_REACTORS
330
B61
102
}
330
B61
100
AcDbMaterial
  1
Global
 72
     1
 94
      127
  0
MLEADERSTYLE
  5
B7A
102
{ACAD_REACTORS
330
B79
102
}
330
B79
100
AcDbMLeaderStyle
179
     2
170
     2
171
     1
172
     0
 90
        2
 40
0.0
 41
0.0
173
     1
 91
-1056964608
340
B32
 92
       -2
290
     1
 42
0.09
291
     1
 43
0.36
  3
Standard
341
0
 44
0.18
300

342
B30
174
     1
178
     6
175
     1
176
     0
 93
-1056964608
 45
0.18
292
     0
297
     0
 46
0.18
343
0
 94
-1056964608
 47
1.0
 49
1.0
140
1.0
293
     1
141
0.0
294
     1
177
     0
142
1.0
295
     0
296
     0
143
0.125
271
     0
272
     9
273
     9
298
     0
  0
MLINESTYLE
  5
B36
102
{ACAD_REACTORS
330
B35
102
}
330
B35
100
AcDbMlineStyle
  2
Standard
 70
     0
  3

 62
   256
 51
90.0
 52
90.0
 71
     2
 49
0.5
 62
   256
  6
BYLAYER
 49
-0.5
 62
   256
  6
BYLAYER
  0
ACDBPLACEHOLDER
  5
B2E
102
{ACAD_REACTORS
330
B2D
102
}
330
B2D
  0
SCALE
  5
B66
102
{ACAD_REACTORS
330
B65
102
}
330
B65
100
AcDbScale
 70
     0
300
1:1
140
1.0
141
1.0
290
     1
  0
SCALE
  5
B67
102
{ACAD_REACTORS
330
B65
102
}
330
B65
100
AcDbScale
 70
     0
300
1/128" = 1'-0"
140
0.0078125
141
12.0
290
     0
  0
SCALE
  5
B68
102
{ACAD_REACTORS
330
B65
102
}
330
B65
100
AcDbScale
 70
     0
300
1/64" = 1'-0"
140
0.015625
141
12.0
290
     0
  0
SCALE
  5
B69
102
{ACAD_REACTORS
330
B65
102
}
330
B65
100
AcDbScale
 70
     0
300
1/32" = 1'-0"
140
0.03125
141
12.0
290
     0
  0
SCALE
  5
B6A
102
{ACAD_REACTORS
330
B65
102
}
330
B65
100
AcDbScale
 70
     0
300
1/16" = 1'-0"
140
0.0625
141
12.0
290
     0
  0
SCALE
  5
B6B
102
{ACAD_REACTORS
330
B65
102
}
330
B65
100
AcDbScale
 70
     0
300
3/32" = 1'-0"
140
0.09375
141
12.0
290
     0
  0
SCALE
  5
B6C
102
{ACAD_REACTORS
330
B65
102
}
330
B65
100
AcDbScale
 70
     0
300
1/8" = 1'-0"
140
0.125
141
12.0
290
     0
  0
SCALE
  5
B6D
102
{ACAD_REACTORS
330
B65
102
}
330
B65
100
AcDbScale
 70
     0
300
3/16" = 1'-0"
140
0.1875
141
12.0
290
     0
  0
SCALE
  5
B6E
102
{ACAD_REACTORS
330
B65
102
}
330
B65
100
AcDbScale
 70
     0
300
1/4" = 1'-0"
140
0.25
141
12.0
290
     0
  0
SCALE
  5
B6F
102
{ACAD_REACTORS
330
B65
102
}
330
B65
100
AcDbScale
 70
     0
300
3/8" = 1'-0"
140
0.375
141
12.0
290
     0
  0
SCALE
  5
B70
102
{ACAD_REACTORS
330
B65
102
}
330
B65
100
AcDbScale
 70
     0
300
1/2" = 1'-0"
140
0.5
141
12.0
290
     0
  0
SCALE
  5
B71
102
{ACAD_REACTORS
330
B65
102
}
330
B65
100
AcDbScale
 70
     0
300
3/4" = 1'-0"
140
0.75
141
12.0
290
     0
  0
SCALE
  5
B72
102
{ACAD_REACTORS
330
B65
102
}
330
B65
100
AcDbScale
 70
     0
300
1" = 1'-0"
140
1.0
141
12.0
290
     0
  0
SCALE
  5
B73
102
{ACAD_REACTORS
330
B65
102
}
330
B65
100
AcDbScale
 70
     0
300
1-1/2" = 1'-0"
140
1.5
141
12.0
290
     0
  0
SCALE
  5
B74
102
{ACAD_REACTORS
330
B65
102
}
330
B65
100
AcDbScale
 70
     0
300
3" = 1'-0"
140
3.0
141
12.0
290
     0
  0
SCALE
  5
B75
102
{ACAD_REACTORS
330
B65
102
}
330
B65
100
AcDbScale
 70
     0
300
6" = 1'-0"
140
6.0
141
12.0
290
     0
  0
SCALE
  5
B76
102
{ACAD_REACTORS
330
B65
102
}
330
B65
100
AcDbScale
 70
     0
300
1'-0" = 1'-0"
140
12.0
141
12.0
290
     0
  0
TABLESTYLE
  5
B78
102
{ACAD_REACTORS
330
B77
102
}
102
{ACAD_XDICTIONARY
360
BF3
102
}
330
B77
100
AcDbTableStyle
  3
Standard
 70
     0
 71
     0
 40
0.06
 41
0.06
280
     0
281
     0
  7
Standard
140
0.18
170
     2
 62
     0
 63
   257
283
     0
 90
        4
 91
        0
  1

274
    -2
284
     1
 64
     0
275
    -2
285
     1
 65
     0
276
    -2
286
     1
 66
     0
277
    -2
287
     1
 67
     0
278
    -2
288
     1
 68
     0
279
    -2
289
     1
 69
     0
  7
Standard
140
0.25
170
     5
 62
     0
 63
   257
283
     0
 90
        4
 91
        0
  1

274
    -2
284
     1
 64
     0
275
    -2
285
     1
 65
     0
276
    -2
286
     1
 66
     0
277
    -2
287
     1
 67
     0
278
    -2
288
     1
 68
     0
279
    -2
289
     1
 69
     0
  7
Standard
140
0.18
170
     5
 62
     0
 63
   257
283
     0
 90
        4
 91
        0
  1

274
    -2
284
     1
 64
     0
275
    -2
285
     1
 65
     0
276
    -2
286
     1
 66
     0
277
    -2
287
     1
 67
     0
278
    -2
288
     1
 68
     0
279
    -2
289
     1
 69
     0
  0
VISUALSTYLE
  5
B4D
102
{ACAD_REACTORS
330
B48
102
}
330
B48
100
AcDbVisualStyle
  2
2dWireframe
 70
     4
177
     3
291
     0
 70
    58
 90
        0
176
     1
 90
        2
176
     1
 90
        0
176
     1
 90
        0
176
     1
 40
0.6
176
     1
 40
30.0
176
     1
 62
     7
420
 16777215
176
     1
 90
        1
176
     1
 90
        4
176
     1
 62
     7
176
     1
 62
   257
176
     1
 90
        1
176
     1
 90
        1
176
     1
 40
1.0
176
     1
 90
        0
176
     1
 62
   257
176
     1
 40
1.0
176
     1
 90
        1
176
     1
 90
        6
176
     1
 90
        2
176
     1
 62
     7
176
     1
 90
        5
176
     1
 90
        0
176
     1
 90
        0
176
     1
290
     0
176
     1
 90
        1
176
     1
 40
0.0
176
     1
 90
        0
176
     1
290
     1
176
     1
290
     1
176
     1
290
     0
176
     1
290
     0
176
     1
290
     0
176
     1
290
     0
176
     1
290
     0
176
     1
290
     0
176
     1
290
     0
176
     1
 90
       50
176
     1
 40
0.0
176
     1
 40
1.0
176
     1
 90
        0
176
     1
 62
    18
420
        0
176
     1
 90
       50
176
     1
 90
        3
176
     1
 62
     5
420
      255
176
     1
290
     0
176
     1
 90
       50
176
     1
 90
       50
176
     1
 90
       50
176
     1
290
     0
176
     1
 90
       50
176
     1
 62
   256
176
     0
 40
1.0
176
     0
 90
        2
176
     1
  1
strokes_ogs.tif
176
     1
290
     0
176
     1
 40
1.0
176
     1
 40
1.0
176
     1
  0
VISUALSTYLE
  5
B50
102
{ACAD_REACTORS
330
B48
102
}
330
B48
100
AcDbVisualStyle
  2
Basic
 70
     7
177
     3
291
     1
 70
    58
 90
        1
176
     1
 90
        0
176
     1
 90
        1
176
     1
 90
        0
176
     1
 40
0.6
176
     1
 40
30.0
176
     1
 62
     7
420
 16777215
176
     1
 90
        0
176
     1
 90
        4
176
     1
 62
     7
176
     1
 62
   257
176
     1
 90
        1
176
     1
 90
        1
176
     1
 40
1.0
176
     1
 90
        8
176
     1
 62
     7
176
     1
 40
1.0
176
     1
 90
        1
176
     1
 90
        6
176
     1
 90
        2
176
     1
 62
     7
176
     1
 90
        5
176
     1
 90
        0
176
     1
 90
        0
176
     1
290
     0
176
     1
 90
        1
176
     1
 40
0.0
176
     1
 90
        0
176
     1
290
     0
176
     1
290
     1
176
     1
290
     1
176
     1
290
     0
176
     1
290
     0
176
     1
290
     0
176
     1
290
     0
176
     1
290
     0
176
     1
290
     0
176
     1
 90
       50
176
     1
 40
0.0
176
     1
 40
1.0
176
     1
 90
        0
176
     1
 62
    18
420
        0
176
     1
 90
       50
176
     1
 90
        3
176
     1
 62
     5
420
      255
176
     1
290
     0
176
     1
 90
       50
176
     1
 90
       50
176
     1
 90
       50
176
     1
290
     0
176
     1
 90
       50
176
     1
 62
   256
176
     0
 40
1.0
176
     0
 90
        2
176
     1
  1
strokes_ogs.tif
176
     1
290
     0
176
     1
 40
1.0
176
     1
 40
1.0
176
     1
  0
VISUALSTYLE
  5
B54
102
{ACAD_REACTORS
330
B48
102
}
330
B48
100
AcDbVisualStyle
  2
Brighten
 70
    12
177
     3
291
     1
 70
    58
 90
        2
176
     1
 90
        2
176
     1
 90
        0
176
     1
 90
        0
176
     1
 40
0.6
176
     1
 40
30.0
176
     1
 62
     7
420
 16777215
176
     1
 90
        1
176
     1
 90
        4
176
     1
 62
     7
176
     1
 62
   257
176
     1
 90
        1
176
     1
 90
        1
176
     1
 40
1.0
176
     1
 90
        8
176
     1
 62
     7
176
     1
 40
1.0
176
     1
 90
        1
176
     1
 90
        6
176
     1
 90
        2
176
     1
 62
     7
176
     1
 90
        5
176
     1
 90
        0
176
     1
 90
        0
176
     1
290
     0
176
     1
 90
        1
176
     1
 40
50.0
176
     1
 90
        0
176
     1
290
     0
176
     1
290
     1
176
     1
290
     1
176
     1
290
     0
176
     1
290
     0
176
     1
290
     0
176
     1
290
     0
176
     1
290
     0
176
     1
290
     0
176
     1
 90
       50
176
     1
 40
0.0
176
     1
 40
1.0
176
     1
 90
        0
176
     1
 62
    18
420
        0
176
     1
 90
       50
176
     1
 90
        3
176
     1
 62
     5
420
      255
176
     1
290
     0
176
     1
 90
       50
176
     1
 90
       50
176
     1
 90
       50
176
     1
290
     0
176
     1
 90
       50
176
     1
 62
   256
176
     0
 40
1.0
176
     0
 90
        2
176
     1
  1
strokes_ogs.tif
176
     1
290
     0
176
     1
 40
1.0
176
     1
 40
1.0
176
     1
  0
VISUALSTYLE
  5
B58
102
{ACAD_REACTORS
330
B48
102
}
330
B48
100
AcDbVisualStyle
  2
ColorChange
 70
    16
177
     3
291
     1
 70
    58
 90
        2
176
     1
 90
        2
176
     1
 90
        3
176
     1
 90
        0
176
     1
 40
0.6
176
     1
 40
30.0
176
     1
 62
     8
420
  8421504
176
     1
 90
        1
176
     1
 90
        4
176
     1
 62
     7
176
     1
 62
   257
176
     1
 90
        1
176
     1
 90
        1
176
     1
 40
1.0
176
     1
 90
        8
176
     1
 62
     8
420
  8421504
176
     1
 40
1.0
176
     1
 90
        1
176
     1
 90
        6
176
     1
 90
        2
176
     1
 62
     7
176
     1
 90
        5
176
     1
 90
        0
176
     1
 90
        0
176
     1
290
     0
176
     1
 90
        1
176
     1
 40
0.0
176
     1
 90
        0
176
     1
290
     0
176
     1
290
     1
176
     1
290
     1
176
     1
290
     0
176
     1
290
     0
176
     1
290
     0
176
     1
290
     0
176
     1
290
     0
176
     1
290
     0
176
     1
 90
       50
176
     1
 40
0.0
176
     1
 40
1.0
176
     1
 90
        0
176
     1
 62
    18
420
        0
176
     1
 90
       50
176
     1
 90
        3
176
     1
 62
     5
420
      255
176
     1
290
     0
176
     1
 90
       50
176
     1
 90
       50
176
     1
 90
       50
176
     1
290
     0
176
     1
 90
       50
176
     1
 62
   256
176
     0
 40
1.0
176
     0
 90
        2
176
     1
  1
strokes_ogs.tif
176
     1
290
     0
176
     1
 40
1.0
176
     1
 40
1.0
176
     1
  0
VISUALSTYLE
  5
B52
102
{ACAD_REACTORS
330
B48
102
}
330
B48
100
AcDbVisualStyle
  2
Conceptual
 70
     9
177
     3
291
     0
 70
    58
 90
        3
176
     1
 90
        2
176
     1
 90
        0
176
     1
 90
        0
176
     1
 40
0.6
176
     1
 40
30.0
176
     1
 62
     7
420
 16777215
176
     1
 90
        2
176
     1
 90
        2
176
     1
 62
     7
176
     1
 62
   257
176
     1
 90
        1
176
     1
 90
        1
176
     1
 40
179.0
176
     1
 90
        8
176
     1
 62
     7
176
     1
 40
1.0
176
     1
 90
        1
176
     1
 90
        6
176
     1
 90
        2
176
     1
 62
     7
176
     1
 90
        3
176
     1
 90
        0
176
     1
 90
        0
176
     1
290
     0
176
     1
 90
        1
176
     1
 40
0.0
176
     1
 90
        0
176
     1
290
     0
176
     1
290
     1
176
     1
290
     1
176
     1
290
     0
176
     1
290
     0
176
     1
290
     0
176
     1
290
     0
176
     1
290
     0
176
     1
290
     0
176
     1
 90
       50
176
     1
 40
0.0
176
     1
 40
1.0
176
     1
 90
        0
176
     1
 62
    18
420
        0
176
     1
 90
       50
176
     1
 90
        3
176
     1
 62
     5
420
      255
176
     1
290
     0
176
     1
 90
       50
176
     1
 90
       50
176
     1
 90
       50
176
     1
290
     0
176
     1
 90
       50
176
     1
 62
   256
176
     0
 40
1.0
176
     0
 90
        2
176
     1
  1
strokes_ogs.tif
176
     1
290
     0
176
     1
 40
1.0
176
     1
 40
1.0
176
     1
  0
VISUALSTYLE
  5
B53
102
{ACAD_REACTORS
330
B48
102
}
330
B48
100
AcDbVisualStyle
  2
Dim
 70
    11
177
     3
291
     1
 70
    58
 90
        2
176
     1
 90
        2
176
     1
 90
        0
176
     1
 90
        0
176
     1
 40
0.6
176
     1
 40
30.0
176
     1
 62
     7
420
 16777215
176
     1
 90
        1
176
     1
 90
        4
176
     1
 62
     7
176
     1
 62
   257
176
     1
 90
        1
176
     1
 90
        1
176
     1
 40
1.0
176
     1
 90
        8
176
     1
 62
     7
176
     1
 40
1.0
176
     1
 90
        1
176
     1
 90
        6
176
     1
 90
        2
176
     1
 62
     7
176
     1
 90
        5
176
     1
 90
        0
176
     1
 90
        0
176
     1
290
     0
176
     1
 90
        1
176
     1
 40
-50.0
176
     1
 90
        0
176
     1
290
     0
176
     1
290
     1
176
     1
290
     1
176
     1
290
     0
176
     1
290
     0
176
     1
290
     0
176
     1
290
     0
176
     1
290
     0
176
     1
290
     0
176
     1
 90
       50
176
     1
 40
0.0
176
     1
 40
1.0
176
     1
 90
        0
176
     1
 62
    18
420
        0
176
     1
 90
       50
176
     1
 90
        3
176
     1
 62
     5
420
      255
176
     1
290
     0
176
     1
 90
       50
176
     1
 90
       50
176
     1
 90
       50
176
     1
290
     0
176
     1
 90
       50
176
     1
 62
   256
176
     0
 40
1.0
176
     0
 90
        2
176
     1
  1
strokes_ogs.tif
176
     1
290
     0
176
     1
 40
1.0
176
     1
 40
1.0
176
     1
  0
VISUALSTYLE
  5
B5B
102
{ACAD_REACTORS
330
B48
102
}
330
B48
100
AcDbVisualStyle
  2
EdgeColorOff
 70
    22
177
     3
291
     1
 70
    58
 90
        2
176
     0
 90
        2
176
     0
 90
        0
176
     0
 90
        0
176
     0
 40
0.6
176
     0
 40
30.0
176
     0
 62
     7
420
 16777215
176
     0
 90
        1
176
     0
 90
        4
176
     0
 62
     7
176
     0
 62
   257
176
     0
 90
        1
176
     0
 90
        1
176
     0
 40
1.0
176
     0
 90
        8
176
     2
 62
     7
176
     0
 40
1.0
176
     0
 90
        1
176
     0
 90
        6
176
     0
 90
        2
176
     0
 62
     7
176
     0
 90
        5
176
     0
 90
        0
176
     0
 90
        0
176
     0
290
     0
176
     0
 90
        1
176
     0
 40
0.0
176
     0
 90
        0
176
     0
290
     0
176
     0
290
     1
176
     0
290
     1
176
     0
290
     0
176
     0
290
     0
176
     0
290
     0
176
     0
290
     0
176
     0
290
     0
176
     0
290
     0
176
     0
 90
       50
176
     0
 40
0.0
176
     0
 40
1.0
176
     0
 90
        0
176
     0
 62
    18
420
        0
176
     0
 90
       50
176
     0
 90
        3
176
     0
 62
     5
420
      255
176
     0
290
     0
176
     0
 90
       50
176
     0
 90
       50
176
     0
 90
       50
176
     0
290
     0
176
     0
 90
       50
176
     0
 62
   256
176
     0
 40
1.0
176
     0
 90
        2
176
     0
  1
strokes_ogs.tif
176
     0
290
     0
176
     0
 40
1.0
176
     0
 40
1.0
176
     0
  0
VISUALSTYLE
  5
B57
102
{ACAD_REACTORS
330
B48
102
}
330
B48
100
AcDbVisualStyle
  2
Facepattern
 70
    15
177
     3
291
     1
 70
    58
 90
        2
176
     1
 90
        2
176
     1
 90
        0
176
     1
 90
        0
176
     1
 40
0.6
176
     1
 40
30.0
176
     1
 62
     7
420
 16777215
176
     1
 90
        1
176
     1
 90
        4
176
     1
 62
     7
176
     1
 62
   257
176
     1
 90
        1
176
     1
 90
        1
176
     1
 40
1.0
176
     1
 90
        8
176
     1
 62
     7
176
     1
 40
1.0
176
     1
 90
        1
176
     1
 90
        6
176
     1
 90
        2
176
     1
 62
     7
176
     1
 90
        5
176
     1
 90
        0
176
     1
 90
        0
176
     1
290
     0
176
     1
 90
        1
176
     1
 40
0.0
176
     1
 90
        0
176
     1
290
     0
176
     1
290
     1
176
     1
290
     1
176
     1
290
     0
176
     1
290
     0
176
     1
290
     0
176
     1
290
     0
176
     1
290
     0
176
     1
290
     0
176
     1
 90
       50
176
     1
 40
0.0
176
     1
 40
1.0
176
     1
 90
        0
176
     1
 62
    18
420
        0
176
     1
 90
       50
176
     1
 90
        3
176
     1
 62
     5
420
      255
176
     1
290
     0
176
     1
 90
       50
176
     1
 90
       50
176
     1
 90
       50
176
     1
290
     0
176
     1
 90
       50
176
     1
 62
   256
176
     0
 40
1.0
176
     0
 90
        2
176
     1
  1
strokes_ogs.tif
176
     1
290
     0
176
     1
 40
1.0
176
     1
 40
1.0
176
     1
  0
VISUALSTYLE
  5
B49
102
{ACAD_REACTORS
330
B48
102
}
330
B48
100
AcDbVisualStyle
  2
Flat
 70
     0
177
     3
291
     1
 70
    58
 90
        2
176
     1
 90
        1
176
     1
 90
        1
176
     1
 90
        2
176
     1
 40
0.6
176
     1
 40
30.0
176
     1
 62
     7
420
 16777215
176
     1
 90
        0
176
     1
 90
        0
176
     1
 62
     7
176
     1
 62
   257
176
     1
 90
        1
176
     1
 90
        1
176
     1
 40
1.0
176
     1
 90
        8
176
     1
 62
     7
176
     1
 40
1.0
176
     1
 90
        1
176
     1
 90
        6
176
     1
 90
        2
176
     1
 62
     7
176
     1
 90
        5
176
     1
 90
        0
176
     1
 90
        0
176
     1
290
     0
176
     1
 90
       13
176
     1
 40
0.0
176
     1
 90
        0
176
     1
290
     0
176
     1
290
     1
176
     1
290
     1
176
     1
290
     0
176
     1
290
     0
176
     1
290
     0
176
     1
290
     0
176
     1
290
     0
176
     1
290
     0
176
     1
 90
       50
176
     1
 40
0.0
176
     1
 40
1.0
176
     1
 90
        0
176
     1
 62
    18
420
        0
176
     1
 90
       50
176
     1
 90
        3
176
     1
 62
     5
420
      255
176
     1
290
     0
176
     1
 90
       50
176
     1
 90
       50
176
     1
 90
       50
176
     1
290
     0
176
     1
 90
       50
176
     1
 62
   256
176
     0
 40
1.0
176
     0
 90
        2
176
     1
  1
strokes_ogs.tif
176
     1
290
     0
176
     1
 40
1.0
176
     1
 40
1.0
176
     1
  0
VISUALSTYLE
  5
B4A
102
{ACAD_REACTORS
330
B48
102
}
330
B48
100
AcDbVisualStyle
  2
FlatWithEdges
 70
     1
177
     3
291
     1
 70
    58
 90
        2
176
     1
 90
        1
176
     1
 90
        1
176
     1
 90
        2
176
     1
 40
0.6
176
     1
 40
30.0
176
     1
 62
     7
420
 16777215
176
     1
 90
        1
176
     1
 90
        0
176
     1
 62
     7
176
     1
 62
   257
176
     1
 90
        1
176
     1
 90
        1
176
     1
 40
1.0
176
     1
 90
        0
176
     1
 62
   257
176
     1
 40
1.0
176
     1
 90
        1
176
     1
 90
        6
176
     1
 90
        2
176
     1
 62
     7
176
     1
 90
        5
176
     1
 90
        0
176
     1
 90
        0
176
     1
290
     0
176
     1
 90
       13
176
     1
 40
0.0
176
     1
 90
        0
176
     1
290
     0
176
     1
290
     1
176
     1
290
     1
176
     1
290
     0
176
     1
290
     0
176
     1
290
     0
176
     1
290
     0
176
     1
290
     0
176
     1
290
     0
176
     1
 90
       50
176
     1
 40
0.0
176
     1
 40
1.0
176
     1
 90
        0
176
     1
 62
    18
420
        0
176
     1
 90
       50
176
     1
 90
        3
176
     1
 62
     5
420
      255
176
     1
290
     0
176
     1
 90
       50
176
     1
 90
       50
176
     1
 90
       50
176
     1
290
     0
176
     1
 90
       50
176
     1
 62
   256
176
     0
 40
1.0
176
     0
 90
        2
176
     1
  1
strokes_ogs.tif
176
     1
290
     0
176
     1
 40
1.0
176
     1
 40
1.0
176
     1
  0
VISUALSTYLE
  5
B4B
102
{ACAD_REACTORS
330
B48
102
}
330
B48
100
AcDbVisualStyle
  2
Gouraud
 70
     2
177
     3
291
     1
 70
    58
 90
        2
176
     1
 90
        2
176
     1
 90
        1
176
     1
 90
        2
176
     1
 40
0.6
176
     1
 40
30.0
176
     1
 62
     7
420
 16777215
176
     1
 90
        0
176
     1
 90
        0
176
     1
 62
     7
176
     1
 62
   257
176
     1
 90
        1
176
     1
 90
        1
176
     1
 40
1.0
176
     1
 90
        0
176
     1
 62
     7
176
     1
 40
1.0
176
     1
 90
        1
176
     1
 90
        6
176
     1
 90
        2
176
     1
 62
     7
176
     1
 90
        5
176
     1
 90
        0
176
     1
 90
        0
176
     1
290
     0
176
     1
 90
       13
176
     1
 40
0.0
176
     1
 90
        0
176
     1
290
     0
176
     1
290
     1
176
     1
290
     1
176
     1
290
     0
176
     1
290
     0
176
     1
290
     0
176
     1
290
     0
176
     1
290
     0
176
     1
290
     0
176
     1
 90
       50
176
     1
 40
0.0
176
     1
 40
1.0
176
     1
 90
        0
176
     1
 62
    18
420
        0
176
     1
 90
       50
176
     1
 90
        3
176
     1
 62
     5
420
      255
176
     1
290
     0
176
     1
 90
       50
176
     1
 90
       50
176
     1
 90
       50
176
     1
290
     0
176
     1
 90
       50
176
     1
 62
   256
176
     0
 40
1.0
176
     0
 90
        2
176
     1
  1
strokes_ogs.tif
176
     1
290
     0
176
     1
 40
1.0
176
     1
 40
1.0
176
     1
  0
VISUALSTYLE
  5
B4C
102
{ACAD_REACTORS
330
B48
102
}
330
B48
100
AcDbVisualStyle
  2
GouraudWithEdges
 70
     3
177
     3
291
     1
 70
    58
 90
        2
176
     1
 90
        2
176
     1
 90
        1
176
     1
 90
        2
176
     1
 40
0.6
176
     1
 40
30.0
176
     1
 62
     7
420
 16777215
176
     1
 90
        1
176
     1
 90
        0
176
     1
 62
     7
176
     1
 62
   257
176
     1
 90
        1
176
     1
 90
        1
176
     1
 40
1.0
176
     1
 90
        0
176
     1
 62
   257
176
     1
 40
1.0
176
     1
 90
        1
176
     1
 90
        6
176
     1
 90
        2
176
     1
 62
     7
176
     1
 90
        5
176
     1
 90
        0
176
     1
 90
        0
176
     1
290
     0
176
     1
 90
       13
176
     1
 40
0.0
176
     1
 90
        0
176
     1
290
     0
176
     1
290
     1
176
     1
290
     1
176
     1
290
     0
176
     1
290
     0
176
     1
290
     0
176
     1
290
     0
176
     1
290
     0
176
     1
290
     0
176
     1
 90
       50
176
     1
 40
0.0
176
     1
 40
1.0
176
     1
 90
        0
176
     1
 62
    18
420
        0
176
     1
 90
       50
176
     1
 90
        3
176
     1
 62
     5
420
      255
176
     1
290
     0
176
     1
 90
       50
176
     1
 90
       50
176
     1
 90
       50
176
     1
290
     0
176
     1
 90
       50
176
     1
 62
   256
176
     0
 40
1.0
176
     0
 90
        2
176
     1
  1
strokes_ogs.tif
176
     1
290
     0
176
     1
 40
1.0
176
     1
 40
1.0
176
     1
  0
VISUALSTYLE
  5
B4F
102
{ACAD_REACTORS
330
B48
102
}
330
B48
100
AcDbVisualStyle
  2
Hidden
 70
     6
177
     3
291
     0
 70
    58
 90
        1
176
     1
 90
        2
176
     1
 90
        2
176
     1
 90
        0
176
     1
 40
0.6
176
     1
 40
30.0
176
     1
 62
     7
420
 16777215
176
     1
 90
        2
176
     1
 90
        2
176
     1
 62
     7
176
     1
 62
   257
176
     1
 90
        2
176
     1
 90
        1
176
     1
 40
40.0
176
     1
 90
        0
176
     1
 62
   257
176
     1
 40
1.0
176
     1
 90
        1
176
     1
 90
        6
176
     1
 90
        2
176
     1
 62
     7
176
     1
 90
        3
176
     1
 90
        0
176
     1
 90
        0
176
     1
290
     0
176
     1
 90
        1
176
     1
 40
0.0
176
     1
 90
        0
176
     1
290
     0
176
     1
290
     1
176
     1
290
     1
176
     1
290
     0
176
     1
290
     0
176
     1
290
     0
176
     1
290
     0
176
     1
290
     0
176
     1
290
     0
176
     1
 90
       50
176
     1
 40
0.0
176
     1
 40
1.0
176
     1
 90
        0
176
     1
 62
    18
420
        0
176
     1
 90
       50
176
     1
 90
        3
176
     1
 62
     5
420
      255
176
     1
290
     0
176
     1
 90
       50
176
     1
 90
       50
176
     1
 90
       50
176
     1
290
     0
176
     1
 90
       50
176
     1
 62
   256
176
     0
 40
1.0
176
     0
 90
        2
176
     1
  1
strokes_ogs.tif
176
     1
290
     0
176
     1
 40
1.0
176
     1
 40
1.0
176
     1
  0
VISUALSTYLE
  5
B59
102
{ACAD_REACTORS
330
B48
102
}
330
B48
100
AcDbVisualStyle
  2
JitterOff
 70
    20
177
     3
291
     1
 70
    58
 90
        2
176
     0
 90
        2
176
     0
 90
        0
176
     0
 90
        0
176
     0
 40
0.6
176
     0
 40
30.0
176
     0
 62
     7
420
 16777215
176
     0
 90
        1
176
     0
 90
        4
176
     0
 62
     7
176
     0
 62
   257
176
     0
 90
        1
176
     0
 90
        1
176
     0
 40
1.0
176
     0
 90
       10
176
     2
 62
     7
176
     0
 40
1.0
176
     0
 90
        1
176
     0
 90
        6
176
     0
 90
        2
176
     0
 62
     7
176
     0
 90
        5
176
     0
 90
        0
176
     0
 90
        0
176
     0
290
     0
176
     0
 90
        1
176
     0
 40
0.0
176
     0
 90
        0
176
     0
290
     0
176
     0
290
     1
176
     0
290
     1
176
     0
290
     0
176
     0
290
     0
176
     0
290
     0
176
     0
290
     0
176
     0
290
     0
176
     0
290
     0
176
     0
 90
       50
176
     0
 40
0.0
176
     0
 40
1.0
176
     0
 90
        0
176
     0
 62
    18
420
        0
176
     0
 90
       50
176
     0
 90
        3
176
     0
 62
     5
420
      255
176
     0
290
     0
176
     0
 90
       50
176
     0
 90
       50
176
     0
 90
       50
176
     0
290
     0
176
     0
 90
       50
176
     0
 62
   256
176
     0
 40
1.0
176
     0
 90
        2
176
     0
  1
strokes_ogs.tif
176
     0
290
     0
176
     0
 40
1.0
176
     0
 40
1.0
176
     0
  0
VISUALSTYLE
  5
B56
102
{ACAD_REACTORS
330
B48
102
}
330
B48
100
AcDbVisualStyle
  2
Linepattern
 70
    14
177
     3
291
     1
 70
    58
 90
        2
176
     1
 90
        2
176
     1
 90
        0
176
     1
 90
        0
176
     1
 40
0.6
176
     1
 40
30.0
176
     1
 62
     7
420
 16777215
176
     1
 90
        1
176
     1
 90
        4
176
     1
 62
     7
176
     1
 62
   257
176
     1
 90
        7
176
     1
 90
        7
176
     1
 40
1.0
176
     1
 90
        8
176
     1
 62
     7
176
     1
 40
1.0
176
     1
 90
        1
176
     1
 90
        6
176
     1
 90
        2
176
     1
 62
     7
176
     1
 90
        5
176
     1
 90
        0
176
     1
 90
        0
176
     1
290
     0
176
     1
 90
        1
176
     1
 40
0.0
176
     1
 90
        0
176
     1
290
     0
176
     1
290
     1
176
     1
290
     1
176
     1
290
     0
176
     1
290
     0
176
     1
290
     0
176
     1
290
     0
176
     1
290
     0
176
     1
290
     0
176
     1
 90
       50
176
     1
 40
0.0
176
     1
 40
1.0
176
     1
 90
        0
176
     1
 62
    18
420
        0
176
     1
 90
       50
176
     1
 90
        3
176
     1
 62
     5
420
      255
176
     1
290
     0
176
     1
 90
       50
176
     1
 90
       50
176
     1
 90
       50
176
     1
290
     0
176
     1
 90
       50
176
     1
 62
   256
176
     0
 40
1.0
176
     0
 90
        2
176
     1
  1
strokes_ogs.tif
176
     1
290
     0
176
     1
 40
1.0
176
     1
 40
1.0
176
     1
  0
VISUALSTYLE
  5
B5A
102
{ACAD_REACTORS
330
B48
102
}
330
B48
100
AcDbVisualStyle
  2
OverhangOff
 70
    21
177
     3
291
     1
 70
    58
 90
        2
176
     0
 90
        2
176
     0
 90
        0
176
     0
 90
        0
176
     0
 40
0.6
176
     0
 40
30.0
176
     0
 62
     7
420
 16777215
176
     0
 90
        1
176
     0
 90
        4
176
     0
 62
     7
176
     0
 62
   257
176
     0
 90
        1
176
     0
 90
        1
176
     0
 40
1.0
176
     0
 90
        9
176
     2
 62
     7
176
     0
 40
1.0
176
     0
 90
        1
176
     0
 90
        6
176
     0
 90
        2
176
     0
 62
     7
176
     0
 90
        5
176
     0
 90
        0
176
     0
 90
        0
176
     0
290
     0
176
     0
 90
        1
176
     0
 40
0.0
176
     0
 90
        0
176
     0
290
     0
176
     0
290
     1
176
     0
290
     1
176
     0
290
     0
176
     0
290
     0
176
     0
290
     0
176
     0
290
     0
176
     0
290
     0
176
     0
290
     0
176
     0
 90
       50
176
     0
 40
0.0
176
     0
 40
1.0
176
     0
 90
        0
176
     0
 62
    18
420
        0
176
     0
 90
       50
176
     0
 90
        3
176
     0
 62
     5
420
      255
176
     0
290
     0
176
     0
 90
       50
176
     0
 90
       50
176
     0
 90
       50
176
     0
290
     0
176
     0
 90
       50
176
     0
 62
   256
176
     0
 40
1.0
176
     0
 90
        2
176
     0
  1
strokes_ogs.tif
176
     0
290
     0
176
     0
 40
1.0
176
     0
 40
1.0
176
     0
  0
VISUALSTYLE
  5
B51
102
{ACAD_REACTORS
330
B48
102
}
330
B48
100
AcDbVisualStyle
  2
Realistic
 70
     8
177
     3
291
     0
 70
    58
 90
        2
176
     1
 90
        3
176
     1
 90
        0
176
     1
 90
        2
176
     1
 40
0.6
176
     1
 40
30.0
176
     1
 62
     7
420
 16777215
176
     1
 90
        0
176
     1
 90
        0
176
     1
 62
     7
176
     1
 62
   257
176
     1
 90
        1
176
     1
 90
        1
176
     1
 40
1.0
176
     1
 90
        8
176
     1
 62
   257
176
     1
 40
1.0
176
     1
 90
        1
176
     1
 90
        6
176
     1
 90
        2
176
     1
 62
     7
176
     1
 90
        3
176
     1
 90
        0
176
     1
 90
        0
176
     1
290
     0
176
     1
 90
       13
176
     1
 40
0.0
176
     1
 90
        0
176
     1
290
     0
176
     1
290
     1
176
     1
290
     1
176
     1
290
     0
176
     1
290
     0
176
     1
290
     0
176
     1
290
     0
176
     1
290
     0
176
     1
290
     0
176
     1
 90
       50
176
     1
 40
0.0
176
     1
 40
1.0
176
     1
 90
        0
176
     1
 62
    18
420
        0
176
     1
 90
       50
176
     1
 90
        3
176
     1
 62
     5
420
      255
176
     1
290
     0
176
     1
 90
       50
176
     1
 90
       50
176
     1
 90
       50
176
     1
290
     0
176
     1
 90
       50
176
     1
 62
   256
176
     0
 40
1.0
176
     0
 90
        2
176
     1
  1
strokes_ogs.tif
176
     1
290
     0
176
     1
 40
1.0
176
     1
 40
1.0
176
     1
  0
VISUALSTYLE
  5
B60
102
{ACAD_REACTORS
330
B48
102
}
330
B48
100
AcDbVisualStyle
  2
Shaded
 70
    27
177
     3
291
     0
 70
    58
 90
        2
176
     1
 90
        2
176
     1
 90
        1
176
     1
 90
        2
176
     1
 40
0.6
176
     1
 40
30.0
176
     1
 62
     7
420
 16777215
176
     1
 90
        0
176
     1
 90
        4
176
     1
 62
     7
176
     1
 62
   257
176
     1
 90
        1
176
     1
 90
        1
176
     1
 40
1.0
176
     1
 90
        8
176
     1
 62
   257
176
     1
 40
1.0
176
     1
 90
        1
176
     1
 90
        6
176
     1
 90
        2
176
     1
 62
     8
420
  7895160
176
     1
 90
        3
176
     1
 90
        0
176
     1
 90
        0
176
     1
290
     0
176
     1
 90
        5
176
     1
 40
0.0
176
     1
 90
        0
176
     1
290
     0
176
     1
290
     1
176
     1
290
     1
176
     1
290
     0
176
     1
290
     0
176
     1
290
     0
176
     1
290
     0
176
     1
290
     0
176
     1
290
     0
176
     1
 90
       50
176
     1
 40
0.0
176
     1
 40
1.0
176
     1
 90
        0
176
     1
 62
    18
420
        0
176
     1
 90
       50
176
     1
 90
        3
176
     1
 62
     5
420
      255
176
     1
290
     0
176
     1
 90
       50
176
     1
 90
       50
176
     1
 90
       50
176
     1
290
     0
176
     1
 90
       50
176
     1
 62
   256
176
     0
 40
1.0
176
     0
 90
        2
176
     1
  1
strokes_ogs.tif
176
     1
290
     0
176
     1
 40
1.0
176
     1
 40
1.0
176
     1
  0
VISUALSTYLE
  5
B5F
102
{ACAD_REACTORS
330
B48
102
}
330
B48
100
AcDbVisualStyle
  2
Shaded with edges
 70
    26
177
     3
291
     0
 70
    58
 90
        2
176
     1
 90
        2
176
     1
 90
        1
176
     1
 90
        2
176
     1
 40
0.6
176
     1
 40
30.0
176
     1
 62
     7
420
 16777215
176
     1
 90
        1
176
     1
 90
       10
176
     1
 62
     7
176
     1
 62
   257
176
     1
 90
        2
176
     1
 90
        1
176
     1
 40
1.0
176
     1
 90
        8
176
     1
 62
   257
176
     1
 40
1.0
176
     1
 90
        1
176
     1
 90
        6
176
     1
 90
        2
176
     1
 62
     7
176
     1
 90
        3
176
     1
 90
        0
176
     1
 90
        0
176
     1
290
     0
176
     1
 90
        5
176
     1
 40
0.0
176
     1
 90
        0
176
     1
290
     0
176
     1
290
     1
176
     1
290
     1
176
     1
290
     0
176
     1
290
     0
176
     1
290
     0
176
     1
290
     0
176
     1
290
     0
176
     1
290
     0
176
     1
 90
       50
176
     1
 40
0.0
176
     1
 40
1.0
176
     1
 90
        0
176
     1
 62
    18
420
        0
176
     1
 90
       50
176
     1
 90
        3
176
     1
 62
     5
420
      255
176
     1
290
     0
176
     1
 90
       50
176
     1
 90
       50
176
     1
 90
       50
176
     1
290
     0
176
     1
 90
       50
176
     1
 62
   256
176
     0
 40
1.0
176
     0
 90
        2
176
     1
  1
strokes_ogs.tif
176
     1
290
     0
176
     1
 40
1.0
176
     1
 40
1.0
176
     1
  0
VISUALSTYLE
  5
B5C
102
{ACAD_REACTORS
330
B48
102
}
330
B48
100
AcDbVisualStyle
  2
Shades of Gray
 70
    23
177
     3
291
     0
 70
    58
 90
        2
176
     1
 90
        2
176
     1
 90
        3
176
     1
 90
        0
176
     1
 40
0.6
176
     1
 40
30.0
176
     1
 62
     7
420
 16777215
176
     1
 90
        2
176
     1
 90
        2
176
     1
 62
     7
176
     1
 62
     7
176
     1
 90
        1
176
     1
 90
        1
176
     1
 40
40.0
176
     1
 90
        8
176
     1
 62
     7
176
     1
 40
1.0
176
     1
 90
        1
176
     1
 90
        6
176
     1
 90
        2
176
     1
 62
     7
176
     1
 90
        3
176
     1
 90
        0
176
     1
 90
        0
176
     1
290
     0
176
     1
 90
        1
176
     1
 40
0.0
176
     1
 90
        0
176
     1
290
     0
176
     1
290
     1
176
     1
290
     1
176
     1
290
     0
176
     1
290
     0
176
     1
290
     0
176
     1
290
     0
176
     1
290
     0
176
     1
290
     0
176
     1
 90
       50
176
     1
 40
0.0
176
     1
 40
1.0
176
     1
 90
        0
176
     1
 62
    18
420
        0
176
     1
 90
       50
176
     1
 90
        3
176
     1
 62
     5
420
      255
176
     1
290
     0
176
     1
 90
       50
176
     1
 90
       50
176
     1
 90
       50
176
     1
290
     0
176
     1
 90
       50
176
     1
 62
   256
176
     0
 40
1.0
176
     0
 90
        2
176
     1
  1
strokes_ogs.tif
176
     1
290
     0
176
     1
 40
1.0
176
     1
 40
1.0
176
     1
  0
VISUALSTYLE
  5
B5D
102
{ACAD_REACTORS
330
B48
102
}
330
B48
100
AcDbVisualStyle
  2
Sketchy
 70
    24
177
     3
291
     0
 70
    58
 90
        1
176
     1
 90
        2
176
     1
 90
        2
176
     1
 90
        0
176
     1
 40
0.6
176
     1
 40
30.0
176
     1
 62
     7
420
 16777215
176
     1
 90
        2
176
     1
 90
        2
176
     1
 62
     7
176
     1
 62
     7
176
     1
 90
        1
176
     1
 90
        1
176
     1
 40
40.0
176
     1
 90
       11
176
     1
 62
     7
176
     1
 40
1.0
176
     1
 90
        1
176
     1
 90
        6
176
     1
 90
        2
176
     1
 62
     7
176
     1
 90
        6
176
     1
 90
        0
176
     1
 90
        0
176
     1
290
     0
176
     1
 90
        1
176
     1
 40
0.0
176
     1
 90
        0
176
     1
290
     0
176
     1
290
     1
176
     1
290
     1
176
     1
290
     0
176
     1
290
     0
176
     1
290
     0
176
     1
290
     0
176
     1
290
     0
176
     1
290
     0
176
     1
 90
       50
176
     1
 40
0.0
176
     1
 40
1.0
176
     1
 90
        0
176
     1
 62
    18
420
        0
176
     1
 90
       50
176
     1
 90
        3
176
     1
 62
     5
420
      255
176
     1
290
     0
176
     1
 90
       50
176
     1
 90
       50
176
     1
 90
       50
176
     1
290
     0
176
     1
 90
       50
176
     1
 62
   256
176
     0
 40
1.0
176
     0
 90
        2
176
     1
  1
strokes_ogs.tif
176
     1
290
     0
176
     1
 40
1.0
176
     1
 40
1.0
176
     1
  0
VISUALSTYLE
  5
B55
102
{ACAD_REACTORS
330
B48
102
}
330
B48
100
AcDbVisualStyle
  2
Thicken
 70
    13
177
     3
291
     1
 70
    58
 90
        2
176
     1
 90
        2
176
     1
 90
        0
176
     1
 90
        0
176
     1
 40
0.6
176
     1
 40
30.0
176
     1
 62
     7
420
 16777215
176
     1
 90
        1
176
     1
 90
        4
176
     1
 62
     7
176
     1
 62
   257
176
     1
 90
        1
176
     1
 90
        1
176
     1
 40
1.0
176
     1
 90
       12
176
     1
 62
     7
176
     1
 40
1.0
176
     1
 90
        1
176
     1
 90
        6
176
     1
 90
        2
176
     1
 62
     7
176
     1
 90
        5
176
     1
 90
        0
176
     1
 90
        0
176
     1
290
     0
176
     1
 90
        1
176
     1
 40
0.0
176
     1
 90
        0
176
     1
290
     0
176
     1
290
     1
176
     1
290
     1
176
     1
290
     0
176
     1
290
     0
176
     1
290
     0
176
     1
290
     0
176
     1
290
     0
176
     1
290
     0
176
     1
 90
       50
176
     1
 40
0.0
176
     1
 40
1.0
176
     1
 90
        0
176
     1
 62
    18
420
        0
176
     1
 90
       50
176
     1
 90
        3
176
     1
 62
     5
420
      255
176
     1
290
     0
176
     1
 90
       50
176
     1
 90
       50
176
     1
 90
       50
176
     1
290
     0
176
     1
 90
       50
176
     1
 62
   256
176
     0
 40
1.0
176
     0
 90
        2
176
     1
  1
strokes_ogs.tif
176
     1
290
     0
176
     1
 40
1.0
176
     1
 40
1.0
176
     1
  0
VISUALSTYLE
  5
B4E
102
{ACAD_REACTORS
330
B48
102
}
330
B48
100
AcDbVisualStyle
  2
Wireframe
 70
     5
177
     3
291
     0
 70
    58
 90
        0
176
     1
 90
        2
176
     1
 90
        0
176
     1
 90
        0
176
     1
 40
0.6
176
     1
 40
30.0
176
     1
 62
     7
420
 16777215
176
     1
 90
        1
176
     1
 90
        4
176
     1
 62
     7
176
     1
 62
   257
176
     1
 90
        1
176
     1
 90
        1
176
     1
 40
1.0
176
     1
 90
        0
176
     1
 62
   257
176
     1
 40
1.0
176
     1
 90
        1
176
     1
 90
        6
176
     1
 90
        2
176
     1
 62
     7
176
     1
 90
        3
176
     1
 90
        0
176
     1
 90
        0
176
     1
290
     0
176
     1
 90
        1
176
     1
 40
0.0
176
     1
 90
        0
176
     1
290
     0
176
     1
290
     1
176
     1
290
     1
176
     1
290
     0
176
     1
290
     0
176
     1
290
     0
176
     1
290
     0
176
     1
290
     0
176
     1
290
     0
176
     1
 90
       50
176
     1
 40
0.0
176
     1
 40
1.0
176
     1
 90
        0
176
     1
 62
    18
420
        0
176
     1
 90
       50
176
     1
 90
        3
176
     1
 62
     5
420
      255
176
     1
290
     0
176
     1
 90
       50
176
     1
 90
       50
176
     1
 90
       50
176
     1
290
     0
176
     1
 90
       50
176
     1
 62
   256
176
     0
 40
1.0
176
     0
 90
        2
176
     1
  1
strokes_ogs.tif
176
     1
290
     0
176
     1
 40
1.0
176
     1
 40
1.0
176
     1
  0
VISUALSTYLE
  5
B5E
102
{ACAD_REACTORS
330
B48
102
}
330
B48
100
AcDbVisualStyle
  2
X-Ray
 70
    25
177
     3
291
     0
 70
    58
 90
        2
176
     1
 90
        2
176
     1
 90
        1
176
     1
 90
        1
176
     1
 40
0.5
176
     1
 40
30.0
176
     1
 62
     7
420
 16777215
176
     1
 90
        1
176
     1
 90
        0
176
     1
 62
     7
176
     1
 62
   257
176
     1
 90
        1
176
     1
 90
        1
176
     1
 40
1.0
176
     1
 90
        8
176
     1
 62
     7
176
     1
 40
1.0
176
     1
 90
        1
176
     1
 90
        6
176
     1
 90
        2
176
     1
 62
     7
176
     1
 90
        3
176
     1
 90
        0
176
     1
 90
        0
176
     1
290
     0
176
     1
 90
       13
176
     1
 40
0.0
176
     1
 90
        0
176
     1
290
     0
176
     1
290
     1
176
     1
290
     1
176
     1
290
     0
176
     1
290
     0
176
     1
290
     0
176
     1
290
     0
176
     1
290
     0
176
     1
290
     0
176
     1
 90
       50
176
     1
 40
0.0
176
     1
 40
1.0
176
     1
 90
        0
176
     1
 62
    18
420
        0
176
     1
 90
       50
176
     1
 90
        3
176
     1
 62
     5
420
      255
176
     1
290
     0
176
     1
 90
       50
176
     1
 90
       50
176
     1
 90
       50
176
     1
290
     0
176
     1
 90
       50
176
     1
 62
   256
176
     0
 40
1.0
176
     0
 90
        2
176
     1
  1
strokes_ogs.tif
176
     1
290
     0
176
     1
 40
1.0
176
     1
 40
1.0
176
     1
  0
DICTIONARYVAR
  5
BF2
102
{ACAD_REACTORS
330
BF1
102
}
330
BF1
100
DictionaryVariables
280
     0
  1
1:1
  0
DICTIONARYVAR
  5
BF7
102
{ACAD_REACTORS
330
BF1
102
}
330
BF1
100
DictionaryVariables
280
     0
  1
Standard
  0
DICTIONARYVAR
  5
BF6
102
{ACAD_REACTORS
330
BF1
102
}
330
BF1
100
DictionaryVariables
280
     0
  1
Standard
  0
XRECORD
  5
B7F
102
{ACAD_REACTORS
330
B7D
102
}
330
B7D
100
AcDbXrecord
280
     1
1000
#ffffff
  0
XRECORD
  5
B80
102
{ACAD_REACTORS
330
B7D
102
}
330
B7D
100
AcDbXrecord
280
     1
1000
FullColor
  0
XRECORD
  5
B81
102
{ACAD_REACTORS
330
B7D
102
}
330
B7D
100
AcDbXrecord
280
     1
290
     1
  0
XRECORD
  5
B82
102
{ACAD_REACTORS
330
B7D
102
}
330
B7D
100
AcDbXrecord
280
     1
290
     1
  0
XRECORD
  5
B83
102
{ACAD_REACTORS
330
B7D
102
}
330
B7D
100
AcDbXrecord
280
     1
290
     1
  0
XRECORD
  5
B84
102
{ACAD_REACTORS
330
B7D
102
}
330
B7D
100
AcDbXrecord
280
     1
290
     1
  0
XRECORD
  5
B85
102
{ACAD_REACTORS
330
B7D
102
}
330
B7D
100
AcDbXrecord
280
     1
1000
auto
  0
XRECORD
  5
B86
102
{ACAD_REACTORS
330
B7D
102
}
330
B7D
100
AcDbXrecord
280
     1
1000
auto
  0
XRECORD
  5
B87
102
{ACAD_REACTORS
330
B7D
102
}
330
B7D
100
AcDbXrecord
280
     1
1000
auto
  0
XRECORD
  5
B88
102
{ACAD_REACTORS
330
B7D
102
}
330
B7D
100
AcDbXrecord
280
     1
1000
auto
  0
XRECORD
  5
B89
102
{ACAD_REACTORS
330
B7D
102
}
330
B7D
100
AcDbXrecord
280
     1
1000
auto
  0
XRECORD
  5
B8A
102
{ACAD_REACTORS
330
B7D
102
}
330
B7D
100
AcDbXrecord
280
     1
1000
auto
  0
XRECORD
  5
B8B
102
{ACAD_REACTORS
330
B7D
102
}
330
B7D
100
AcDbXrecord
280
     1
1000
auto
  0
XRECORD
  5
B8C
102
{ACAD_REACTORS
330
B7D
102
}
330
B7D
100
AcDbXrecord
280
     1
1000
auto
  0
XRECORD
  5
B8D
102
{ACAD_REACTORS
330
B7D
102
}
330
B7D
100
AcDbXrecord
280
     1
290
     0
  0
XRECORD
  5
B8E
102
{ACAD_REACTORS
330
B7D
102
}
330
B7D
100
AcDbXrecord
280
     1
290
     0
  0
XRECORD
  5
B8F
102
{ACAD_REACTORS
330
B7D
102
}
330
B7D
100
AcDbXrecord
280
     1
290
     0
  0
XRECORD
  5
B90
102
{ACAD_REACTORS
330
B7D
102
}
330
B7D
100
AcDbXrecord
280
     1
290
     0
  0
XRECORD
  5
B91
102
{ACAD_REACTORS
330
B7D
102
}
330
B7D
100
AcDbXrecord
280
     1
 90
    65537
  0
XRECORD
  5
B92
102
{ACAD_REACTORS
330
B7D
102
}
330
B7D
100
AcDbXrecord
280
     1
 90
    65537
  0
XRECORD
  5
B93
102
{ACAD_REACTORS
330
B7D
102
}
330
B7D
100
AcDbXrecord
280
     1
 90
    65537
  0
XRECORD
  5
B94
102
{ACAD_REACTORS
330
B7D
102
}
330
B7D
100
AcDbXrecord
280
     1
 90
    65537
  0
XRECORD
  5
B95
102
{ACAD_REACTORS
330
B7D
102
}
330
B7D
100
AcDbXrecord
280
     1
1000
auto
  0
XRECORD
  5
B96
102
{ACAD_REACTORS
330
B7D
102
}
330
B7D
100
AcDbXrecord
280
     1
1000
auto
  0
XRECORD
  5
B97
102
{ACAD_REACTORS
330
B7D
102
}
330
B7D
100
AcDbXrecord
280
     1
1000
auto
  0
XRECORD
  5
B98
102
{ACAD_REACTORS
330
B7D
102
}
330
B7D
100
AcDbXrecord
280
     1
1000
auto
  0
XRECORD
  5
B99
102
{ACAD_REACTORS
330
B7D
102
}
330
B7D
100
AcDbXrecord
280
     1
1000
auto
  0
XRECORD
  5
B9A
102
{ACAD_REACTORS
330
B7D
102
}
330
B7D
100
AcDbXrecord
280
     1
1000
auto
  0
XRECORD
  5
B9B
102
{ACAD_REACTORS
330
B7D
102
}
330
B7D
100
AcDbXrecord
280
     1
1000
auto
  0
XRECORD
  5
B9C
102
{ACAD_REACTORS
330
B7D
102
}
330
B7D
100
AcDbXrecord
280
     1
1000
auto
  0
XRECORD
  5
B9D
102
{ACAD_REACTORS
330
B7D
102
}
330
B7D
100
AcDbXrecord
280
     1
 90
        1
  0
XRECORD
  5
B9E
102
{ACAD_REACTORS
330
B7D
102
}
330
B7D
100
AcDbXrecord
280
     1
 40
10.0
  0
XRECORD
  5
B9F
102
{ACAD_REACTORS
330
B7D
102
}
330
B7D
100
AcDbXrecord
280
     1
 40
10.0
  0
XRECORD
  5
BA0
102
{ACAD_REACTORS
330
B7D
102
}
330
B7D
100
AcDbXrecord
280
     1
 40
10.0
  0
XRECORD
  5
BA1
102
{ACAD_REACTORS
330
B7D
102
}
330
B7D
100
AcDbXrecord
280
     1
 40
10.0
  0
XRECORD
  5
BA2
102
{ACAD_REACTORS
330
B7D
102
}
330
B7D
100
AcDbXrecord
280
     1
290
     0
  0
XRECORD
  5
BA3
102
{ACAD_REACTORS
330
B7D
102
}
330
B7D
100
AcDbXrecord
280
     1
 90
        1
  0
XRECORD
  5
BA4
102
{ACAD_REACTORS
330
B7D
102
}
330
B7D
100
AcDbXrecord
280
     1
 40
0.0
  0
XRECORD
  5
BA5
102
{ACAD_REACTORS
330
B7D
102
}
330
B7D
100
AcDbXrecord
280
     1
 40
0.0
  0
XRECORD
  5
BA6
102
{ACAD_REACTORS
330
B7D
102
}
330
B7D
100
AcDbXrecord
280
     1
1000
Portrait
  0
XRECORD
  5
BA7
102
{ACAD_REACTORS
330
B7D
102
}
330
B7D
100
AcDbXrecord
280
     1
 40
594.0
  0
XRECORD
  5
BA8
102
{ACAD_REACTORS
330
B7D
102
}
330
B7D
100
AcDbXrecord
280
     1
 40
420.0
  0
XRECORD
  5
BA9
102
{ACAD_REACTORS
330
B7D
102
}
330
B7D
100
AcDbXrecord
280
     1
1000
1:1
  0
XRECORD
  5
BAA
102
{ACAD_REACTORS
330
B7D
102
}
330
B7D
100
AcDbXrecord
280
     1
290
     1
  0
XRECORD
  5
BAB
102
{ACAD_REACTORS
330
B7D
102
}
330
B7D
100
AcDbXrecord
280
     1
290
     0
  0
XRECORD
  5
BAC
102
{ACAD_REACTORS
330
B7D
102
}
330
B7D
100
AcDbXrecord
280
     1
1000
Inside
  0
XRECORD
  5
BAD
102
{ACAD_REACTORS
330
B7D
102
}
330
B7D
100
AcDbXrecord
280
     1
1000
Arial,10,-1,5,50,0,0,0,0,0
  0
XRECORD
  5
BAE
102
{ACAD_REACTORS
330
B7D
102
}
330
B7D
100
AcDbXrecord
280
     1
1000
TopLeft
  0
XRECORD
  5
BAF
102
{ACAD_REACTORS
330
B7D
102
}
330
B7D
100
AcDbXrecord
280
     1
1000
3.27.8
  0
XRECORD
  5
BB0
102
{ACAD_REACTORS
330
B7D
102
}
330
B7D
100
AcDbXrecord
280
     1
 90
        4
  0
XRECORD
  5
BB1
102
{ACAD_REACTORS
330
B7D
102
}
330
B7D
100
AcDbXrecord
280
     1
  0
XRECORD
  5
BB2
102
{ACAD_REACTORS
330
B7D
102
}
330
B7D
100
AcDbXrecord
280
     1
 40
486.9796655491688
  0
XRECORD
  5
BB3
102
{ACAD_REACTORS
330
B7D
102
}
330
B7D
100
AcDbXrecord
280
     1
 40
981.7927841634717
  0
DICTIONARY
  5
BF3
330
B78
100
AcDbDictionary
280
     1
281
     1
  3
ACAD_ROUNDTRIP_2008_TABLESTYLE_CELLSTYLEMAP
360
BF4
  0
CELLSTYLEMAP
  5
BF4
102
{ACAD_REACTORS
330
BF3
102
}
330
BF3
100
AcDbCellStyleMap
 90
        3
300
CELLSTYLE
  1
TABLEFORMAT_BEGIN
 90
        5
170
     1
 91
        0
 92
    32768
 62
   257
 93
        1
300
CONTENTFORMAT
  1
CONTENTFORMAT_BEGIN
 90
        0
 91
        0
 92
        4
 93
        0
300

 40
0.0
140
1.0
 94
        5
 62
     0
340
B30
144
0.25
309
CONTENTFORMAT_END
171
     1
301
MARGIN
  1
CELLMARGIN_BEGIN
 40
0.06
 40
0.06
 40
0.06
 40
0.06
 40
0.06
 40
0.06
309
CELLMARGIN_END
 94
        6
 95
        1
302
GRIDFORMAT
  1
GRIDFORMAT_BEGIN
 90
        0
 91
        1
 62
     0
 92
       -2
340
B32
 93
        0
 40
0.045
309
GRIDFORMAT_END
 95
        2
302
GRIDFORMAT
  1
GRIDFORMAT_BEGIN
 90
        0
 91
        1
 62
     0
 92
       -2
340
B32
 93
        0
 40
0.045
309
GRIDFORMAT_END
 95
        4
302
GRIDFORMAT
  1
GRIDFORMAT_BEGIN
 90
        0
 91
        1
 62
     0
 92
       -2
340
B32
 93
        0
 40
0.045
309
GRIDFORMAT_END
 95
        8
302
GRIDFORMAT
  1
GRIDFORMAT_BEGIN
 90
        0
 91
        1
 62
     0
 92
       -2
340
B32
 93
        0
 40
0.045
309
GRIDFORMAT_END
 95
       16
302
GRIDFORMAT
  1
GRIDFORMAT_BEGIN
 90
        0
 91
        1
 62
     0
 92
       -2
340
B32
 93
        0
 40
0.045
309
GRIDFORMAT_END
 95
       32
302
GRIDFORMAT
  1
GRIDFORMAT_BEGIN
 90
        0
 91
        1
 62
     0
 92
       -2
340
B32
 93
        0
 40
0.045
309
GRIDFORMAT_END
309
TABLEFORMAT_END
  1
CELLSTYLE_BEGIN
 90
        1
 91
        1
300
_TITLE
309
CELLSTYLE_END
300
CELLSTYLE
  1
TABLEFORMAT_BEGIN
 90
        5
170
     1
 91
        0
 92
        0
 62
   257
 93
        1
300
CONTENTFORMAT
  1
CONTENTFORMAT_BEGIN
 90
        0
 91
        0
 92
        4
 93
        0
300

 40
0.0
140
1.0
 94
        5
 62
     0
340
B30
144
0.18
309
CONTENTFORMAT_END
171
     1
301
MARGIN
  1
CELLMARGIN_BEGIN
 40
0.06
 40
0.06
 40
0.06
 40
0.06
 40
0.06
 40
0.06
309
CELLMARGIN_END
 94
        6
 95
        1
302
GRIDFORMAT
  1
GRIDFORMAT_BEGIN
 90
        0
 91
        1
 62
     0
 92
       -2
340
B32
 93
        0
 40
0.045
309
GRIDFORMAT_END
 95
        2
302
GRIDFORMAT
  1
GRIDFORMAT_BEGIN
 90
        0
 91
        1
 62
     0
 92
       -2
340
B32
 93
        0
 40
0.045
309
GRIDFORMAT_END
 95
        4
302
GRIDFORMAT
  1
GRIDFORMAT_BEGIN
 90
        0
 91
        1
 62
     0
 92
       -2
340
B32
 93
        0
 40
0.045
309
GRIDFORMAT_END
 95
        8
302
GRIDFORMAT
  1
GRIDFORMAT_BEGIN
 90
        0
 91
        1
 62
     0
 92
       -2
340
B32
 93
        0
 40
0.045
309
GRIDFORMAT_END
 95
       16
302
GRIDFORMAT
  1
GRIDFORMAT_BEGIN
 90
        0
 91
        1
 62
     0
 92
       -2
340
B32
 93
        0
 40
0.045
309
GRIDFORMAT_END
 95
       32
302
GRIDFORMAT
  1
GRIDFORMAT_BEGIN
 90
        0
 91
        1
 62
     0
 92
       -2
340
B32
 93
        0
 40
0.045
309
GRIDFORMAT_END
309
TABLEFORMAT_END
  1
CELLSTYLE_BEGIN
 90
        2
 91
        1
300
_HEADER
309
CELLSTYLE_END
300
CELLSTYLE
  1
TABLEFORMAT_BEGIN
 90
        5
170
     1
 91
        0
 92
        0
 62
   257
 93
        1
300
CONTENTFORMAT
  1
CONTENTFORMAT_BEGIN
 90
        0
 91
        0
 92
        4
 93
        0
300

 40
0.0
140
1.0
 94
        2
 62
     0
340
B30
144
0.18
309
CONTENTFORMAT_END
171
     1
301
MARGIN
  1
CELLMARGIN_BEGIN
 40
0.06
 40
0.06
 40
0.06
 40
0.06
 40
0.06
 40
0.06
309
CELLMARGIN_END
 94
        6
 95
        1
302
GRIDFORMAT
  1
GRIDFORMAT_BEGIN
 90
        0
 91
        1
 62
     0
 92
       -2
340
B32
 93
        0
 40
0.045
309
GRIDFORMAT_END
 95
        2
302
GRIDFORMAT
  1
GRIDFORMAT_BEGIN
 90
        0
 91
        1
 62
     0
 92
       -2
340
B32
 93
        0
 40
0.045
309
GRIDFORMAT_END
 95
        4
302
GRIDFORMAT
  1
GRIDFORMAT_BEGIN
 90
        0
 91
        1
 62
     0
 92
       -2
340
B32
 93
        0
 40
0.045
309
GRIDFORMAT_END
 95
        8
302
GRIDFORMAT
  1
GRIDFORMAT_BEGIN
 90
        0
 91
        1
 62
     0
 92
       -2
340
B32
 93
        0
 40
0.045
309
GRIDFORMAT_END
 95
       16
302
GRIDFORMAT
  1
GRIDFORMAT_BEGIN
 90
        0
 91
        1
 62
     0
 92
       -2
340
B32
 93
        0
 40
0.045
309
GRIDFORMAT_END
 95
       32
302
GRIDFORMAT
  1
GRIDFORMAT_BEGIN
 90
        0
 91
        1
 62
     0
 92
       -2
340
B32
 93
        0
 40
0.045
309
GRIDFORMAT_END
309
TABLEFORMAT_END
  1
CELLSTYLE_BEGIN
 90
        3
 91
        2
300
_DATA
309
CELLSTYLE_END
  0
ENDSEC
  0
EOF
