G04 DesignSpark PCB Gerber Version 11.0 Build 5877*
G04 #@! TF.Part,Single*
G04 #@! TF.FileFunction,Soldermask,Top*
G04 #@! TF.FilePolarity,Negative*
%FSLAX35Y35*%
%MOIN*%
G04 #@! TA.AperFunction,SMDPad,CuDef*
%ADD132R,0.04537X0.04891*%
%ADD133R,0.04600X0.05400*%
G04 #@! TA.AperFunction,ViaPad*
%ADD130C,0.04600*%
G04 #@! TA.AperFunction,ComponentPad*
%ADD70C,0.06600*%
G04 #@! TA.AperFunction,SMDPad,CuDef*
%ADD131R,0.03400X0.02400*%
%ADD134R,0.08600X0.06900*%
G04 #@! TD.AperFunction*
X0Y0D02*
D02*
D70*
X10600Y10600D03*
Y190600D03*
X20600Y10600D03*
Y190600D03*
X30600D03*
X40600D03*
X230600Y10600D03*
Y190600D03*
X240600Y10600D03*
Y190600D03*
D02*
D130*
X52107Y171513D03*
X100577Y33620D03*
X100949Y171513D03*
X133100Y103100D03*
X160306Y33620D03*
X173426Y171513D03*
D02*
D131*
X52445Y116578D03*
Y120319D03*
Y124059D03*
X52539Y136478D03*
Y140219D03*
Y143959D03*
X61781Y116578D03*
Y120319D03*
Y124059D03*
X61875Y136478D03*
Y140219D03*
Y143959D03*
X173532Y136810D03*
Y140550D03*
Y144290D03*
X173657Y116589D03*
Y120329D03*
Y124069D03*
X182868Y136810D03*
Y140550D03*
Y144290D03*
X182993Y116589D03*
Y120329D03*
Y124069D03*
D02*
D132*
X19353Y137071D03*
Y144071D03*
X28100Y71467D03*
Y78467D03*
Y120201D03*
Y127201D03*
Y137071D03*
Y144071D03*
X38097Y137071D03*
Y144071D03*
X38101Y120201D03*
Y127201D03*
X41846Y97083D03*
Y104083D03*
X52107Y158019D03*
Y165019D03*
X52215Y97410D03*
Y104410D03*
X60590Y45850D03*
Y52850D03*
X62211Y97410D03*
Y104410D03*
X66585Y158019D03*
Y165019D03*
X85582Y45850D03*
Y52850D03*
X96828Y157689D03*
Y164689D03*
X99952Y74591D03*
Y81591D03*
Y110204D03*
Y117204D03*
X138100Y137100D03*
Y144100D03*
X145600Y72100D03*
Y79100D03*
X148100Y119600D03*
Y126600D03*
Y137100D03*
Y144100D03*
X158100Y119600D03*
Y126600D03*
Y137100D03*
Y144100D03*
X163100Y96785D03*
Y103785D03*
X173103Y96785D03*
Y103785D03*
X173426Y158016D03*
Y165016D03*
X182174Y46801D03*
Y53801D03*
X182798Y96785D03*
Y103785D03*
X187172Y158016D03*
Y165016D03*
X206541Y46801D03*
Y53801D03*
X217163Y158016D03*
Y165016D03*
X220911Y73667D03*
Y80667D03*
Y113030D03*
Y120030D03*
D02*
D133*
X52841Y71916D03*
X56841Y80616D03*
X60841Y71916D03*
X77833D03*
X78205Y164566D03*
X81833Y80616D03*
X82205Y155866D03*
X85833Y71916D03*
X86205Y164566D03*
X95952Y135021D03*
X96577Y59273D03*
X99952Y143721D03*
X100577Y50573D03*
X103952Y135021D03*
X104577Y59273D03*
X174100Y71618D03*
X178100Y80318D03*
X182100Y71618D03*
X198167D03*
Y165191D03*
X202167Y80318D03*
Y156491D03*
X206167Y71618D03*
Y165191D03*
X216287Y135348D03*
X216911Y60224D03*
X220287Y144048D03*
X220911Y51524D03*
X224287Y135348D03*
X224911Y60224D03*
D02*
D134*
X28100Y40600D03*
Y55600D03*
X42470Y40600D03*
Y55600D03*
X81833Y95583D03*
Y110583D03*
Y127448D03*
Y142448D03*
X145600Y41543D03*
Y56543D03*
X160306Y41551D03*
Y56551D03*
X202167Y98408D03*
Y113408D03*
Y127774D03*
Y142774D03*
X0Y0D02*
M02*
